<svg width="50" height="50" viewBox="0 0 50 50" fill="none" xmlns="http://www.w3.org/2000/svg">
<g clip-path="url(#clip0_420_2)">
<path d="M37.6953 22.4609C38.774 22.4609 39.6484 21.5865 39.6484 20.5078C39.6484 19.4291 38.774 18.5547 37.6953 18.5547C36.6166 18.5547 35.7422 19.4291 35.7422 20.5078C35.7422 21.5865 36.6166 22.4609 37.6953 22.4609Z" fill="#007CFA"/>
<path d="M42.1875 3.90625H39.6484V1.95312C39.6484 0.874414 38.774 0 37.6953 0C36.6166 0 35.7422 0.874414 35.7422 1.95312V3.90625H26.8555V1.95312C26.8555 0.874414 25.9811 0 24.9023 0C23.8236 0 22.9492 0.874414 22.9492 1.95312V3.90625H14.1602V1.95312C14.1602 0.874414 13.2857 0 12.207 0C11.1283 0 10.2539 0.874414 10.2539 1.95312V3.90625H7.8125C3.50469 3.90625 0 7.41094 0 11.7188V42.1875C0 46.4953 3.50469 50 7.8125 50H22.7539C23.8326 50 24.707 49.1256 24.707 48.0469C24.707 46.9682 23.8326 46.0938 22.7539 46.0938H7.8125C5.65859 46.0938 3.90625 44.3414 3.90625 42.1875V11.7188C3.90625 9.56484 5.65859 7.8125 7.8125 7.8125H10.2539V9.76562C10.2539 10.8443 11.1283 11.7188 12.207 11.7188C13.2857 11.7188 14.1602 10.8443 14.1602 9.76562V7.8125H22.9492V9.76562C22.9492 10.8443 23.8236 11.7188 24.9023 11.7188C25.9811 11.7188 26.8555 10.8443 26.8555 9.76562V7.8125H35.7422V9.76562C35.7422 10.8443 36.6166 11.7188 37.6953 11.7188C38.774 11.7188 39.6484 10.8443 39.6484 9.76562V7.8125H42.1875C44.3414 7.8125 46.0938 9.56484 46.0938 11.7188V22.8516C46.0938 23.9303 46.9682 24.8047 48.0469 24.8047C49.1256 24.8047 50 23.9303 50 22.8516V11.7188C50 7.41094 46.4953 3.90625 42.1875 3.90625Z" fill="#007CFA"/>
<path d="M38.1836 26.3672C31.668 26.3672 26.3672 31.668 26.3672 38.1836C26.3672 44.6992 31.668 50 38.1836 50C44.6992 50 50 44.6992 50 38.1836C50 31.668 44.6992 26.3672 38.1836 26.3672ZM38.1836 46.0938C33.822 46.0938 30.2734 42.5453 30.2734 38.1836C30.2734 33.8219 33.822 30.2734 38.1836 30.2734C42.5452 30.2734 46.0938 33.8219 46.0938 38.1836C46.0938 42.5453 42.5452 46.0938 38.1836 46.0938Z" fill="#007CFA"/>
<path d="M41.0156 36.2305H40.1367V34.1797C40.1367 33.101 39.2623 32.2266 38.1836 32.2266C37.1049 32.2266 36.2305 33.101 36.2305 34.1797V38.1836C36.2305 39.2623 37.1049 40.1367 38.1836 40.1367H41.0156C42.0943 40.1367 42.9688 39.2623 42.9688 38.1836C42.9688 37.1049 42.0943 36.2305 41.0156 36.2305Z" fill="#007CFA"/>
<path d="M29.1992 22.4609C30.2779 22.4609 31.1523 21.5865 31.1523 20.5078C31.1523 19.4291 30.2779 18.5547 29.1992 18.5547C28.1205 18.5547 27.2461 19.4291 27.2461 20.5078C27.2461 21.5865 28.1205 22.4609 29.1992 22.4609Z" fill="#007CFA"/>
<path d="M20.7031 30.957C21.7818 30.957 22.6562 30.0826 22.6562 29.0039C22.6562 27.9252 21.7818 27.0508 20.7031 27.0508C19.6244 27.0508 18.75 27.9252 18.75 29.0039C18.75 30.0826 19.6244 30.957 20.7031 30.957Z" fill="#007CFA"/>
<path d="M12.207 22.4609C13.2857 22.4609 14.1602 21.5865 14.1602 20.5078C14.1602 19.4291 13.2857 18.5547 12.207 18.5547C11.1284 18.5547 10.2539 19.4291 10.2539 20.5078C10.2539 21.5865 11.1284 22.4609 12.207 22.4609Z" fill="#007CFA"/>
<path d="M12.207 30.957C13.2857 30.957 14.1602 30.0826 14.1602 29.0039C14.1602 27.9252 13.2857 27.0508 12.207 27.0508C11.1284 27.0508 10.2539 27.9252 10.2539 29.0039C10.2539 30.0826 11.1284 30.957 12.207 30.957Z" fill="#007CFA"/>
<path d="M12.207 39.4531C13.2857 39.4531 14.1602 38.5787 14.1602 37.5C14.1602 36.4213 13.2857 35.5469 12.207 35.5469C11.1284 35.5469 10.2539 36.4213 10.2539 37.5C10.2539 38.5787 11.1284 39.4531 12.207 39.4531Z" fill="#007CFA"/>
<path d="M20.7031 39.4531C21.7818 39.4531 22.6562 38.5787 22.6562 37.5C22.6562 36.4213 21.7818 35.5469 20.7031 35.5469C19.6244 35.5469 18.75 36.4213 18.75 37.5C18.75 38.5787 19.6244 39.4531 20.7031 39.4531Z" fill="#007CFA"/>
<path d="M20.7031 22.4609C21.7818 22.4609 22.6562 21.5865 22.6562 20.5078C22.6562 19.4291 21.7818 18.5547 20.7031 18.5547C19.6244 18.5547 18.75 19.4291 18.75 20.5078C18.75 21.5865 19.6244 22.4609 20.7031 22.4609Z" fill="#007CFA"/>
</g>
<defs>
<clipPath id="clip0_420_2">
<rect width="50" height="50" fill="white"/>
</clipPath>
</defs>
</svg>
