<svg width="50" height="50" viewBox="0 0 50 50" fill="none" xmlns="http://www.w3.org/2000/svg">
<path d="M37.0785 29.4992L31.7604 26.8401C35.5119 23.7382 38.1836 18.1099 38.1836 13.1836C38.1836 5.91416 32.2694 0 25 0C17.7306 0 11.8164 5.91416 11.8164 13.1836C11.8164 18.1093 14.4883 23.7384 18.2396 26.8401L12.9215 29.4992C7.4335 29.6895 3.02734 34.2126 3.02734 39.7461V48.5352C3.02734 49.3441 3.6832 50 4.49219 50H45.5078C46.3168 50 46.9727 49.3441 46.9727 48.5352V39.7461C46.9727 34.2126 42.5665 29.6895 37.0785 29.4992ZM34.5794 31.5252L30.3578 37.8576L27.1393 36.2483L31.3608 29.9159L34.5794 31.5252ZM25 2.92969C30.1566 2.92969 34.4358 6.75625 35.1488 11.7188H33.7891C31.3659 11.7188 29.3945 9.74736 29.3945 7.32422C29.3945 6.51523 28.7387 5.85938 27.9297 5.85938C27.1207 5.85938 26.4648 6.51523 26.4648 7.32422C26.4648 9.74736 24.4935 11.7188 22.0703 11.7188H14.8512C15.5642 6.75625 19.8434 2.92969 25 2.92969ZM18.6391 29.9158L22.8606 36.2482L19.6421 37.8575L15.4205 31.5251L18.6391 29.9158ZM23.5352 47.0703H5.95703V39.7461C5.95703 35.9634 8.83955 32.8415 12.5234 32.461L17.9218 40.5586C18.3318 41.1736 19.1354 41.3864 19.7957 41.0562L23.5352 39.1866V47.0703ZM21.2839 28.6014C22.0306 27.6623 21.963 26.316 21.1143 25.4593L21.1142 25.4592C20.9604 25.3041 20.6756 25.0236 20.4945 24.8883C17.5895 22.7163 15.3191 18.5158 14.8408 14.6484H22.0703C24.4636 14.6484 26.5923 13.4947 27.9297 11.7142C29.2671 13.4947 31.3958 14.6387 33.7891 14.6387H35.1593C34.6808 18.5077 32.4093 22.7189 29.5027 24.8904C29.3225 25.0251 29.0387 25.3043 28.8855 25.4587C28.033 26.3188 27.9716 27.6667 28.7158 28.6019L25 34.1756L21.2839 28.6014ZM44.043 47.0703H26.4648V39.1866L30.2043 41.0563C30.8652 41.3867 31.6686 41.1732 32.0782 40.5587L37.4766 32.4611C41.1605 32.8415 44.043 35.9634 44.043 39.7461V47.0703Z" fill="#007CFA"/>
<path d="M39.6484 41.2109H33.7891C32.9801 41.2109 32.3242 41.8668 32.3242 42.6758C32.3242 43.4848 32.9801 44.1406 33.7891 44.1406H39.6484C40.4574 44.1406 41.1133 43.4848 41.1133 42.6758C41.1133 41.8668 40.4574 41.2109 39.6484 41.2109Z" fill="#007CFA"/>
</svg>
