<svg width="53" height="48" viewBox="0 0 53 48" fill="none" xmlns="http://www.w3.org/2000/svg">
<path d="M34.9659 41.9052L27.1382 0.800598H5.8C2.59782 0.800598 0 3.39668 0 6.6006C0 9.8022 2.59782 12.4 5.8 12.4H15.4669C16.5335 12.4 17.4 13.2665 17.4 14.3337C17.4 15.0303 17.0474 15.4868 16.8333 15.7002L12.3627 20.1709C12.1092 20.154 11.8604 20.1337 11.6035 20.1337H0V37.5326C0 40.7382 2.59782 43.3326 5.8 43.3326C8.32242 43.3326 10.4487 41.7167 11.245 39.4663H23.2V31.7326C23.2 27.1529 20.5378 23.2037 16.6849 21.3175L19.568 18.4343C20.6178 17.384 21.2674 15.934 21.2674 14.3337C21.2674 11.1298 18.6708 8.53374 15.4674 8.53374H5.8C4.73338 8.53374 3.86686 7.66722 3.86686 6.6006C3.86686 5.53166 4.73338 4.66688 5.8 4.66688H23.9366L30.9331 41.3994V47.1994H46.4V43.3326L34.9659 41.9052ZM5.8 39.4663C4.73338 39.4663 3.86686 38.6015 3.86686 37.5326C3.86686 36.4642 4.73338 35.5994 5.8 35.5994C6.86894 35.5994 7.73314 36.4642 7.73314 37.5326C7.73314 38.6015 6.86894 39.4663 5.8 39.4663ZM18.2572 27.8669H13.5331V31.7326H19.3331V35.5994H11.245C10.4487 33.3525 8.32242 31.7326 5.8 31.7326C5.12024 31.7326 4.4747 31.8724 3.86686 32.0875V24H11.6041C14.4507 24 16.9169 25.5672 18.2572 27.8669Z" fill="#007CFA"/>
<path d="M52.8668 19.8023C50.7295 19.8023 49 21.5359 49 23.6669H47.0668C47.0668 21.5359 45.3338 19.8023 43.2 19.8023V17.864C45.3378 17.864 47.0668 16.1309 47.0668 14H49C49 16.1309 50.733 17.864 52.8668 17.864V19.8023Z" fill="#1F1F1F"/>
<path d="M43 25.9C43 27.5008 41.7031 28.8 40.1 28.8C38.5026 28.8 37.2 27.5008 37.2 25.9C37.2 24.2986 38.5026 23 40.1 23C41.7031 23 43 24.2986 43 25.9Z" fill="#1F1F1F"/>
<path d="M48.0668 31.9337C48.0668 32.9986 47.198 33.8669 46.1331 33.8669C45.0682 33.8669 44.2 32.9986 44.2 31.9337C44.2 30.8688 45.0682 30 46.1331 30C47.198 30 48.0668 30.8688 48.0668 31.9337Z" fill="#1F1F1F"/>
</svg>
