<svg width="50" height="50" viewBox="0 0 50 50" fill="none" xmlns="http://www.w3.org/2000/svg">
<g clip-path="url(#clip0_161_130)">
<path d="M48.8974 43.5692L39.8447 34.5165C40.0935 34.1377 40.0515 33.6238 39.7184 33.2907C39.3854 32.9577 38.8713 32.9156 38.4926 33.1644L36.0769 30.7487C37.8825 28.0683 39.0191 24.9638 39.3479 21.7258C39.7982 17.291 38.7258 12.7956 36.3284 9.06737C36.0367 8.61375 35.4325 8.4826 34.979 8.7742C34.5254 9.0659 34.3942 9.6701 34.6858 10.1236C39.1693 17.0955 38.1623 26.417 32.2915 32.2878C25.3628 39.2165 14.089 39.2165 7.1602 32.2878C0.231494 25.3592 0.231494 14.0853 7.1602 7.15653C13.0373 1.27948 22.062 0.238365 29.1065 4.6242C29.5641 4.90907 30.1664 4.76922 30.4514 4.31141C30.7365 3.8537 30.5963 3.25155 30.1386 2.96649C26.421 0.652036 21.9629 -0.360659 17.5847 0.114634C13.1397 0.597349 8.94722 2.6079 5.77925 5.77567C-1.91079 13.4658 -1.91079 25.9786 5.77925 33.6686C9.62437 37.5138 14.675 39.4362 19.7258 39.4362C23.5738 39.4362 27.4209 38.319 30.7357 36.0874L33.1393 38.491C32.7782 38.8736 32.7839 39.4763 33.1584 39.8508C33.3491 40.0415 33.5989 40.1368 33.8488 40.1368C34.0898 40.1368 34.3302 40.0473 34.5181 39.8699L43.5575 48.9093C44.285 49.6368 45.2415 50 46.2005 50C47.1684 50 48.139 49.6298 48.8786 48.8902C50.3506 47.418 50.3592 45.0309 48.8974 43.5692ZM32.7505 35.3407L35.3289 32.7624L37.0974 34.5309L34.5191 37.1093L32.7505 35.3407ZM47.4976 47.5094C46.7867 48.2202 45.6386 48.2288 44.9383 47.5283L35.8999 38.4899L38.4783 35.9116L47.5166 44.95C48.2169 45.6505 48.2084 46.7985 47.4976 47.5094Z" fill="#8CC63F"/>
<path d="M33.6957 5.79898L33.6746 5.77779C33.2945 5.39537 32.6762 5.39351 32.2937 5.77359C31.9113 6.15367 31.9093 6.77193 32.2895 7.15445L32.3149 7.17994C32.5056 7.37066 32.7554 7.46597 33.0053 7.46597C33.2552 7.46597 33.5051 7.37066 33.6957 7.17994C34.077 6.79869 34.077 6.18042 33.6957 5.79898Z" fill="#8CC63F"/>
<path d="M19.7258 4.68567C11.4346 4.68567 4.68921 11.4311 4.68921 19.7223C4.68921 28.0135 11.4346 34.7589 19.7258 34.7589C28.017 34.7589 34.7624 28.0135 34.7624 19.7223C34.7624 11.4311 28.017 4.68567 19.7258 4.68567ZM19.7258 32.8061C12.5114 32.8061 6.64204 26.9367 6.64204 19.7223C6.64204 12.5078 12.5114 6.6385 19.7258 6.6385C26.9403 6.6385 32.8096 12.5078 32.8096 19.7223C32.8096 26.9367 26.9403 32.8061 19.7258 32.8061Z" fill="#8CC63F"/>
<path d="M23.4415 18.4534C24.0497 17.6628 24.4125 16.6741 24.4125 15.6017V14.3228C24.4125 11.7385 22.3101 9.63611 19.7258 9.63611C17.1416 9.63611 15.0391 11.7385 15.0391 14.3228V15.6017C15.0391 16.6741 15.4019 17.6629 16.0102 18.4534C12.9047 19.039 10.5476 21.7704 10.5476 25.0436V25.5481C10.5476 26.0874 10.9847 26.5245 11.524 26.5245H27.9275C28.4667 26.5245 28.9039 26.0874 28.9039 25.5481V25.0436C28.9041 21.7705 26.5469 19.0391 23.4415 18.4534ZM16.9919 14.3228C16.9919 12.8154 18.2184 11.5889 19.7258 11.5889C21.2333 11.5889 22.4597 12.8154 22.4597 14.3228V15.6017C22.4597 17.1092 21.2333 18.3356 19.7258 18.3356C18.2184 18.3356 16.9919 17.1092 16.9919 15.6017V14.3228ZM12.5237 24.5717C12.7614 22.1704 14.7928 20.2885 17.2556 20.2885H22.1961C24.6589 20.2885 26.6904 22.1704 26.9281 24.5717H12.5237Z" fill="#8CC63F"/>
<path d="M43.1939 1.17065C42.6546 1.17065 42.2175 1.60776 42.2175 2.14702V3.36069C42.2175 3.89985 42.6546 4.33706 43.1939 4.33706C43.7332 4.33706 44.1703 3.89995 44.1703 3.36069V2.14712C44.1703 1.60776 43.7332 1.17065 43.1939 1.17065Z" fill="#8CC63F"/>
<path d="M43.1939 6.98706C42.6546 6.98706 42.2175 7.42417 42.2175 7.96343V9.1771C42.2175 9.71636 42.6546 10.1535 43.1939 10.1535C43.7332 10.1535 44.1703 9.71636 44.1703 9.1771V7.96353C44.1703 7.42427 43.7332 6.98706 43.1939 6.98706Z" fill="#8CC63F"/>
<path d="M46.7088 4.68567H45.4952C44.9559 4.68567 44.5188 5.12278 44.5188 5.66204C44.5188 6.20129 44.9559 6.6384 45.4952 6.6384H46.7088C47.2481 6.6384 47.6852 6.20129 47.6852 5.66204C47.6852 5.12278 47.2481 4.68567 46.7088 4.68567Z" fill="#8CC63F"/>
<path d="M40.8924 4.68567H39.6788C39.1395 4.68567 38.7024 5.12278 38.7024 5.66204C38.7024 6.20129 39.1395 6.6384 39.6788 6.6384H40.8924C41.4317 6.6384 41.8688 6.20129 41.8688 5.66204C41.8688 5.12278 41.4318 4.68567 40.8924 4.68567Z" fill="#8CC63F"/>
<path d="M6.04863 40.2351C5.50938 40.2351 5.07227 40.6722 5.07227 41.2115V42.4251C5.07227 42.9644 5.50938 43.4015 6.04863 43.4015C6.58789 43.4015 7.025 42.9644 7.025 42.4251V41.2115C7.025 40.6722 6.58789 40.2351 6.04863 40.2351Z" fill="#8CC63F"/>
<path d="M6.04863 46.0515C5.50938 46.0515 5.07227 46.4886 5.07227 47.0279V48.2416C5.07227 48.7808 5.50938 49.2179 6.04863 49.2179C6.58789 49.2179 7.025 48.7808 7.025 48.2416V47.0279C7.025 46.4886 6.58789 46.0515 6.04863 46.0515Z" fill="#8CC63F"/>
<path d="M9.56357 43.7502H8.3499C7.81064 43.7502 7.37354 44.1874 7.37354 44.7266C7.37354 45.2659 7.81064 45.703 8.3499 45.703H9.56357C10.1028 45.703 10.5399 45.2659 10.5399 44.7266C10.5399 44.1874 10.1028 43.7502 9.56357 43.7502Z" fill="#8CC63F"/>
<path d="M3.74717 43.7502H2.5335C1.99424 43.7502 1.55713 44.1874 1.55713 44.7266C1.55713 45.2659 1.99424 45.703 2.5335 45.703H3.74717C4.28643 45.703 4.72354 45.2659 4.72354 44.7266C4.72354 44.1874 4.28643 43.7502 3.74717 43.7502Z" fill="#8CC63F"/>
</g>
<defs>
<clipPath id="clip0_161_130">
<rect width="50" height="50" fill="white"/>
</clipPath>
</defs>
</svg>
