<svg width="50" height="50" viewBox="0 0 50 50" fill="none" xmlns="http://www.w3.org/2000/svg">
<path d="M1.73341 20.8333H2.53341V48.3333C2.53341 49.2538 3.27961 50 4.20008 50H32.5334C33.4539 50 34.2001 49.2538 34.2001 48.3333V33.7083C34.2001 33.2481 33.827 32.875 33.3668 32.875C32.9065 32.875 32.5334 33.2481 32.5334 33.7083V48.3333H30.0293V40.8333C30.0293 38.0719 27.7907 35.8333 25.0293 35.8333C22.2678 35.8333 20.0292 38.0719 20.0292 40.8333V48.3333H4.20008V20.8333H16.2751C16.7353 20.8333 17.1084 20.4602 17.1084 20C17.1084 19.5397 16.7353 19.1667 16.2751 19.1667H3.38258C3.37675 19.1667 3.37258 19.1667 3.36675 19.1667C3.36091 19.1667 3.35675 19.1667 3.35091 19.1667H1.72925L18.3626 6.86665L23.8876 10.9583C24.2576 11.2322 24.7796 11.1542 25.0534 10.7842C25.3273 10.4141 25.2493 9.89216 24.8792 9.61832L19.3551 5.53082C18.7647 5.09747 17.9613 5.09747 17.3709 5.53082L0.737581 17.8333C0.164283 18.2633 -0.0699871 19.0116 0.155778 19.6917C0.381543 20.3719 1.0168 20.8315 1.73341 20.8333ZM21.6959 40.8333C21.6959 39.6424 22.3312 38.542 23.3626 37.9466C24.3939 37.3511 25.6646 37.3511 26.6959 37.9466C27.7273 38.542 28.3626 39.6424 28.3626 40.8333V48.3333H21.6959V40.8333Z" fill="#FFC702"/>
<path d="M7.52913 45.8334H15.8625C16.3227 45.8334 16.6958 45.4603 16.6958 45V36.6667C16.6958 36.2065 16.3227 35.8334 15.8625 35.8334H7.52913C7.0689 35.8334 6.6958 36.2065 6.6958 36.6667V45C6.6958 45.4603 7.0689 45.8334 7.52913 45.8334ZM8.36247 41.6667H10.8625V44.1667H8.36247V41.6667ZM12.5291 44.1667V41.6667H15.0291V44.1667H12.5291ZM15.0291 40H12.5291V37.5H15.0291V40ZM10.8625 37.5V40H8.36247V37.5H10.8625Z" fill="#FFC702"/>
<path d="M16.6958 24.1667C16.6958 23.7065 16.3227 23.3334 15.8625 23.3334H7.52913C7.0689 23.3334 6.6958 23.7065 6.6958 24.1667V32.5C6.6958 32.9603 7.0689 33.3334 7.52913 33.3334H15.8625C16.3227 33.3334 16.6958 32.9603 16.6958 32.5V24.1667ZM15.0291 27.5H12.5291V25H15.0291V27.5ZM10.8625 25V27.5H8.36247V25H10.8625ZM8.36247 29.1667H10.8625V31.6667H8.36247V29.1667ZM12.5291 31.6667V29.1667H15.0291V31.6667H12.5291Z" fill="#FFC702"/>
<path d="M25.8626 45.0001C26.3229 45.0001 26.696 44.627 26.696 44.1667V42.5001C26.696 42.0398 26.3229 41.6667 25.8626 41.6667C25.4024 41.6667 25.0293 42.0398 25.0293 42.5001V44.1667C25.0293 44.3878 25.1171 44.5997 25.2734 44.756C25.4297 44.9123 25.6416 45.0001 25.8626 45.0001Z" fill="#FFC702"/>
<path d="M26.2011 12.0142L25.6111 12.6042C25.3919 12.8246 25.2396 13.1025 25.1719 13.4059L20.0977 14.7434C19.9544 14.7807 19.8238 14.8558 19.7194 14.9609C18.6836 15.9959 18.3744 18.0542 18.8911 20.4675C18.9669 20.8192 19.0577 21.1692 19.1669 21.5167V21.5375C19.1669 21.5442 19.1827 21.5667 19.1877 21.5825C20.5611 25.9931 24.0167 29.4456 28.4286 30.815C28.4411 30.815 28.4494 30.8284 28.4627 30.8325C28.4761 30.8367 28.4811 30.8325 28.4911 30.8325C28.8361 30.9375 29.1836 31.0309 29.5327 31.1059C30.2489 31.2632 30.9795 31.3454 31.7127 31.3509C32.9189 31.4383 34.1118 31.0534 35.0394 30.2775C35.1444 30.1731 35.2195 30.0425 35.2569 29.8992L36.5902 24.825C36.8936 24.7566 37.1716 24.6045 37.3927 24.3859L37.9819 23.7959C39.7967 21.98 40.2133 19.1921 39.0086 16.925L48.4252 8.36252C49.9096 7.01345 50.4002 4.88446 49.6559 3.02184C48.9116 1.15922 47.0889 -0.0453885 45.0836 2.00142e-05C43.7685 0.0266896 42.5229 0.595791 41.6419 1.57252L33.0752 10.9917C30.8082 9.78421 28.0185 10.1992 26.2011 12.0142ZM33.7102 29.2284C33.1069 29.6542 31.7536 29.8792 29.8819 29.4784C29.8294 29.4667 29.7627 29.4492 29.7061 29.4359L30.5394 26.3742C30.6175 26.0869 30.5365 25.7797 30.3268 25.5684C30.117 25.3571 29.8105 25.2737 29.5226 25.3496C29.2347 25.4256 29.0092 25.6494 28.9311 25.9367L28.1127 28.9367C26.7755 28.4125 25.5394 27.6602 24.4594 26.7134L27.2552 23.9175C27.571 23.5905 27.5665 23.0708 27.2451 22.7493C26.9236 22.4279 26.4039 22.4234 26.0769 22.7392L23.2811 25.535C22.3342 24.455 21.582 23.2189 21.0577 21.8817L24.0619 21.0634C24.506 20.9425 24.7681 20.4846 24.6473 20.0404C24.5265 19.5963 24.0685 19.3342 23.6244 19.455L20.5627 20.2884C20.5494 20.2317 20.5319 20.165 20.5202 20.1125C20.1194 18.24 20.3452 16.8875 20.7702 16.2842L25.6536 15L35.0002 24.3467L33.7102 29.2284ZM36.8069 22.6209L36.2186 23.2109L26.7894 13.7825L27.3794 13.1934C29.0066 11.5662 31.6447 11.5662 33.2719 13.1934L36.8069 16.7284C38.434 18.3555 38.434 20.9937 36.8069 22.6209ZM42.8702 2.69419C43.6492 1.83919 44.8352 1.48167 45.9569 1.76369C47.0787 2.04571 47.9545 2.92158 48.2366 4.04333C48.5186 5.16507 48.1611 6.35103 47.3061 7.13002L38.0136 15.5775L34.4227 11.9867L42.8702 2.69419Z" fill="#FFC702"/>
<path d="M37.5 32.0834C37.5 33.6942 38.8058 35.0001 40.4167 35.0001C42.0275 35.0001 43.3333 33.6942 43.3333 32.0834C43.3333 30.4726 42.0275 29.1667 40.4167 29.1667C38.8058 29.1667 37.5 30.4726 37.5 32.0834ZM41.6667 32.0834C41.6667 32.7738 41.107 33.3334 40.4167 33.3334C39.7263 33.3334 39.1667 32.7738 39.1667 32.0834C39.1667 31.3931 39.7263 30.8334 40.4167 30.8334C41.107 30.8334 41.6667 31.3931 41.6667 32.0834Z" fill="#FFC702"/>
<path d="M26.2502 6.66671C27.861 6.66671 29.1668 5.36087 29.1668 3.75004C29.1668 2.13921 27.861 0.833374 26.2502 0.833374C24.6393 0.833374 23.3335 2.13921 23.3335 3.75004C23.3335 5.36087 24.6393 6.66671 26.2502 6.66671ZM26.2502 2.50004C26.9405 2.50004 27.5002 3.05968 27.5002 3.75004C27.5002 4.4404 26.9405 5.00004 26.2502 5.00004C25.5598 5.00004 25.0002 4.4404 25.0002 3.75004C25.0002 3.05968 25.5598 2.50004 26.2502 2.50004Z" fill="#FFC702"/>
<path d="M45.0003 20C44.5401 20 44.167 20.3731 44.167 20.8333V22.5C44.167 22.9602 44.5401 23.3333 45.0003 23.3333C45.4606 23.3333 45.8337 22.9602 45.8337 22.5V20.8333C45.8337 20.3731 45.4606 20 45.0003 20Z" fill="#FFC702"/>
<path d="M44.167 25.8333V27.5C44.167 27.9602 44.5401 28.3333 45.0003 28.3333C45.4606 28.3333 45.8337 27.9602 45.8337 27.5V25.8333C45.8337 25.3731 45.4606 25 45.0003 25C44.5401 25 44.167 25.3731 44.167 25.8333Z" fill="#FFC702"/>
<path d="M48.3335 23.3334H46.6668C46.2066 23.3334 45.8335 23.7065 45.8335 24.1667C45.8335 24.6269 46.2066 25 46.6668 25H48.3335C48.7937 25 49.1668 24.6269 49.1668 24.1667C49.1668 23.7065 48.7937 23.3334 48.3335 23.3334Z" fill="#FFC702"/>
<path d="M44.1668 24.1667C44.1668 23.7065 43.7937 23.3334 43.3335 23.3334H41.6668C41.2066 23.3334 40.8335 23.7065 40.8335 24.1667C40.8335 24.6269 41.2066 25 41.6668 25H43.3335C43.7937 25 44.1668 24.6269 44.1668 24.1667Z" fill="#FFC702"/>
<path d="M11.0777 7.25589C11.4047 7.5717 11.9244 7.56718 12.2459 7.24574C12.5673 6.92429 12.5718 6.40454 12.256 6.07755L11.006 4.82755C10.679 4.51174 10.1593 4.51626 9.83783 4.83771C9.51638 5.15915 9.51187 5.67891 9.82768 6.00589L11.0777 7.25589Z" fill="#FFC702"/>
<path d="M7.32768 3.50589C7.65466 3.8217 8.17441 3.81718 8.49586 3.49574C8.8173 3.17429 8.82182 2.65454 8.50601 2.32755L7.25601 1.07755C6.92903 0.761744 6.40927 0.766261 6.08783 1.08771C5.76638 1.40915 5.76187 1.92891 6.07768 2.25589L7.32768 3.50589Z" fill="#FFC702"/>
<path d="M6.66668 7.50005C6.88767 7.5 7.0996 7.41217 7.25584 7.25588L8.50584 6.00588C8.72247 5.79665 8.80935 5.48682 8.73309 5.19546C8.65683 4.9041 8.42929 4.67656 8.13793 4.6003C7.84657 4.52404 7.53674 4.61092 7.32751 4.82755L6.07751 6.07755C5.83925 6.31588 5.76799 6.67424 5.89694 6.98559C6.0259 7.29694 6.32968 7.49998 6.66668 7.50005Z" fill="#FFC702"/>
<path d="M10.4167 3.75005C10.6377 3.75001 10.8496 3.66218 11.0058 3.50589L12.2558 2.25589C12.5717 1.92891 12.5671 1.40915 12.2457 1.08771C11.9242 0.766261 11.4045 0.761744 11.0775 1.07755L9.82751 2.32755C9.58925 2.56588 9.51799 2.92425 9.64694 3.2356C9.7759 3.54695 10.0797 3.74998 10.4167 3.75005Z" fill="#FFC702"/>
</svg>
