<svg width="50" height="50" viewBox="0 0 50 50" fill="none" xmlns="http://www.w3.org/2000/svg">
<path fill-rule="evenodd" clip-rule="evenodd" d="M32.3156 38.2479L35.2614 41.1938C35.6679 41.6003 36.3278 41.6003 36.7343 41.1938L42.626 35.3021C43.0325 34.8956 43.0325 34.2357 42.626 33.8292C42.2195 33.4227 41.5596 33.4227 41.1531 33.8292L35.9979 38.9844L33.7885 36.775C33.382 36.3685 32.7221 36.3685 32.3156 36.775C31.909 37.1815 31.909 37.8414 32.3156 38.2479Z" fill="#007CFA"/>
<path fill-rule="evenodd" clip-rule="evenodd" d="M13.5415 19.9999C13.5415 19.3926 13.2998 18.8093 12.8707 18.3791C12.4405 17.9499 11.8571 17.7083 11.2498 17.7083H9.58317C8.97588 17.7083 8.39254 17.9499 7.96233 18.3791C7.53317 18.8093 7.2915 19.3926 7.2915 19.9999V21.6666C7.2915 22.2739 7.53317 22.8572 7.96233 23.2874C8.39254 23.7166 8.97588 23.9583 9.58317 23.9583H11.2498C11.8571 23.9583 12.4405 23.7166 12.8707 23.2874C13.2998 22.8572 13.5415 22.2739 13.5415 21.6666V19.9999ZM11.4582 19.9999V21.6666C11.4582 21.7218 11.4363 21.7749 11.3967 21.8135C11.3582 21.853 11.305 21.8749 11.2498 21.8749H9.58317C9.52796 21.8749 9.47484 21.853 9.4363 21.8135C9.39672 21.7749 9.37484 21.7218 9.37484 21.6666V19.9999C9.37484 19.9447 9.39672 19.8916 9.4363 19.853C9.47484 19.8135 9.52796 19.7916 9.58317 19.7916H11.2498C11.305 19.7916 11.3582 19.8135 11.3967 19.853C11.4363 19.8916 11.4582 19.9447 11.4582 19.9999Z" fill="#007CFA"/>
<path fill-rule="evenodd" clip-rule="evenodd" d="M13.5415 28.3333C13.5415 27.726 13.2998 27.1427 12.8707 26.7125C12.4405 26.2833 11.8571 26.0416 11.2498 26.0416H9.58317C8.97588 26.0416 8.39254 26.2833 7.96233 26.7125C7.53317 27.1427 7.2915 27.726 7.2915 28.3333V30C7.2915 30.6073 7.53317 31.1906 7.96233 31.6208C8.39254 32.05 8.97588 32.2916 9.58317 32.2916H11.2498C11.8571 32.2916 12.4405 32.05 12.8707 31.6208C13.2998 31.1906 13.5415 30.6073 13.5415 30V28.3333ZM11.4582 28.3333V30C11.4582 30.0552 11.4363 30.1083 11.3967 30.1468C11.3582 30.1864 11.305 30.2083 11.2498 30.2083H9.58317C9.52796 30.2083 9.47484 30.1864 9.4363 30.1468C9.39672 30.1083 9.37484 30.0552 9.37484 30V28.3333C9.37484 28.2781 9.39672 28.225 9.4363 28.1864C9.47484 28.1468 9.52796 28.125 9.58317 28.125H11.2498C11.305 28.125 11.3582 28.1468 11.3967 28.1864C11.4363 28.225 11.4582 28.2781 11.4582 28.3333Z" fill="#007CFA"/>
<path fill-rule="evenodd" clip-rule="evenodd" d="M13.5415 36.6667C13.5415 36.0594 13.2998 35.476 12.8707 35.0458C12.4405 34.6167 11.8571 34.375 11.2498 34.375H9.58317C8.97588 34.375 8.39254 34.6167 7.96233 35.0458C7.53317 35.476 7.2915 36.0594 7.2915 36.6667V38.3333C7.2915 38.9406 7.53317 39.524 7.96233 39.9542C8.39254 40.3833 8.97588 40.625 9.58317 40.625H11.2498C11.8571 40.625 12.4405 40.3833 12.8707 39.9542C13.2998 39.524 13.5415 38.9406 13.5415 38.3333V36.6667ZM11.4582 36.6667V38.3333C11.4582 38.3885 11.4363 38.4417 11.3967 38.4802C11.3582 38.5198 11.305 38.5417 11.2498 38.5417H9.58317C9.52796 38.5417 9.47484 38.5198 9.4363 38.4802C9.39672 38.4417 9.37484 38.3885 9.37484 38.3333V36.6667C9.37484 36.6115 9.39672 36.5583 9.4363 36.5198C9.47484 36.4802 9.52796 36.4583 9.58317 36.4583H11.2498C11.305 36.4583 11.3582 36.4802 11.3967 36.5198C11.4363 36.5583 11.4582 36.6115 11.4582 36.6667Z" fill="#007CFA"/>
<path fill-rule="evenodd" clip-rule="evenodd" d="M21.875 19.9999C21.875 19.3926 21.6333 18.8093 21.2042 18.3791C20.774 17.9499 20.1906 17.7083 19.5833 17.7083H17.9167C17.3094 17.7083 16.726 17.9499 16.2958 18.3791C15.8667 18.8093 15.625 19.3926 15.625 19.9999V21.6666C15.625 22.2739 15.8667 22.8572 16.2958 23.2874C16.726 23.7166 17.3094 23.9583 17.9167 23.9583H19.5833C20.1906 23.9583 20.774 23.7166 21.2042 23.2874C21.6333 22.8572 21.875 22.2739 21.875 21.6666V19.9999ZM19.7917 19.9999V21.6666C19.7917 21.7218 19.7698 21.7749 19.7302 21.8135C19.6917 21.853 19.6385 21.8749 19.5833 21.8749H17.9167C17.8615 21.8749 17.8083 21.853 17.7698 21.8135C17.7302 21.7749 17.7083 21.7218 17.7083 21.6666V19.9999C17.7083 19.9447 17.7302 19.8916 17.7698 19.853C17.8083 19.8135 17.8615 19.7916 17.9167 19.7916H19.5833C19.6385 19.7916 19.6917 19.8135 19.7302 19.853C19.7698 19.8916 19.7917 19.9447 19.7917 19.9999Z" fill="#007CFA"/>
<path fill-rule="evenodd" clip-rule="evenodd" d="M21.875 28.3333C21.875 27.726 21.6333 27.1427 21.2042 26.7125C20.774 26.2833 20.1906 26.0416 19.5833 26.0416H17.9167C17.3094 26.0416 16.726 26.2833 16.2958 26.7125C15.8667 27.1427 15.625 27.726 15.625 28.3333V30C15.625 30.6073 15.8667 31.1906 16.2958 31.6208C16.726 32.05 17.3094 32.2916 17.9167 32.2916H19.5833C20.1906 32.2916 20.774 32.05 21.2042 31.6208C21.6333 31.1906 21.875 30.6073 21.875 30V28.3333ZM19.7917 28.3333V30C19.7917 30.0552 19.7698 30.1083 19.7302 30.1468C19.6917 30.1864 19.6385 30.2083 19.5833 30.2083H17.9167C17.8615 30.2083 17.8083 30.1864 17.7698 30.1468C17.7302 30.1083 17.7083 30.0552 17.7083 30V28.3333C17.7083 28.2781 17.7302 28.225 17.7698 28.1864C17.8083 28.1468 17.8615 28.125 17.9167 28.125H19.5833C19.6385 28.125 19.6917 28.1468 19.7302 28.1864C19.7698 28.225 19.7917 28.2781 19.7917 28.3333Z" fill="#007CFA"/>
<path fill-rule="evenodd" clip-rule="evenodd" d="M21.875 36.6667C21.875 36.0594 21.6333 35.476 21.2042 35.0458C20.774 34.6167 20.1906 34.375 19.5833 34.375H17.9167C17.3094 34.375 16.726 34.6167 16.2958 35.0458C15.8667 35.476 15.625 36.0594 15.625 36.6667V38.3333C15.625 38.9406 15.8667 39.524 16.2958 39.9542C16.726 40.3833 17.3094 40.625 17.9167 40.625H19.5833C20.1906 40.625 20.774 40.3833 21.2042 39.9542C21.6333 39.524 21.875 38.9406 21.875 38.3333V36.6667ZM19.7917 36.6667V38.3333C19.7917 38.3885 19.7698 38.4417 19.7302 38.4802C19.6917 38.5198 19.6385 38.5417 19.5833 38.5417H17.9167C17.8615 38.5417 17.8083 38.5198 17.7698 38.4802C17.7302 38.4417 17.7083 38.3885 17.7083 38.3333V36.6667C17.7083 36.6115 17.7302 36.5583 17.7698 36.5198C17.8083 36.4802 17.8615 36.4583 17.9167 36.4583H19.5833C19.6385 36.4583 19.6917 36.4802 19.7302 36.5198C19.7698 36.5583 19.7917 36.6115 19.7917 36.6667Z" fill="#007CFA"/>
<path fill-rule="evenodd" clip-rule="evenodd" d="M30.208 19.9999C30.208 19.3926 29.9663 18.8093 29.5372 18.3791C29.107 17.9499 28.5236 17.7083 27.9163 17.7083H26.2497C25.6424 17.7083 25.059 17.9499 24.6288 18.3791C24.1997 18.8093 23.958 19.3926 23.958 19.9999V21.6666C23.958 22.2739 24.1997 22.8572 24.6288 23.2874C25.059 23.7166 25.6424 23.9583 26.2497 23.9583H27.9163C28.5236 23.9583 29.107 23.7166 29.5372 23.2874C29.9663 22.8572 30.208 22.2739 30.208 21.6666V19.9999ZM28.1247 19.9999V21.6666C28.1247 21.7218 28.1028 21.7749 28.0632 21.8135C28.0247 21.853 27.9716 21.8749 27.9163 21.8749H26.2497C26.1945 21.8749 26.1413 21.853 26.1028 21.8135C26.0632 21.7749 26.0413 21.7218 26.0413 21.6666V19.9999C26.0413 19.9447 26.0632 19.8916 26.1028 19.853C26.1413 19.8135 26.1945 19.7916 26.2497 19.7916H27.9163C27.9716 19.7916 28.0247 19.8135 28.0632 19.853C28.1028 19.8916 28.1247 19.9447 28.1247 19.9999Z" fill="#007CFA"/>
<path fill-rule="evenodd" clip-rule="evenodd" d="M38.5415 19.9999C38.5415 19.3926 38.2998 18.8093 37.8707 18.3791C37.4405 17.9499 36.8571 17.7083 36.2498 17.7083H34.5832C33.9759 17.7083 33.3925 17.9499 32.9623 18.3791C32.5332 18.8093 32.2915 19.3926 32.2915 19.9999V21.6666C32.2915 22.2739 32.5332 22.8572 32.9623 23.2874C33.3925 23.7166 33.9759 23.9583 34.5832 23.9583H36.2498C36.8571 23.9583 37.4405 23.7166 37.8707 23.2874C38.2998 22.8572 38.5415 22.2739 38.5415 21.6666V19.9999ZM36.4582 19.9999V21.6666C36.4582 21.7218 36.4363 21.7749 36.3967 21.8135C36.3582 21.853 36.305 21.8749 36.2498 21.8749H34.5832C34.528 21.8749 34.4748 21.853 34.4363 21.8135C34.3967 21.7749 34.3748 21.7218 34.3748 21.6666V19.9999C34.3748 19.9447 34.3967 19.8916 34.4363 19.853C34.4748 19.8135 34.528 19.7916 34.5832 19.7916H36.2498C36.305 19.7916 36.3582 19.8135 36.3967 19.853C36.4363 19.8916 36.4582 19.9447 36.4582 19.9999Z" fill="#007CFA"/>
<path fill-rule="evenodd" clip-rule="evenodd" d="M28.6634 44.7916H6.24984C4.86859 44.7916 3.54359 44.2427 2.56651 43.2666C1.59047 42.2896 1.0415 40.9645 1.0415 39.5833V10.4166C1.0415 7.54059 3.3738 5.20829 6.24984 5.20829H9.37484V4.16663C9.37484 2.44058 10.7738 1.04163 12.4998 1.04163C14.2259 1.04163 15.6248 2.44058 15.6248 4.16663V5.20829H30.2082V4.16663C30.2082 2.44058 31.6071 1.04163 33.3332 1.04163C35.0592 1.04163 36.4582 2.44058 36.4582 4.16663V5.20829H39.5832C42.4592 5.20829 44.7915 7.54059 44.7915 10.4166V28.6635C47.3363 30.7666 48.9582 33.9448 48.9582 37.5C48.9582 43.8239 43.8238 48.9583 37.4998 48.9583C33.9446 48.9583 30.7665 47.3364 28.6634 44.7916ZM37.4998 28.125C42.6738 28.125 46.8748 32.326 46.8748 37.5C46.8748 42.6739 42.6738 46.875 37.4998 46.875C32.3259 46.875 28.1248 42.6739 28.1248 37.5C28.1248 32.326 32.3259 28.125 37.4998 28.125ZM42.7082 27.2927V15.625H3.12484V39.5833C3.12484 40.4125 3.454 41.2073 4.04046 41.7927C4.62588 42.3791 5.42067 42.7083 6.24984 42.7083H27.2926C26.4926 41.1458 26.0415 39.375 26.0415 37.5C26.0415 31.176 31.1759 26.0416 37.4998 26.0416C39.3748 26.0416 41.1457 26.4927 42.7082 27.2927ZM36.4582 7.29163V8.33329C36.4582 10.0593 35.0592 11.4583 33.3332 11.4583C31.6071 11.4583 30.2082 10.0593 30.2082 8.33329V7.29163H15.6248V8.33329C15.6248 10.0593 14.2259 11.4583 12.4998 11.4583C10.7738 11.4583 9.37484 10.0593 9.37484 8.33329V7.29163H6.24984C4.5238 7.29163 3.12484 8.69059 3.12484 10.4166V13.5416H42.7082V10.4166C42.7082 8.69059 41.3092 7.29163 39.5832 7.29163H36.4582ZM34.3748 4.16663V8.33329C34.3748 8.90829 33.9082 9.37496 33.3332 9.37496C32.7582 9.37496 32.2915 8.90829 32.2915 8.33329V4.16663C32.2915 3.59163 32.7582 3.12496 33.3332 3.12496C33.9082 3.12496 34.3748 3.59163 34.3748 4.16663ZM13.5415 4.16663V8.33329C13.5415 8.90829 13.0748 9.37496 12.4998 9.37496C11.9248 9.37496 11.4582 8.90829 11.4582 8.33329V4.16663C11.4582 3.59163 11.9248 3.12496 12.4998 3.12496C13.0748 3.12496 13.5415 3.59163 13.5415 4.16663Z" fill="#007CFA"/>
</svg>
