<svg width="36" height="36" viewBox="0 0 36 36" fill="none" xmlns="http://www.w3.org/2000/svg">
<path d="M34.3125 31.5H33.75C33.7444 31.1255 33.6649 30.7559 33.516 30.4122C33.3672 30.0686 33.1519 29.7577 32.8826 29.4975C32.495 29.1047 31.9974 28.8385 31.4555 28.7342C31.2035 28.2144 30.8102 27.776 30.3207 27.4694C29.8312 27.1627 29.2652 27 28.6875 27C28.1098 27 27.5438 27.1627 27.0543 27.4694C26.5648 27.776 26.1715 28.2144 25.9195 28.7342C25.3776 28.8385 24.88 29.1047 24.4924 29.4975C24.2231 29.7577 24.0078 30.0686 23.859 30.4122C23.7101 30.7559 23.6306 31.1255 23.625 31.5H16.875V18.5625C16.875 18.4133 16.8157 18.2702 16.7102 18.1648C16.6048 18.0593 16.4617 18 16.3125 18H8.4375C8.28832 18 8.14524 18.0593 8.03975 18.1648C7.93426 18.2702 7.875 18.4133 7.875 18.5625V31.5H5.625V15.9572L18 5.79062L30.375 15.9572V25.875C30.375 26.0242 30.4343 26.1673 30.5398 26.2727C30.6452 26.3782 30.7883 26.4375 30.9375 26.4375C31.0867 26.4375 31.2298 26.3782 31.3352 26.2727C31.4407 26.1673 31.5 26.0242 31.5 25.875V16.8814L32.0485 17.332C32.163 17.4262 32.31 17.4713 32.4575 17.4576C32.6051 17.4439 32.7413 17.3725 32.8365 17.259L34.7434 14.9865C34.7912 14.9295 34.8272 14.8636 34.8494 14.7926C34.8715 14.7217 34.8794 14.647 34.8725 14.573C34.8656 14.4989 34.8442 14.427 34.8093 14.3613C34.7745 14.2956 34.727 14.2375 34.6696 14.1902L31.5 11.5866V2.25C31.4997 1.95172 31.3811 1.66575 31.1702 1.45483C30.9593 1.24392 30.6733 1.1253 30.375 1.125H25.875C25.5767 1.1253 25.2907 1.24392 25.0798 1.45483C24.8689 1.66575 24.7503 1.95172 24.75 2.25V6.04196L19.3543 1.60977C18.9682 1.30605 18.4912 1.14093 18 1.14093C17.5088 1.14093 17.0318 1.30605 16.6457 1.60977L1.33044 14.1902C1.27301 14.2374 1.2255 14.2955 1.19066 14.3612C1.15583 14.4269 1.13435 14.4989 1.12748 14.5729C1.12061 14.6469 1.12848 14.7216 1.15064 14.7926C1.1728 14.8636 1.2088 14.9294 1.25656 14.9864L3.16351 17.2589C3.25871 17.3725 3.39491 17.4439 3.54248 17.4576C3.69005 17.4713 3.83705 17.4261 3.95151 17.332L4.5 16.8814V31.5H1.6875C1.53832 31.5 1.39524 31.5593 1.28975 31.6648C1.18426 31.7702 1.125 31.9133 1.125 32.0625V34.3125C1.125 34.4617 1.18426 34.6048 1.28975 34.7102C1.39524 34.8157 1.53832 34.875 1.6875 34.875H34.3125C34.4617 34.875 34.6048 34.8157 34.7102 34.7102C34.8157 34.6048 34.875 34.4617 34.875 34.3125V32.0625C34.875 31.9133 34.8157 31.7702 34.7102 31.6648C34.6048 31.5593 34.4617 31.5 34.3125 31.5ZM25.875 2.25H30.375V10.6625L25.875 6.96605V2.25ZM3.6675 16.1095L2.48374 14.6989L17.3598 2.47934C17.5422 2.3355 17.7677 2.25728 18 2.25728C18.2323 2.25728 18.4578 2.3355 18.6402 2.47934L33.5163 14.6989L32.3325 16.1095L18.3571 4.62799C18.2565 4.54524 18.1303 4.5 18 4.5C17.8697 4.5 17.7435 4.54524 17.6429 4.62799L3.6675 16.1095ZM25.282 30.2989C25.5459 30.0148 25.9107 29.8456 26.298 29.8276C26.4162 29.8294 26.5319 29.7939 26.6288 29.7261C26.7257 29.6584 26.7988 29.5619 26.8377 29.4502C26.969 29.0638 27.218 28.7282 27.5497 28.4905C27.8815 28.2528 28.2794 28.125 28.6875 28.125C29.0956 28.125 29.4935 28.2528 29.8253 28.4905C30.157 28.7282 30.406 29.0638 30.5373 29.4502C30.575 29.5626 30.6478 29.66 30.7449 29.7279C30.8421 29.7959 30.9585 29.8308 31.077 29.8276C31.4633 29.8496 31.8267 30.0182 32.093 30.2989C32.2563 30.4543 32.3873 30.6404 32.4786 30.8465C32.5699 31.0526 32.6196 31.2747 32.625 31.5H24.75C24.7554 31.2747 24.8051 31.0526 24.8964 30.8465C24.9877 30.6404 25.1187 30.4543 25.282 30.2989ZM9 19.125H15.75V31.5H9V19.125ZM33.75 33.75H2.25V32.625H33.75V33.75ZM19.6875 18C19.5383 18 19.3952 18.0593 19.2898 18.1648C19.1843 18.2702 19.125 18.4133 19.125 18.5625V25.3125C19.125 25.4617 19.1843 25.6048 19.2898 25.7102C19.3952 25.8157 19.5383 25.875 19.6875 25.875H27.5625C27.7117 25.875 27.8548 25.8157 27.9602 25.7102C28.0657 25.6048 28.125 25.4617 28.125 25.3125V18.5625C28.125 18.4133 28.0657 18.2702 27.9602 18.1648C27.8548 18.0593 27.7117 18 27.5625 18H19.6875ZM27 21.375H24.1875V19.125H27V21.375ZM23.0625 19.125V21.375H20.25V19.125H23.0625ZM20.25 22.5H23.0625V24.75H20.25V22.5ZM24.1875 24.75V22.5H27V24.75H24.1875Z" fill="#007CFA"/>
</svg>
