<svg width="36" height="36" viewBox="0 0 36 36" fill="none" xmlns="http://www.w3.org/2000/svg">
<g clip-path="url(#clip0_107_139)">
<path d="M18.1424 24.6147C18.326 24.6147 18.5021 24.5417 18.6319 24.4119C18.7617 24.2821 18.8347 24.106 18.8347 23.9224V20.6191C18.8347 20.4355 18.7617 20.2594 18.6319 20.1295C18.5021 19.9997 18.326 19.9268 18.1424 19.9268C17.9588 19.9268 17.7827 19.9997 17.6528 20.1295C17.523 20.2594 17.4501 20.4355 17.4501 20.6191V23.9224C17.4501 24.106 17.523 24.2821 17.6528 24.4119C17.7827 24.5417 17.9588 24.6147 18.1424 24.6147Z" fill="#007CFA"/>
<path d="M18.1424 9.89035C18.326 9.89035 18.5021 9.81741 18.6319 9.68758C18.7617 9.55774 18.8347 9.38165 18.8347 9.19804V5.91057C18.8347 5.72696 18.7617 5.55087 18.6319 5.42103C18.5021 5.2912 18.326 5.21826 18.1424 5.21826C17.9588 5.21826 17.7827 5.2912 17.6528 5.42103C17.523 5.55087 17.4501 5.72696 17.4501 5.91057V9.21387C17.4542 9.39472 17.529 9.56677 17.6584 9.6932C17.7877 9.81963 17.9615 9.8904 18.1424 9.89035Z" fill="#007CFA"/>
<path d="M18.1424 17.2602C18.326 17.2602 18.5021 17.1872 18.6319 17.0574C18.7617 16.9276 18.8347 16.7515 18.8347 16.5679V13.2646C18.8347 13.081 18.7617 12.9049 18.6319 12.775C18.5021 12.6452 18.326 12.5723 18.1424 12.5723C17.9588 12.5723 17.7827 12.6452 17.6528 12.775C17.523 12.9049 17.4501 13.081 17.4501 13.2646V16.5679C17.4501 16.7515 17.523 16.9276 17.6528 17.0574C17.7827 17.1872 17.9588 17.2602 18.1424 17.2602Z" fill="#007CFA"/>
<path d="M23.0518 9.89035C23.2313 9.88834 23.403 9.81667 23.5307 9.69046C23.6584 9.56424 23.7321 9.39336 23.7362 9.21387V5.91057C23.7362 5.72696 23.6632 5.55087 23.5334 5.42103C23.4036 5.2912 23.2275 5.21826 23.0439 5.21826C22.8603 5.21826 22.6842 5.2912 22.5543 5.42103C22.4245 5.55087 22.3516 5.72696 22.3516 5.91057V9.21387C22.3557 9.3961 22.4316 9.56934 22.5627 9.69599C22.6938 9.82264 22.8695 9.89248 23.0518 9.89035Z" fill="#007CFA"/>
<path d="M23.0518 17.2602C23.234 17.2581 23.4081 17.1842 23.5362 17.0546C23.6643 16.925 23.7362 16.7501 23.7362 16.5679V13.2646C23.7362 13.081 23.6632 12.9049 23.5334 12.775C23.4036 12.6452 23.2275 12.5723 23.0439 12.5723C22.8603 12.5723 22.6842 12.6452 22.5543 12.775C22.4245 12.9049 22.3516 13.081 22.3516 13.2646V16.5679C22.3516 16.6595 22.3697 16.7501 22.405 16.8346C22.4403 16.9192 22.492 16.9958 22.5571 17.0602C22.6223 17.1246 22.6995 17.1754 22.7844 17.2098C22.8693 17.2441 22.9602 17.2612 23.0518 17.2602Z" fill="#007CFA"/>
<path d="M23.0518 24.6147C23.234 24.6126 23.4081 24.5387 23.5362 24.4091C23.6643 24.2795 23.7362 24.1046 23.7362 23.9224V20.6191C23.7362 20.4355 23.6632 20.2594 23.5334 20.1295C23.4036 19.9997 23.2275 19.9268 23.0439 19.9268C22.8603 19.9268 22.6842 19.9997 22.5543 20.1295C22.4245 20.2594 22.3516 20.4355 22.3516 20.6191V23.9224C22.3516 24.0139 22.3697 24.1046 22.405 24.1891C22.4403 24.2737 22.492 24.3503 22.5571 24.4147C22.6223 24.4791 22.6995 24.5299 22.7844 24.5643C22.8693 24.5986 22.9602 24.6157 23.0518 24.6147Z" fill="#007CFA"/>
<path d="M31.1657 27.2455H31.7512C31.9348 27.2455 32.1109 27.1725 32.2407 27.0427C32.3706 26.9128 32.4435 26.7368 32.4435 26.5531C32.4435 26.3695 32.3706 26.1934 32.2407 26.0636C32.1109 25.9338 31.9348 25.8608 31.7512 25.8608H31.1657C30.9821 25.8608 30.806 25.9338 30.6762 26.0636C30.5463 26.1934 30.4734 26.3695 30.4734 26.5531C30.4734 26.7368 30.5463 26.9128 30.6762 27.0427C30.806 27.1725 30.9821 27.2455 31.1657 27.2455Z" fill="#007CFA"/>
<path d="M31.1657 23.2816H31.7512C31.9348 23.2816 32.1109 23.2086 32.2407 23.0788C32.3706 22.949 32.4435 22.7729 32.4435 22.5893C32.4435 22.4057 32.3706 22.2296 32.2407 22.0997C32.1109 21.9699 31.9348 21.897 31.7512 21.897H31.1657C30.9821 21.897 30.806 21.9699 30.6762 22.0997C30.5463 22.2296 30.4734 22.4057 30.4734 22.5893C30.4734 22.7729 30.5463 22.949 30.6762 23.0788C30.806 23.2086 30.9821 23.2816 31.1657 23.2816Z" fill="#007CFA"/>
<path d="M31.1657 31.1737H31.7512C31.9348 31.1737 32.1109 31.1007 32.2407 30.9709C32.3706 30.8411 32.4435 30.665 32.4435 30.4814C32.4435 30.2978 32.3706 30.1217 32.2407 29.9918C32.1109 29.862 31.9348 29.7891 31.7512 29.7891H31.1657C30.9821 29.7891 30.806 29.862 30.6762 29.9918C30.5463 30.1217 30.4734 30.2978 30.4734 30.4814C30.4734 30.665 30.5463 30.8411 30.6762 30.9709C30.806 31.1007 30.9821 31.1737 31.1657 31.1737Z" fill="#007CFA"/>
<path d="M9.80303 19.3529H10.3846C10.5682 19.3529 10.7443 19.2799 10.8741 19.1501C11.0039 19.0203 11.0769 18.8442 11.0769 18.6606C11.0769 18.477 11.0039 18.3009 10.8741 18.171C10.7443 18.0412 10.5682 17.9683 10.3846 17.9683H9.80303C9.61941 17.9683 9.44332 18.0412 9.31349 18.171C9.18366 18.3009 9.11072 18.477 9.11072 18.6606C9.11072 18.8442 9.18366 19.0203 9.31349 19.1501C9.44332 19.2799 9.61941 19.3529 9.80303 19.3529Z" fill="#007CFA"/>
<path d="M9.80303 15.389H10.3846C10.5682 15.389 10.7443 15.3161 10.8741 15.1862C11.0039 15.0564 11.0769 14.8803 11.0769 14.6967C11.0769 14.5131 11.0039 14.337 10.8741 14.2072C10.7443 14.0773 10.5682 14.0044 10.3846 14.0044H9.80303C9.61941 14.0044 9.44332 14.0773 9.31349 14.2072C9.18366 14.337 9.11072 14.5131 9.11072 14.6967C9.11072 14.8803 9.18366 15.0564 9.31349 15.1862C9.44332 15.3161 9.61941 15.389 9.80303 15.389Z" fill="#007CFA"/>
<path d="M9.80303 23.2816H10.3846C10.5682 23.2816 10.7443 23.2086 10.8741 23.0788C11.0039 22.949 11.0769 22.7729 11.0769 22.5893C11.0769 22.4057 11.0039 22.2296 10.8741 22.0997C10.7443 21.9699 10.5682 21.897 10.3846 21.897H9.80303C9.61941 21.897 9.44332 21.9699 9.31349 22.0997C9.18366 22.2296 9.11072 22.4057 9.11072 22.5893C9.11072 22.7729 9.18366 22.949 9.31349 23.0788C9.44332 23.2086 9.61941 23.2816 9.80303 23.2816Z" fill="#007CFA"/>
<path d="M35.0267 16.2437H28.5547V1.30168C28.5547 1.11807 28.4817 0.94198 28.3519 0.812147C28.2221 0.682314 28.046 0.609375 27.8624 0.609375H13.3318C13.1516 0.614525 12.9806 0.689731 12.855 0.81901C12.7294 0.948289 12.6592 1.12145 12.6593 1.30168V9.94564H6.85576C6.67215 9.94564 6.49606 10.0186 6.36622 10.1484C6.23639 10.2782 6.16345 10.4543 6.16345 10.6379V19.2463C6.16345 19.4299 6.23639 19.606 6.36622 19.7358C6.49606 19.8657 6.67215 19.9386 6.85576 19.9386C7.03937 19.9386 7.21546 19.8657 7.3453 19.7358C7.47513 19.606 7.54807 19.4299 7.54807 19.2463V11.3342H12.6593V34.4968H7.51642C7.33281 34.4968 7.15672 34.5698 7.02688 34.6996C6.89705 34.8295 6.82411 35.0055 6.82411 35.1892C6.82411 35.3728 6.89705 35.5489 7.02688 35.6787C7.15672 35.8085 7.33281 35.8815 7.51642 35.8815H32.661C33.4697 35.8804 34.2451 35.5595 34.8181 34.9888C35.391 34.4181 35.7149 33.644 35.7191 32.8353V16.936C35.7191 16.7524 35.6461 16.5763 35.5163 16.4464C35.3864 16.3166 35.2104 16.2437 35.0267 16.2437ZM18.8347 34.4968V28.9861H22.3595V34.4968H18.8347ZM27.17 34.4968H23.7362V28.2938C23.7362 28.1102 23.6633 27.9341 23.5334 27.8042C23.4036 27.6744 23.2275 27.6015 23.0439 27.6015H18.1424C17.9587 27.6015 17.7827 27.6744 17.6528 27.8042C17.523 27.9341 17.45 28.1102 17.45 28.2938V34.4968H14.0241V1.97817H27.17V34.4968ZM34.3344 32.8353C34.3344 33.2795 34.1583 33.7055 33.8446 34.02C33.5308 34.3344 33.1052 34.5116 32.661 34.5127H28.5586V17.6283H34.3344V32.8353Z" fill="#007CFA"/>
<path d="M8.81797 26.2997C8.81797 23.479 5.12302 21.3507 4.96478 21.2637C4.86147 21.2035 4.74408 21.1719 4.62456 21.1719C4.50504 21.1719 4.38765 21.2035 4.28434 21.2637C4.1261 21.3507 0.431152 23.479 0.431152 26.2997C0.431152 28.8395 1.95027 30.948 3.93225 31.3516V35.2087C3.93225 35.3923 4.00519 35.5684 4.13502 35.6982C4.26486 35.8281 4.44095 35.901 4.62456 35.901C4.80817 35.901 4.98426 35.8281 5.11409 35.6982C5.24393 35.5684 5.31687 35.3923 5.31687 35.2087V31.3713C7.29885 30.9481 8.81797 28.8395 8.81797 26.2997ZM1.81577 26.2997C1.81577 24.8162 3.60786 23.3366 4.62456 22.676C5.64126 23.3366 7.43335 24.8083 7.43335 26.2997C7.43335 28.0443 6.53137 29.512 5.31687 29.9234V28.2935C5.31687 28.1099 5.24393 27.9338 5.11409 27.804C4.98426 27.6742 4.80817 27.6012 4.62456 27.6012C4.44095 27.6012 4.26486 27.6742 4.13502 27.804C4.00519 27.9338 3.93225 28.1099 3.93225 28.2935V29.9234C2.71775 29.512 1.81577 28.0483 1.81577 26.2997Z" fill="#007CFA"/>
</g>
<defs>
<clipPath id="clip0_107_139">
<rect width="36" height="36" fill="white"/>
</clipPath>
</defs>
</svg>
