<svg width="36" height="36" viewBox="0 0 36 36" fill="none" xmlns="http://www.w3.org/2000/svg">
<g clip-path="url(#clip0_107_155)">
<path d="M18 8.12921C17.6802 8.12921 17.4193 7.86894 17.4193 7.54856H16.2581C16.2581 8.30442 16.7451 8.94319 17.4193 9.18361V10.4518H18.5806V9.18361C19.2548 8.94319 19.7419 8.30442 19.7419 7.54856C19.7419 6.58828 18.9603 5.80663 18 5.80663C17.6802 5.80663 17.4193 5.54636 17.4193 5.22598C17.4193 4.9056 17.6802 4.64533 18 4.64533C18.3198 4.64533 18.5806 4.9056 18.5806 5.22598H19.7419C19.7419 4.47012 19.2548 3.83135 18.5806 3.59093V2.32275H17.4193V3.59093C16.7451 3.83135 16.2581 4.47012 16.2581 5.22598C16.2581 6.18626 17.0397 6.96792 18 6.96792C18.3198 6.96792 18.5806 7.22819 18.5806 7.54856C18.5806 7.86894 18.3198 8.12921 18 8.12921Z" fill="#007CFA"/>
<path d="M34.7568 31.4362C35.1645 30.9361 35.4194 30.3067 35.4194 29.6129C35.4194 28.4267 34.6987 27.4145 33.6774 26.9646V18.5035C35.0043 18.2044 36 17.021 36 15.6048C36 15.1855 35.9141 14.7792 35.7434 14.3965L33.6774 9.74792V8.70968C33.6774 7.7494 32.8958 6.96774 31.9355 6.96774H24.3576C24.3749 6.77608 24.3871 6.58329 24.3871 6.3871C24.3871 2.86552 21.5216 0 18 0C14.4784 0 11.6129 2.86552 11.6129 6.3871C11.6129 6.58329 11.6251 6.77608 11.6424 6.96774H4.06452C3.10424 6.96774 2.32258 7.7494 2.32258 8.70968V9.74792L0.256584 14.3965C0.085906 14.7792 0 15.1855 0 15.6048C0 17.021 0.995716 18.2044 2.32258 18.5035V26.9646C1.30135 27.4145 0.580645 28.4267 0.580645 29.6129C0.580645 30.3067 0.835528 30.9361 1.24323 31.4362C0.526777 31.6523 0 32.3106 0 33.0968V36H16.2581V33.6774H19.7419V36H36V33.0968C36 32.3106 35.4732 31.6523 34.7568 31.4362ZM34.2581 29.6129C34.2581 30.5732 33.4764 31.3548 32.5161 31.3548H23.2258C22.2655 31.3548 21.4839 30.5732 21.4839 29.6129C21.4839 28.451 22.6191 27.5279 23.8391 27.9895L24.3355 28.1769L24.5666 27.6992C24.9734 26.8577 25.9839 26.4531 26.8849 26.8914L27.3606 27.1225L27.6354 26.6708C28.0632 25.9683 28.8023 25.5484 29.6129 25.5484C30.7149 25.5484 31.6718 26.3317 31.889 27.4105L31.986 27.8908L32.4756 27.8766C32.5062 27.8755 32.5365 27.8721 32.5161 27.871C33.4764 27.871 34.2581 28.6526 34.2581 29.6129ZM19.8488 32.5161H16.1506C15.9655 31.9976 15.5445 31.5958 15.0143 31.4362C15.4225 30.9361 15.6774 30.3067 15.6774 29.6129C15.6774 28.6682 15.217 27.8355 14.5161 27.3054V20.9032H21.4839V27.3054C20.783 27.8361 20.3226 28.6688 20.3226 29.6129C20.3226 30.3067 20.5775 30.9361 20.9852 31.4362C20.455 31.5958 20.034 31.9976 19.8488 32.5161ZM3.48387 18.5696C4.41069 18.5296 5.23856 18.0675 5.76052 17.3456C6.28673 18.0904 7.15004 18.5806 8.12903 18.5806H8.43552C9.44711 18.5806 10.3598 18.0638 10.8882 17.2203C11.394 18.0332 12.2882 18.5806 13.3149 18.5806C14.2683 18.5806 15.1246 18.1092 15.6491 17.3666C16.1761 18.0987 17.0309 18.5806 18 18.5806C18.9691 18.5806 19.8239 18.0987 20.3515 17.3666C20.8754 18.1092 21.7325 18.5806 22.6851 18.5806C23.7112 18.5806 24.606 18.0332 25.1118 17.2203C25.6402 18.0638 26.5535 18.5806 27.5645 18.5806H27.871C28.85 18.5806 29.7133 18.0904 30.2395 17.3456C30.7614 18.0675 31.5893 18.5296 32.5161 18.5696V25.9652C31.8862 25.0094 30.8102 24.3871 29.6129 24.3871C28.5585 24.3871 27.5852 24.8575 26.9274 25.6652C25.7412 25.3139 24.4662 25.7894 23.7738 26.7655C23.5904 26.7284 23.4075 26.7097 23.2258 26.7097C23.0273 26.7097 22.8329 26.7301 22.6452 26.7684V19.7419H13.3548V26.7684C13.1672 26.7301 12.9727 26.7097 12.7742 26.7097C12.5925 26.7097 12.4096 26.7284 12.2262 26.7655C11.5338 25.7894 10.2594 25.3128 9.07258 25.6652C8.41482 24.8575 7.4415 24.3871 6.3871 24.3871C5.1898 24.3871 4.11385 25.0094 3.48387 25.9652V18.5696ZM10.9713 10.4516L10.4649 15.513L9.99345 16.4565C9.69689 17.0499 9.09923 17.4194 8.43552 17.4194H8.12903C7.16876 17.4194 6.3871 16.6377 6.3871 15.6774H6.37547L7.44207 10.4516H10.9713ZM15.0968 12.0694V15.6054L14.9655 16.1302C14.7764 16.8892 14.0968 17.4194 13.3149 17.4194C12.3764 17.4194 11.6129 16.6564 11.6101 15.7355L12.1383 10.4516H13.0767C13.6301 11.1199 14.3188 11.6699 15.0968 12.0694ZM22.9233 10.4516H23.8617L24.3871 15.7174C24.3871 16.6564 23.6242 17.4194 22.6851 17.4194C21.9026 17.4194 21.2236 16.8892 21.0345 16.1296L20.9032 15.6054V12.0694C21.6812 11.6699 22.3699 11.1199 22.9233 10.4516ZM28.5562 10.4516L29.6118 15.7307C29.584 16.6669 28.814 17.4194 27.871 17.4194H27.5645C26.9002 17.4194 26.3031 17.0499 26.0066 16.4565L25.5263 15.4968L25.0281 10.4516H28.5562ZM16.2581 12.527C16.8126 12.6843 17.3955 12.7742 18 12.7742C18.6045 12.7742 19.1874 12.6843 19.7419 12.527V15.6774C19.7419 16.6377 18.9603 17.4194 18 17.4194C17.0397 17.4194 16.2581 16.6377 16.2581 15.6774V12.527ZM34.8387 15.6048C34.8387 16.6054 34.0247 17.4194 33.0242 17.4194H32.644C31.8096 17.4194 31.0861 16.8537 30.8839 16.0454L29.743 10.4516H32.7194L34.6825 14.868C34.786 15.1019 34.8387 15.35 34.8387 15.6048ZM31.9355 8.12903C32.2553 8.12903 32.5161 8.3893 32.5161 8.70968V9.29032H23.6823C23.8708 8.92232 24.0248 8.53446 24.1399 8.12903H31.9355ZM18 1.16129C20.8811 1.16129 23.2258 3.50542 23.2258 6.3871C23.2258 9.26878 20.8811 11.6129 18 11.6129C15.1189 11.6129 12.7742 9.26878 12.7742 6.3871C12.7742 3.50542 15.1189 1.16129 18 1.16129ZM3.48387 8.70968C3.48387 8.3893 3.74471 8.12903 4.06452 8.12903H11.8601C11.9752 8.53446 12.1292 8.92232 12.3177 9.29032H3.48387V8.70968ZM1.16129 15.6048C1.16129 15.35 1.21402 15.1019 1.31751 14.868L3.28059 10.4516H6.2598L5.2431 15.5368L5.11609 16.0454C4.91394 16.8537 4.18983 17.4194 3.356 17.4194H2.97581C1.97527 17.4194 1.16129 16.6054 1.16129 15.6048ZM3.4334 27.8681L4.01462 27.8908L4.11158 27.4105C4.32819 26.3317 5.28506 25.5484 6.3871 25.5484C7.19711 25.5484 7.93624 25.9683 8.36464 26.6714L8.63937 27.123L9.11426 26.892C10.015 26.4525 11.0257 26.8571 11.4329 27.6997L11.6639 28.1775L12.1604 27.99C13.3821 27.5285 14.5161 28.451 14.5161 29.6129C14.5161 30.5732 13.7345 31.3548 12.7742 31.3548H3.48387C2.5236 31.3548 1.74194 30.5732 1.74194 29.6129C1.74194 28.6526 2.5236 27.871 3.4334 27.8681ZM15.0968 34.8387H1.16129V33.0968C1.16129 32.7764 1.42213 32.5161 1.74194 32.5161H14.5161C14.8359 32.5161 15.0968 32.7764 15.0968 33.0968V34.8387ZM34.8387 34.8387H20.9032V33.0968C20.9032 32.7764 21.1641 32.5161 21.4839 32.5161H34.2581C34.5779 32.5161 34.8387 32.7764 34.8387 33.0968V34.8387Z" fill="#007CFA"/>
</g>
<defs>
<clipPath id="clip0_107_155">
<rect width="36" height="36" fill="white"/>
</clipPath>
</defs>
</svg>
