<svg width="46" height="46" viewBox="0 0 46 46" fill="none" xmlns="http://www.w3.org/2000/svg">
<g clip-path="url(#clip0_84_118)">
<path d="M1.59467 19.1666H2.33067V44.4666C2.33067 45.3134 3.01716 45.9999 3.864 45.9999H29.9307C30.7775 45.9999 31.464 45.3134 31.464 44.4666V31.0116C31.464 30.5882 31.1208 30.2449 30.6973 30.2449C30.2739 30.2449 29.9307 30.5882 29.9307 31.0116V44.4666H27.6268V37.5666C27.6268 35.0261 25.5673 32.9666 23.0268 32.9666C20.4863 32.9666 18.4268 35.0261 18.4268 37.5666V44.4666H3.864V19.1666H14.973C15.3964 19.1666 15.7397 18.8234 15.7397 18.3999C15.7397 17.9765 15.3964 17.6333 14.973 17.6333H3.1119C3.10653 17.6333 3.1027 17.6333 3.09733 17.6333C3.09197 17.6333 3.08813 17.6333 3.08277 17.6333H1.59083L16.8935 6.31728L21.9765 10.0816C22.3169 10.3335 22.7971 10.2618 23.0491 9.92138C23.301 9.58095 23.2293 9.10075 22.8888 8.84881L17.8066 5.08831C17.2634 4.68964 16.5243 4.68964 15.9812 5.08831L0.678501 16.4066C0.151067 16.8022 -0.0644614 17.4906 0.143242 18.1163C0.350946 18.7421 0.93538 19.165 1.59467 19.1666ZM19.9602 37.5666C19.9602 36.471 20.5447 35.4586 21.4935 34.9108C22.4423 34.363 23.6113 34.363 24.5602 34.9108C25.509 35.4586 26.0935 36.471 26.0935 37.5666V44.4666H19.9602V37.5666Z" fill="white"/>
<path d="M6.92682 42.1666H14.5935C15.0169 42.1666 15.3602 41.8233 15.3602 41.3999V33.7332C15.3602 33.3098 15.0169 32.9666 14.5935 32.9666H6.92682C6.5034 32.9666 6.16016 33.3098 6.16016 33.7332V41.3999C6.16016 41.8233 6.5034 42.1666 6.92682 42.1666ZM7.69349 38.3332H9.99349V40.6332H7.69349V38.3332ZM11.5268 40.6332V38.3332H13.8268V40.6332H11.5268ZM13.8268 36.7999H11.5268V34.4999H13.8268V36.7999ZM9.99349 34.4999V36.7999H7.69349V34.4999H9.99349Z" fill="white"/>
<path d="M15.3602 22.2332C15.3602 21.8098 15.0169 21.4666 14.5935 21.4666H6.92682C6.5034 21.4666 6.16016 21.8098 6.16016 22.2332V29.8999C6.16016 30.3233 6.5034 30.6666 6.92682 30.6666H14.5935C15.0169 30.6666 15.3602 30.3233 15.3602 29.8999V22.2332ZM13.8268 25.2999H11.5268V22.9999H13.8268V25.2999ZM9.99349 22.9999V25.2999H7.69349V22.9999H9.99349ZM7.69349 26.8332H9.99349V29.1332H7.69349V26.8332ZM11.5268 29.1332V26.8332H13.8268V29.1332H11.5268Z" fill="white"/>
<path d="M23.7935 41.3999C24.2169 41.3999 24.5602 41.0567 24.5602 40.6333V39.0999C24.5602 38.6765 24.2169 38.3333 23.7935 38.3333C23.3701 38.3333 23.0269 38.6765 23.0269 39.0999V40.6333C23.0269 40.8366 23.1076 41.0316 23.2514 41.1754C23.3952 41.3191 23.5902 41.3999 23.7935 41.3999Z" fill="white"/>
<path d="M24.1048 11.053L23.562 11.5958C23.3603 11.7985 23.2203 12.0542 23.158 12.3333L18.4897 13.5638C18.3579 13.5982 18.2377 13.6673 18.1417 13.7639C17.1887 14.7161 16.9043 16.6098 17.3796 18.83C17.4494 19.1536 17.5329 19.4756 17.6334 19.7953V19.8144C17.6334 19.8206 17.6479 19.8413 17.6525 19.8558C18.9161 23.9136 22.0952 27.0898 26.1541 28.3497C26.1656 28.3497 26.1733 28.362 26.1855 28.3658C26.1978 28.3697 26.2024 28.3658 26.2116 28.3658C26.529 28.4624 26.8487 28.5483 27.1699 28.6173C27.8288 28.7621 28.501 28.8376 29.1755 28.8427C30.2852 28.9231 31.3827 28.569 32.2361 27.8552C32.3327 27.7592 32.4018 27.639 32.4362 27.5072L33.6628 22.8389C33.9419 22.776 34.1977 22.636 34.4011 22.4349L34.9432 21.8921C36.6128 20.2215 36.9961 17.6566 35.8877 15.5709L44.551 7.69342C45.9167 6.45227 46.368 4.4936 45.6832 2.77999C44.9985 1.06638 43.3216 -0.0418551 41.4767 -7.92433e-05C40.2668 0.0244568 39.1209 0.54803 38.3104 1.44662L30.429 10.1123C28.3434 9.00137 25.7768 9.38314 24.1048 11.053ZM31.0132 26.89C30.4582 27.2818 29.2131 27.4888 27.4912 27.12C27.4429 27.1093 27.3815 27.0932 27.3294 27.0809L28.0961 24.2642C28.168 23.9998 28.0934 23.7172 27.9004 23.5228C27.7075 23.3284 27.4255 23.2517 27.1606 23.3216C26.8957 23.3915 26.6883 23.5973 26.6164 23.8617L25.8635 26.6216C24.6333 26.1394 23.4961 25.4473 22.5025 24.5762L25.0746 22.004C25.3652 21.7032 25.361 21.225 25.0653 20.9293C24.7696 20.6336 24.2914 20.6294 23.9906 20.92L21.4184 23.4921C20.5473 22.4985 19.8552 21.3613 19.3729 20.1311L22.1368 19.3782C22.5454 19.267 22.7865 18.8457 22.6753 18.4371C22.5642 18.0285 22.1429 17.7874 21.7343 17.8985L18.9175 18.6652C18.9053 18.6131 18.8892 18.5517 18.8784 18.5034C18.5097 16.7807 18.7174 15.5364 19.1084 14.9814L23.6011 13.7999L32.2 22.3989L31.0132 26.89ZM33.8622 20.8111L33.3209 21.3539L24.6461 12.6798L25.1889 12.1378C26.6859 10.6408 29.113 10.6408 30.61 12.1378L33.8622 15.39C35.3591 16.887 35.3591 19.3141 33.8622 20.8111ZM39.4404 2.47855C40.1571 1.69195 41.2482 1.36304 42.2802 1.6225C43.3122 1.88195 44.118 2.68776 44.3775 3.71976C44.6369 4.75177 44.308 5.84285 43.5214 6.55952L34.9723 14.3312L31.6687 11.0277L39.4404 2.47855Z" fill="white"/>
<path d="M34.5 29.5166C34.5 30.9986 35.7014 32.1999 37.1833 32.1999C38.6653 32.1999 39.8667 30.9986 39.8667 29.5166C39.8667 28.0346 38.6653 26.8333 37.1833 26.8333C35.7014 26.8333 34.5 28.0346 34.5 29.5166ZM38.3333 29.5166C38.3333 30.1517 37.8185 30.6666 37.1833 30.6666C36.5482 30.6666 36.0333 30.1517 36.0333 29.5166C36.0333 28.8815 36.5482 28.3666 37.1833 28.3666C37.8185 28.3666 38.3333 28.8815 38.3333 29.5166Z" fill="white"/>
<path d="M24.15 6.13327C25.632 6.13327 26.8333 4.9319 26.8333 3.44994C26.8333 1.96797 25.632 0.766602 24.15 0.766602C22.668 0.766602 21.4667 1.96797 21.4667 3.44994C21.4667 4.9319 22.668 6.13327 24.15 6.13327ZM24.15 2.29994C24.7851 2.29994 25.3 2.81481 25.3 3.44994C25.3 4.08506 24.7851 4.59994 24.15 4.59994C23.5149 4.59994 23 4.08506 23 3.44994C23 2.81481 23.5149 2.29994 24.15 2.29994Z" fill="white"/>
<path d="M41.4 18.3999C40.9765 18.3999 40.6333 18.7432 40.6333 19.1666V20.6999C40.6333 21.1233 40.9765 21.4666 41.4 21.4666C41.8234 21.4666 42.1666 21.1233 42.1666 20.6999V19.1666C42.1666 18.7432 41.8234 18.3999 41.4 18.3999Z" fill="white"/>
<path d="M40.6333 23.7667V25.3C40.6333 25.7234 40.9765 26.0667 41.4 26.0667C41.8234 26.0667 42.1666 25.7234 42.1666 25.3V23.7667C42.1666 23.3432 41.8234 23 41.4 23C40.9765 23 40.6333 23.3432 40.6333 23.7667Z" fill="white"/>
<path d="M44.4666 21.4666H42.9333C42.5099 21.4666 42.1666 21.8098 42.1666 22.2332C42.1666 22.6566 42.5099 22.9999 42.9333 22.9999H44.4666C44.89 22.9999 45.2333 22.6566 45.2333 22.2332C45.2333 21.8098 44.89 21.4666 44.4666 21.4666Z" fill="white"/>
<path d="M40.6333 22.2332C40.6333 21.8098 40.2901 21.4666 39.8667 21.4666H38.3333C37.9099 21.4666 37.5667 21.8098 37.5667 22.2332C37.5667 22.6566 37.9099 22.9999 38.3333 22.9999H39.8667C40.2901 22.9999 40.6333 22.6566 40.6333 22.2332Z" fill="white"/>
<path d="M10.1913 6.67535C10.4921 6.9659 10.9703 6.96174 11.266 6.66601C11.5617 6.37029 11.5659 5.89211 11.2753 5.59129L10.1253 4.44129C9.82451 4.15074 9.34633 4.1549 9.0506 4.45063C8.75487 4.74636 8.75072 5.22453 9.04126 5.52535L10.1913 6.67535Z" fill="white"/>
<path d="M6.74131 3.2254C7.04214 3.51595 7.52031 3.51179 7.81604 3.21606C8.11177 2.92033 8.11592 2.44216 7.82538 2.14134L6.67538 0.991336C6.37455 0.70079 5.89638 0.704945 5.60065 1.00067C5.30492 1.2964 5.30077 1.77458 5.59131 2.0754L6.74131 3.2254Z" fill="white"/>
<path d="M6.13335 6.8998C6.33666 6.89976 6.53164 6.81896 6.67538 6.67517L7.82538 5.52517C8.02468 5.33268 8.10461 5.04763 8.03445 4.77958C7.96429 4.51153 7.75495 4.3022 7.4869 4.23204C7.21885 4.16187 6.9338 4.2418 6.74131 4.4411L5.59131 5.5911C5.37212 5.81037 5.30656 6.14007 5.42519 6.42651C5.54383 6.71295 5.82331 6.89974 6.13335 6.8998Z" fill="white"/>
<path d="M9.5833 3.45004C9.78661 3.44999 9.98159 3.36919 10.1253 3.2254L11.2753 2.0754C11.5659 1.77458 11.5617 1.2964 11.266 1.00067C10.9703 0.704945 10.4921 0.70079 10.1913 0.991336L9.04126 2.14134C8.82207 2.3606 8.75651 2.6903 8.87514 2.97674C8.99378 3.26318 9.27326 3.44997 9.5833 3.45004Z" fill="white"/>
</g>
<defs>
<clipPath id="clip0_84_118">
<rect width="46" height="46" fill="white"/>
</clipPath>
</defs>
</svg>
