<svg width="70" height="70" viewBox="0 0 70 70" fill="none" xmlns="http://www.w3.org/2000/svg">
<path d="M23.9805 45.5972C23.3767 45.5972 22.8867 46.0872 22.8867 46.6909V47.1656C22.8867 47.7694 23.3767 48.2594 23.9805 48.2594C24.5842 48.2594 25.0742 47.7694 25.0742 47.1656V46.6909C25.0742 46.0872 24.5842 45.5972 23.9805 45.5972Z" fill="#FFC702"/>
<path d="M64.3639 31.1607C63.4769 31.1979 62.6598 31.5796 62.0681 32.2315L59.9331 34.5557V30.021C62.802 29.5037 64.9863 26.9946 64.9863 23.9792V18.9282C64.9863 18.9206 64.9819 18.9151 64.9819 18.9074C64.9797 18.7806 64.9534 18.6559 64.9075 18.5367C64.8955 18.506 64.8802 18.4787 64.8648 18.4503C64.8441 18.4065 64.8288 18.3606 64.8014 18.3201L56.9472 6.58963C56.7438 6.28666 56.4025 6.104 56.0383 6.104H11.1475C10.7833 6.104 10.442 6.28557 10.2386 6.58854L2.37234 18.3201C2.345 18.3617 2.32969 18.4076 2.30781 18.4524C2.29359 18.4809 2.27828 18.5071 2.26625 18.5378C2.22031 18.6581 2.19406 18.7817 2.19187 18.9085C2.19187 18.9162 2.1875 18.9217 2.1875 18.9293V23.9803C2.1875 26.9935 4.36953 29.5015 7.23516 30.021V56.2087H4.71297C3.32063 56.2087 2.1875 57.3374 2.1875 58.7243V61.3788C2.1875 62.7657 3.32063 63.8934 4.71297 63.8934H62.4761C63.863 63.8934 64.9906 62.7657 64.9906 61.3788V58.7243C64.9906 57.3374 63.863 56.2087 62.4761 56.2087H59.9331V54.6862L62.1184 50.4173L64.435 47.8907C64.8878 47.4062 65.1372 46.7543 65.1372 46.0576C65.1372 46.0477 65.1372 46.0379 65.1372 46.0292C65.1186 45.3324 64.8178 44.6773 64.2819 44.1763L62.0025 42.084L66.9353 36.706C67.5019 36.0957 67.8125 35.3017 67.8125 34.4682C67.8125 33.5517 67.4264 32.6657 66.7428 32.0281C66.0877 31.4342 65.2455 31.1235 64.3628 31.1618L64.3639 31.1607ZM62.7988 23.9803C62.7988 26.1623 61.0236 27.9374 58.8416 27.9374C56.9319 27.9374 55.335 26.579 54.9653 24.7776C54.9128 24.5217 54.8855 24.257 54.8855 23.9846C54.8855 23.9835 54.8855 23.9824 54.8855 23.9813V20.0242H62.7998V23.9813L62.7988 23.9803ZM18.4341 27.9374C17.6159 27.9374 16.8547 27.6881 16.2236 27.2615C15.1725 26.5495 14.4812 25.3474 14.4812 23.9857C14.4812 23.9781 14.4769 23.9715 14.4769 23.9649V20.0242H22.3913V23.9781C22.3913 23.9781 22.3902 23.9835 22.3902 23.9857C22.3902 24.5304 22.2797 25.0488 22.0795 25.5213C21.478 26.9399 20.0703 27.9385 18.4352 27.9385L18.4341 27.9374ZM19.332 8.2926H24.745L23.0792 15.7323L22.6078 17.8356H15.0686L17.1467 13.1838L19.332 8.2926ZM34.6806 8.2926H40.1975L42.3237 17.8356H34.6806V8.2926ZM52.6969 23.9803C52.6969 26.1623 50.9217 27.9374 48.7397 27.9374C46.5577 27.9374 44.7825 26.1623 44.7825 23.9803V20.0231H52.6969V23.9803ZM32.4931 23.9803C32.4931 26.1623 30.718 27.9374 28.5359 27.9374C26.3539 27.9374 24.5788 26.1623 24.5788 23.9803V20.0231H32.4931V23.9803ZM34.6828 23.9846C34.6828 23.9846 34.6806 23.9781 34.6806 23.9737V20.0231H42.595V23.966C42.595 23.9726 42.5917 23.9781 42.5917 23.9846C42.5917 25.074 42.1488 26.0628 41.4334 26.7781C40.717 27.4934 39.7283 27.9363 38.6389 27.9363C37.1087 27.9363 35.793 27.0537 35.1356 25.7795C34.8567 25.2381 34.6839 24.6332 34.6839 23.9835L34.6828 23.9846ZM55.4542 8.2926L61.8428 17.8356H54.4994L52.3152 12.9443L50.237 8.2926H55.4542ZM47.8406 8.2926L50.0248 13.1838L52.103 17.8356H44.5648L42.4386 8.2926H47.8395H47.8406ZM32.4931 17.8356H24.85L26.9872 8.2926H32.492L32.4931 17.8356ZM11.7316 8.2926H16.9367L14.8586 12.9443L12.6744 17.8356H5.33203L11.7316 8.2926ZM4.375 23.9803V20.0231H12.2894V23.9803C12.2894 26.1623 10.5142 27.9374 8.33219 27.9374C6.15016 27.9374 4.375 26.1623 4.375 23.9803ZM9.42266 30.0287C9.44125 30.0254 9.45766 30.0167 9.47625 30.0134C9.83609 29.9456 10.1828 29.8438 10.5186 29.7148C10.5623 29.6984 10.6072 29.6842 10.6509 29.6667C10.9802 29.5321 11.2941 29.367 11.5916 29.1788C11.6331 29.1526 11.6758 29.1296 11.7162 29.1023C12.0061 28.9098 12.2762 28.691 12.5289 28.4548C12.5683 28.4187 12.6088 28.3848 12.6459 28.3476C12.8898 28.107 13.1097 27.8434 13.3109 27.5645C13.3339 27.5328 13.3634 27.5087 13.3853 27.477C13.4028 27.5021 13.4247 27.5251 13.4422 27.5492C13.5505 27.7001 13.6642 27.8456 13.7845 27.9856C13.8305 28.0381 13.8775 28.0884 13.9245 28.1398C14.0306 28.2546 14.1411 28.3662 14.2559 28.4723C14.3106 28.5237 14.3653 28.574 14.4222 28.6232C14.5447 28.7293 14.6727 28.8288 14.8028 28.9251C14.8542 28.9634 14.9034 29.0038 14.957 29.0399C15.1386 29.1646 15.3267 29.2817 15.5214 29.3867C15.5684 29.4118 15.6188 29.4326 15.6669 29.4567C15.8178 29.5332 15.9709 29.6054 16.1284 29.6699C16.2094 29.7028 16.2936 29.7312 16.3767 29.7607C16.508 29.8078 16.6403 29.8504 16.7748 29.8887C16.8667 29.9138 16.9575 29.9379 17.0516 29.9598C17.1883 29.9915 17.3272 30.0167 17.4672 30.0385C17.558 30.0528 17.6477 30.0703 17.7395 30.0801C17.9244 30.1009 18.1125 30.1118 18.3017 30.1151C18.3455 30.1151 18.3881 30.1228 18.433 30.1228C18.48 30.1228 18.5259 30.1151 18.573 30.114C18.7578 30.1096 18.9416 30.0998 19.1231 30.0801C19.2194 30.0692 19.3134 30.0517 19.4075 30.0363C19.542 30.0145 19.6755 29.9904 19.8067 29.9609C19.9052 29.9379 20.0025 29.9128 20.0998 29.8854C20.2256 29.8493 20.3492 29.8088 20.4728 29.7662C20.5647 29.7334 20.6566 29.7028 20.7463 29.6656C20.883 29.6098 21.0164 29.5463 21.1477 29.4807C21.2166 29.4468 21.2866 29.4173 21.3533 29.3812C21.5403 29.2795 21.7208 29.1679 21.8958 29.0476C21.9669 28.9984 22.0336 28.9448 22.1025 28.8923C22.213 28.8103 22.3213 28.726 22.4252 28.6363C22.4963 28.5751 22.5641 28.5117 22.6319 28.4482C22.7292 28.3574 22.8233 28.2623 22.9141 28.1649C22.9753 28.0993 23.0366 28.0337 23.0956 27.9659C23.1952 27.8499 23.287 27.7296 23.3778 27.6071C23.4106 27.5623 23.4489 27.5218 23.4806 27.4759C23.5342 27.5535 23.5987 27.6246 23.6567 27.699C23.718 27.7788 23.7792 27.8609 23.8438 27.9374C23.9214 28.0293 24.0034 28.1179 24.0866 28.2043C24.1544 28.2754 24.2244 28.3454 24.2955 28.4143C24.383 28.4974 24.4716 28.5795 24.5634 28.6582C24.64 28.7228 24.7188 28.7829 24.7975 28.8442C24.8927 28.9174 24.9856 28.9918 25.0852 29.0596C25.1803 29.1242 25.2809 29.1821 25.3805 29.2412C25.5467 29.3418 25.7184 29.4337 25.8945 29.5179C25.9962 29.566 26.0969 29.6163 26.2019 29.659C26.3058 29.7017 26.4119 29.7378 26.5191 29.7749C26.6273 29.8121 26.7367 29.8482 26.8472 29.8799C26.9533 29.9106 27.0605 29.9379 27.1688 29.9631C27.2902 29.9904 27.4137 30.0123 27.5384 30.0331C27.6402 30.0495 27.7419 30.0681 27.8447 30.0801C28.0186 30.0998 28.1947 30.1085 28.3719 30.1129C28.4244 30.114 28.4747 30.1228 28.5283 30.1228C28.5677 30.1228 28.6048 30.1162 28.6442 30.1151C28.8411 30.1118 29.0358 30.1009 29.2272 30.079C29.3147 30.0692 29.4 30.0528 29.4864 30.0396C29.6319 30.0167 29.7763 29.9904 29.9184 29.9576C30.0081 29.9368 30.0967 29.9138 30.1853 29.8887C30.3231 29.8504 30.4577 29.8067 30.5911 29.7585C30.6731 29.729 30.7563 29.7017 30.8372 29.6688C30.9892 29.6076 31.1369 29.5376 31.2823 29.4643C31.3381 29.4359 31.3961 29.4129 31.4508 29.3834C31.6411 29.2806 31.8237 29.1668 32.0009 29.0454C32.072 28.9973 32.1377 28.9437 32.2066 28.8923C32.3159 28.8103 32.4231 28.7282 32.5259 28.6396C32.6014 28.5751 32.6725 28.5084 32.7447 28.4406C32.8344 28.3563 32.9208 28.2688 33.0061 28.1792C33.0761 28.1048 33.145 28.0304 33.2117 27.9528C33.2927 27.8576 33.3681 27.7581 33.4436 27.6574C33.4906 27.5951 33.5431 27.5382 33.5869 27.4748C33.6164 27.5185 33.6536 27.5568 33.6842 27.5984C33.7772 27.7253 33.8723 27.8488 33.9752 27.9681C34.0309 28.0337 34.09 28.096 34.1491 28.1584C34.2431 28.2601 34.3405 28.3574 34.4422 28.4526C34.5078 28.5138 34.5723 28.574 34.6402 28.632C34.7484 28.7249 34.8611 28.8124 34.9759 28.8978C35.0416 28.9459 35.1039 28.9973 35.1706 29.0432C35.3467 29.1646 35.5294 29.2773 35.7186 29.3801C35.7798 29.414 35.8455 29.4403 35.9089 29.472C36.0456 29.5398 36.1834 29.6065 36.3256 29.6645C36.4131 29.7006 36.5039 29.7312 36.5936 29.7629C36.7183 29.8067 36.8441 29.8482 36.972 29.8843C37.0683 29.9117 37.1634 29.9368 37.2619 29.9587C37.3942 29.9893 37.5288 30.0134 37.6644 30.0353C37.7584 30.0506 37.8514 30.0681 37.9466 30.0779C38.1281 30.0987 38.313 30.1085 38.5 30.1129C38.5459 30.1129 38.5908 30.1217 38.6378 30.1217C38.6827 30.1217 38.7264 30.114 38.7713 30.1129C38.9594 30.1085 39.1464 30.0987 39.3302 30.0779C39.4231 30.067 39.5139 30.0506 39.6058 30.0353C39.7447 30.0134 39.8825 29.9882 40.0181 29.9576C40.1122 29.9357 40.2063 29.9117 40.2981 29.8854C40.4305 29.8482 40.5606 29.8056 40.6897 29.7596C40.775 29.729 40.8603 29.7006 40.9434 29.6667C41.0966 29.6043 41.2453 29.5343 41.3919 29.4599C41.4444 29.4337 41.4991 29.4107 41.5505 29.3834C41.7441 29.2784 41.93 29.1635 42.1094 29.0388C42.1662 28.9995 42.2198 28.9557 42.2756 28.9142C42.4014 28.8212 42.525 28.7249 42.6431 28.6232C42.7033 28.5718 42.7602 28.5182 42.8181 28.4635C42.9286 28.3607 43.0358 28.2524 43.1386 28.142C43.1889 28.0873 43.2392 28.0337 43.2884 27.9779C43.4044 27.8434 43.5127 27.7045 43.6166 27.5601C43.6384 27.5306 43.6636 27.5032 43.6844 27.4726C43.7369 27.5492 43.8003 27.617 43.8561 27.6913C43.9206 27.7756 43.9841 27.8598 44.0519 27.9407C44.1252 28.0271 44.2028 28.1103 44.2805 28.1923C44.3559 28.2721 44.4336 28.3498 44.5134 28.4263C44.5922 28.5018 44.672 28.5751 44.7552 28.6462C44.8481 28.726 44.9455 28.7993 45.0428 28.8737C45.1205 28.9328 45.197 28.994 45.2769 29.0487C45.4508 29.1679 45.6302 29.2784 45.815 29.379C45.8795 29.414 45.9473 29.4424 46.013 29.4742C46.1486 29.542 46.2864 29.6076 46.4275 29.6645C46.5128 29.6995 46.6003 29.729 46.6867 29.7596C46.8158 29.8056 46.9459 29.8482 47.0794 29.8854C47.1702 29.9106 47.262 29.9346 47.355 29.9565C47.4939 29.9882 47.635 30.0134 47.7772 30.0363C47.8658 30.0506 47.9533 30.067 48.043 30.0768C48.2322 30.0987 48.4247 30.1085 48.6194 30.1129C48.6598 30.1129 48.6992 30.1206 48.7397 30.1206C48.7911 30.1206 48.8403 30.1118 48.8906 30.1107C49.07 30.1063 49.2494 30.0976 49.4244 30.0768C49.5261 30.0659 49.6245 30.0473 49.7252 30.0309C49.852 30.0101 49.9789 29.9882 50.1036 29.9598C50.2097 29.9357 50.3136 29.9084 50.4175 29.8788C50.5334 29.846 50.6461 29.8088 50.7588 29.7695C50.8605 29.7334 50.9633 29.6995 51.0628 29.6579C51.1777 29.6109 51.2881 29.5573 51.3986 29.5037C51.5331 29.4381 51.6655 29.3703 51.7945 29.2959C51.928 29.2182 52.0614 29.1406 52.1894 29.0531C52.2802 28.9907 52.3655 28.9229 52.453 28.8562C52.5416 28.7884 52.6291 28.7217 52.7144 28.6495C52.7997 28.5762 52.8817 28.5007 52.9637 28.4231C53.0436 28.3476 53.1202 28.2699 53.1945 28.1912C53.2711 28.1103 53.3466 28.0293 53.4188 27.9451C53.4942 27.8554 53.5653 27.7624 53.6353 27.6695C53.6856 27.6038 53.7414 27.5426 53.7884 27.4748C53.8038 27.4967 53.8245 27.5142 53.8409 27.536C54.0488 27.827 54.2784 28.1004 54.5322 28.3509C54.5639 28.3826 54.5989 28.411 54.6317 28.4417C54.8877 28.6823 55.1611 28.9043 55.4553 29.099C55.4958 29.1263 55.5384 29.1493 55.58 29.1745C55.8764 29.3604 56.187 29.5256 56.5152 29.659C56.5622 29.6787 56.6103 29.6929 56.6584 29.7115C56.9887 29.8373 57.3322 29.939 57.6877 30.0068C57.7073 30.0101 57.7237 30.0188 57.7434 30.0232V36.9303L57.1287 37.5996L54.8417 35.5051C54.32 35.026 53.6484 34.781 52.9452 34.8149C52.2473 34.8478 51.6053 35.1529 51.1448 35.6637L48.8206 38.1881L37.6786 45.1443C37.3888 45.3259 37.1995 45.631 37.1689 45.9723C37.1372 46.3124 37.2673 46.6482 37.5189 46.879L47.6645 56.2032H27.8731V37.6029C27.8731 36.157 26.6963 34.9801 25.2503 34.9801H15.9152C14.4692 34.9801 13.2934 36.157 13.2934 37.6029V56.2032H9.42375V30.0287H9.42266ZM57.8714 53.9096C57.8714 53.9096 57.8659 53.9162 57.8638 53.9195L56.6617 56.2721L54.8406 59.8312L51.8284 57.0618L54.1144 54.0277C54.4775 53.5454 54.3812 52.8596 53.8989 52.4965C53.4166 52.1323 52.7297 52.2296 52.3677 52.712L50.2108 55.5743L48.2562 53.7773L50.5411 51.2901C50.9502 50.8449 50.9206 50.1537 50.4755 49.7446C50.0314 49.3356 49.338 49.3662 48.93 49.8102L46.6462 52.2963L44.6928 50.5004L49.2789 46.389C49.7284 45.9854 49.7667 45.2942 49.3631 44.8446C48.9595 44.3962 48.2694 44.3568 47.8188 44.7604L43.0752 49.0129L40.0619 46.2424L49.4003 40.4128L59.8587 50.029L57.8714 53.9096ZM15.4798 56.2076V37.6073C15.4798 37.3678 15.6745 37.172 15.9141 37.172H25.2492C25.4887 37.172 25.6845 37.3678 25.6845 37.6073V56.2076H15.4798ZM4.71297 61.7048C4.52703 61.7048 4.375 61.5582 4.375 61.3777V58.7232C4.375 58.5417 4.52703 58.3951 4.71297 58.3951H14.3806C14.3806 58.3951 14.3839 58.3951 14.3861 58.3951H26.7794C26.7794 58.3951 26.7827 58.3951 26.7848 58.3951H50.0423L53.6484 61.7048H4.71297ZM62.8031 58.7232V61.3777C62.8031 61.5582 62.6566 61.7048 62.4761 61.7048H56.3402L58.0344 58.3951H62.4761C62.6566 58.3951 62.8031 58.5417 62.8031 58.7232ZM62.9497 46.0729C62.9464 46.2096 62.9081 46.3201 62.8305 46.4043L61.1461 48.2407L51.0748 38.9788L52.7647 37.1424C52.8598 37.0363 52.9725 37.009 53.0513 37.0057C53.1158 37.0079 53.247 37.0134 53.3662 37.1238L57.8977 41.2834L58.0978 41.4682C58.0978 41.4682 58.0989 41.4704 58.1 41.4704L58.8973 42.201L62.7955 45.7787C62.8906 45.8684 62.9442 45.969 62.9508 46.074L62.9497 46.0729ZM65.3275 35.2218L60.3914 40.6031L60.0611 40.3012L59.6597 39.9326C59.6345 39.9031 59.6072 39.8746 59.5777 39.8484L58.7431 39.0828L59.0045 38.7984L63.6825 33.7081C63.8827 33.4871 64.1572 33.3592 64.4547 33.346C64.7489 33.3417 65.0464 33.4401 65.2619 33.6359C65.4959 33.8546 65.625 34.1499 65.625 34.4671C65.625 34.6651 65.5747 34.956 65.3275 35.2218Z" fill="#FFC702"/>
<path d="M55.4203 49.8643C55.1578 49.7549 54.8515 49.7549 54.589 49.8643C54.4468 49.9189 54.3375 49.9955 54.2281 50.1049C54.1296 50.2033 54.0531 50.3236 53.9984 50.4549C53.9437 50.5861 53.9109 50.7283 53.9109 50.8705C53.9109 51.0236 53.9437 51.1549 53.9984 51.2971C54.0531 51.4283 54.1296 51.5486 54.2281 51.6471C54.3375 51.7455 54.4468 51.833 54.589 51.8877C54.7203 51.9424 54.8625 51.9643 55.0046 51.9643C55.1468 51.9643 55.289 51.9424 55.4203 51.8877C55.5515 51.833 55.6718 51.7455 55.7812 51.6471C55.8796 51.5486 55.9562 51.4283 56.0109 51.2971C56.0656 51.1549 56.0984 51.0127 56.0984 50.8705C56.0984 50.5861 55.9781 50.3018 55.7812 50.1049C55.6718 49.9955 55.5515 49.9189 55.4203 49.8643Z" fill="#FFC702"/>
<path d="M33.7794 50.2197H35.9823C36.586 50.2197 37.076 49.7297 37.076 49.126C37.076 48.5222 36.586 48.0322 35.9823 48.0322H33.7794C33.2555 48.0322 32.8279 47.6056 32.8279 47.0806V38.1239C32.8279 37.6 33.2544 37.1724 33.7794 37.1724H45.8063C46.4101 37.1724 46.9001 36.6824 46.9001 36.0786C46.9001 35.4749 46.4101 34.9849 45.8063 34.9849H33.7794C32.048 34.9849 30.6404 36.3925 30.6404 38.1239V47.0806C30.6404 48.812 32.048 50.2197 33.7794 50.2197Z" fill="#FFC702"/>
</svg>
