<svg width="110" height="110" viewBox="0 0 110 110" fill="none" xmlns="http://www.w3.org/2000/svg">
<path d="M82.8054 26.1757C82.3692 26.095 81.9119 26.3714 81.5937 26.6283C80.219 28.4495 67.7511 43.6491 49.5395 29.902C48.9853 29.4836 48.1516 29.6001 47.7332 30.1543C47.3148 30.7086 47.4312 31.5423 47.9855 31.9607C66.1971 45.7078 54.9961 61.8637 53.6811 63.6057C53.5018 63.8432 53.4017 64.1405 53.4405 64.4184C53.4001 64.6366 53.4987 64.8353 53.5181 64.9742C53.7153 65.3717 54.1112 65.6705 54.5475 65.7512C54.9837 65.832 55.5201 65.6154 55.819 65.2195C55.819 65.2195 55.819 65.2195 55.8788 65.1403C57.2535 63.3191 69.6616 48.1987 87.8731 61.9458C88.4274 62.3642 89.2611 62.2477 89.6795 61.6935C90.0979 61.1392 89.9814 60.3055 89.4272 59.8871C71.2948 46.1998 82.3569 30.0633 83.7316 28.2421C84.0304 27.8462 84.0319 27.3502 83.8945 26.8736C83.6974 26.4761 83.3014 26.1773 82.8054 26.1757ZM80.8307 55.1382C71.5752 51.7563 64.0851 54.9275 59.3127 58.2858C61.2346 52.7758 62.2319 44.7034 56.443 36.729C65.6985 40.1109 73.1886 36.9397 77.961 33.5814C76.0391 39.0914 75.0418 47.1638 80.8307 55.1382Z" fill="#D8DDE1"/>
<path d="M37.7127 43.0998C38.1311 42.5455 38.0146 41.7118 37.3812 41.2336C36.8269 40.8153 35.9932 40.9317 35.5748 41.486C34.8576 42.4361 28.0857 50.7486 18.1089 43.2176C17.5547 42.7992 16.721 42.9156 16.3026 43.4699C15.8842 44.0242 16.0007 44.8579 16.5549 45.2763C26.5317 52.8073 20.3933 61.5979 19.676 62.548C19.6162 62.6272 19.6162 62.6272 19.6162 62.6272C19.277 63.2412 19.3741 63.936 19.9284 64.3544C20.4826 64.7728 21.3163 64.6563 21.7347 64.102C22.5117 63.0727 29.2238 54.8395 39.2006 62.3705C39.7549 62.7889 40.5886 62.6724 41.0069 62.1181C41.4447 61.7028 41.3283 60.8691 40.774 60.4507C30.7973 52.9197 36.9357 44.1291 37.6529 43.1789L37.7127 43.0998ZM34.2168 57.1169C30.2516 56.1125 26.8555 57.1536 24.2916 58.5742C25.0747 55.5607 24.8674 52.0481 22.9732 48.6295C26.9384 49.6339 30.3345 48.5928 32.8984 47.1722C32.1153 50.1857 32.3226 53.6983 34.2168 57.1169Z" fill="#D8DDE1"/>
<path d="M64.4117 77.548C63.6945 78.4982 56.9226 86.8106 46.9459 79.2796C46.3916 78.8612 45.5579 78.9776 45.1395 79.5319C44.7211 80.0862 44.8376 80.9199 45.3918 81.3383C55.3686 88.8693 49.2302 97.6599 48.5129 98.61C48.4532 98.6892 48.4532 98.6892 48.4532 98.6892C48.1139 99.3033 48.211 99.998 48.7653 100.416C49.3195 100.835 50.1532 100.718 50.5716 100.164C51.3486 99.1347 58.0607 90.9015 68.0375 98.4325C68.5918 98.8509 69.4255 98.7344 69.8439 98.1801C70.3608 97.8246 70.2444 96.9909 69.6109 96.5127C59.6342 88.9817 65.7726 80.1911 66.4898 79.241L66.5496 79.1618C66.968 78.6075 66.8515 77.7738 66.2181 77.2957C65.6638 76.8773 64.8301 76.9937 64.4117 77.548ZM63.1329 93.2386C59.108 92.3135 55.7716 93.2753 53.2077 94.696C53.9908 91.6825 53.7834 88.1699 51.8893 84.7513C55.8544 85.7557 59.2506 84.7146 61.8145 83.294C61.0314 86.3074 61.2387 89.82 63.1329 93.2386Z" fill="#D8DDE1"/>
</svg>
