<svg width="70" height="70" viewBox="0 0 70 70" fill="none" xmlns="http://www.w3.org/2000/svg">
<path d="M29.0991 29.5398H31.7661V32.1998C31.7661 32.4318 31.8583 32.6544 32.0224 32.8185C32.1865 32.9826 32.4091 33.0748 32.6411 33.0748H37.3591C37.5912 33.0748 37.8137 32.9826 37.9778 32.8185C38.1419 32.6544 38.2341 32.4318 38.2341 32.1998V29.5398H40.9011C41.1272 29.54 41.3447 29.4526 41.5078 29.296C41.6709 29.1394 41.7671 28.9257 41.7761 28.6998V23.9468C41.7688 23.7196 41.6735 23.5042 41.5101 23.3461C41.3468 23.188 41.1284 23.0997 40.9011 23.0998H38.2341V20.4048C38.2341 20.1727 38.1419 19.9502 37.9778 19.7861C37.8137 19.622 37.5912 19.5298 37.3591 19.5298H32.6411C32.4091 19.5298 32.1865 19.622 32.0224 19.7861C31.8583 19.9502 31.7661 20.1727 31.7661 20.4048V23.0998H29.0991C28.8671 23.0998 28.6445 23.192 28.4804 23.3561C28.3163 23.5202 28.2241 23.7427 28.2241 23.9748V28.6998C28.2332 28.9257 28.3293 29.1394 28.4925 29.296C28.6556 29.4526 28.873 29.54 29.0991 29.5398ZM29.9741 24.8218H32.6411C32.8732 24.8218 33.0957 24.7296 33.2598 24.5655C33.4239 24.4014 33.5161 24.1788 33.5161 23.9468V21.2798H36.4841V23.9468C36.4841 24.1788 36.5763 24.4014 36.7404 24.5655C36.9045 24.7296 37.1271 24.8218 37.3591 24.8218H40.0261V27.7898H37.3591C37.2412 27.7897 37.1245 27.8134 37.016 27.8596C36.9075 27.9057 36.8094 27.9733 36.7277 28.0583C36.646 28.1433 36.5823 28.2439 36.5404 28.3542C36.4985 28.4644 36.4794 28.582 36.4841 28.6998V31.3668H33.5161V28.6998C33.5161 28.4677 33.4239 28.2452 33.2598 28.0811C33.0957 27.917 32.8732 27.8248 32.6411 27.8248H29.9741V24.8218Z" fill="#007CFA"/>
<path d="M4.375 27.1808H6.125V61.3059C6.125 61.5379 6.21719 61.7605 6.38128 61.9246C6.54538 62.0887 6.76794 62.1809 7 62.1809H63C63.2321 62.1809 63.4546 62.0887 63.6187 61.9246C63.7828 61.7605 63.875 61.5379 63.875 61.3059V27.1808H65.625C65.8571 27.1808 66.0796 27.0887 66.2437 26.9246C66.4078 26.7605 66.5 26.5379 66.5 26.3058V21.0558C66.5 20.8238 66.4078 20.6012 66.2437 20.4371C66.0796 20.273 65.8571 20.1808 65.625 20.1808H56.875V8.69385C56.875 8.46178 56.7828 8.23922 56.6187 8.07513C56.4546 7.91103 56.2321 7.81885 56 7.81885H14C13.7679 7.81885 13.5454 7.91103 13.3813 8.07513C13.2172 8.23922 13.125 8.46178 13.125 8.69385V20.1808H4.375C4.14294 20.1808 3.92038 20.273 3.75628 20.4371C3.59219 20.6012 3.5 20.8238 3.5 21.0558V26.3058C3.5 26.5379 3.59219 26.7605 3.75628 26.9246C3.92038 27.0887 4.14294 27.1808 4.375 27.1808ZM25.76 60.4309V44.6809H34.16V60.4309H25.76ZM35.875 60.4309V44.6809H44.275V60.4309H35.875ZM62.125 60.4309H46.025V43.8059C46.025 43.5738 45.9328 43.3512 45.7687 43.1871C45.6046 43.023 45.3821 42.9309 45.15 42.9309H24.885C24.6529 42.9309 24.4304 43.023 24.2663 43.1871C24.1022 43.3512 24.01 43.5738 24.01 43.8059V60.4309H7.91V27.1808H22.722C22.9082 29.5724 23.7836 31.8587 25.2421 33.7632C26.7005 35.6677 28.6797 37.1087 30.94 37.9118C33.5666 38.8429 36.4334 38.8429 39.06 37.9118C41.3203 37.1087 43.2995 35.6677 44.7579 33.7632C46.2164 31.8587 47.0918 29.5724 47.278 27.1808H62.125V60.4309ZM24.5 24.9828C24.6551 23.7601 25.0272 22.5748 25.599 21.4828C26.4872 19.7629 27.8315 18.3205 29.4847 17.3136C31.1379 16.3067 33.0363 15.7741 34.972 15.7741C36.9077 15.7741 38.8061 16.3067 40.4593 17.3136C42.1125 18.3205 43.4568 19.7629 44.345 21.4828C45.1284 22.9769 45.5345 24.6399 45.528 26.3268C45.528 29.1265 44.4159 31.8114 42.4362 33.7911C40.4566 35.7707 37.7716 36.8828 34.972 36.8828C32.1724 36.8828 29.4874 35.7707 27.5078 33.7911C25.5281 31.8114 24.416 29.1265 24.416 26.3268C24.4147 25.8775 24.4428 25.4285 24.5 24.9828ZM64.722 25.4308H47.222C47.1258 24.2339 46.8643 23.0561 46.445 21.9308H64.75L64.722 25.4308ZM14.875 9.56885H55.125V20.1808H45.661C44.5858 18.303 43.0336 16.7425 41.1615 15.6572C39.2894 14.5719 37.1639 14.0003 35 14.0003C32.8361 14.0003 30.7106 14.5719 28.8385 15.6572C26.9664 16.7425 25.4143 18.303 24.339 20.1808H14.875V9.56885ZM5.25 21.9308H23.499C23.0797 23.0561 22.8182 24.2339 22.722 25.4308H5.25V21.9308Z" fill="#007CFA"/>
<path d="M49 34.1807H52.556C52.7881 34.1807 53.0106 34.0885 53.1747 33.9244C53.3388 33.7603 53.431 33.5377 53.431 33.3057C53.431 33.0736 53.3388 32.851 53.1747 32.6869C53.0106 32.5229 52.7881 32.4307 52.556 32.4307H49C48.7679 32.4307 48.5454 32.5229 48.3813 32.6869C48.2172 32.851 48.125 33.0736 48.125 33.3057C48.125 33.5377 48.2172 33.7603 48.3813 33.9244C48.5454 34.0885 48.7679 34.1807 49 34.1807Z" fill="#007CFA"/>
<path d="M55.9441 34.1807H59.5001C59.7322 34.1807 59.9547 34.0885 60.1188 33.9244C60.2829 33.7603 60.3751 33.5377 60.3751 33.3057C60.3751 33.0736 60.2829 32.851 60.1188 32.6869C59.9547 32.5229 59.7322 32.4307 59.5001 32.4307H55.9441C55.712 32.4307 55.4895 32.5229 55.3254 32.6869C55.1613 32.851 55.0691 33.0736 55.0691 33.3057C55.0691 33.5377 55.1613 33.7603 55.3254 33.9244C55.4895 34.0885 55.712 34.1807 55.9441 34.1807Z" fill="#007CFA"/>
<path d="M49 39.4307H52.556C52.7881 39.4307 53.0106 39.3385 53.1747 39.1744C53.3388 39.0103 53.431 38.7877 53.431 38.5557C53.431 38.3236 53.3388 38.101 53.1747 37.9369C53.0106 37.7729 52.7881 37.6807 52.556 37.6807H49C48.7679 37.6807 48.5454 37.7729 48.3813 37.9369C48.2172 38.101 48.125 38.3236 48.125 38.5557C48.125 38.7877 48.2172 39.0103 48.3813 39.1744C48.5454 39.3385 48.7679 39.4307 49 39.4307Z" fill="#007CFA"/>
<path d="M55.9441 39.4307H59.5001C59.7322 39.4307 59.9547 39.3385 60.1188 39.1744C60.2829 39.0103 60.3751 38.7877 60.3751 38.5557C60.3751 38.3236 60.2829 38.101 60.1188 37.9369C59.9547 37.7729 59.7322 37.6807 59.5001 37.6807H55.9441C55.712 37.6807 55.4895 37.7729 55.3254 37.9369C55.1613 38.101 55.0691 38.3236 55.0691 38.5557C55.0691 38.7877 55.1613 39.0103 55.3254 39.1744C55.4895 39.3385 55.712 39.4307 55.9441 39.4307Z" fill="#007CFA"/>
<path d="M49 44.6807H52.556C52.7881 44.6807 53.0106 44.5885 53.1747 44.4244C53.3388 44.2603 53.431 44.0377 53.431 43.8057C53.431 43.5736 53.3388 43.351 53.1747 43.1869C53.0106 43.0229 52.7881 42.9307 52.556 42.9307H49C48.7679 42.9307 48.5454 43.0229 48.3813 43.1869C48.2172 43.351 48.125 43.5736 48.125 43.8057C48.125 44.0377 48.2172 44.2603 48.3813 44.4244C48.5454 44.5885 48.7679 44.6807 49 44.6807Z" fill="#007CFA"/>
<path d="M55.9441 44.6807H59.5001C59.7322 44.6807 59.9547 44.5885 60.1188 44.4244C60.2829 44.2603 60.3751 44.0377 60.3751 43.8057C60.3751 43.5736 60.2829 43.351 60.1188 43.1869C59.9547 43.0229 59.7322 42.9307 59.5001 42.9307H55.9441C55.712 42.9307 55.4895 43.0229 55.3254 43.1869C55.1613 43.351 55.0691 43.5736 55.0691 43.8057C55.0691 44.0377 55.1613 44.2603 55.3254 44.4244C55.4895 44.5885 55.712 44.6807 55.9441 44.6807Z" fill="#007CFA"/>
<path d="M49 49.9307H52.556C52.7881 49.9307 53.0106 49.8385 53.1747 49.6744C53.3388 49.5103 53.431 49.2877 53.431 49.0557C53.431 48.8236 53.3388 48.601 53.1747 48.4369C53.0106 48.2728 52.7881 48.1807 52.556 48.1807H49C48.7679 48.1807 48.5454 48.2728 48.3813 48.4369C48.2172 48.601 48.125 48.8236 48.125 49.0557C48.125 49.2877 48.2172 49.5103 48.3813 49.6744C48.5454 49.8385 48.7679 49.9307 49 49.9307Z" fill="#007CFA"/>
<path d="M55.9441 49.9307H59.5001C59.7322 49.9307 59.9547 49.8385 60.1188 49.6744C60.2829 49.5103 60.3751 49.2877 60.3751 49.0557C60.3751 48.8236 60.2829 48.601 60.1188 48.4369C59.9547 48.2728 59.7322 48.1807 59.5001 48.1807H55.9441C55.712 48.1807 55.4895 48.2728 55.3254 48.4369C55.1613 48.601 55.0691 48.8236 55.0691 49.0557C55.0691 49.2877 55.1613 49.5103 55.3254 49.6744C55.4895 49.8385 55.712 49.9307 55.9441 49.9307Z" fill="#007CFA"/>
<path d="M49 55.1807H52.556C52.7881 55.1807 53.0106 55.0885 53.1747 54.9244C53.3388 54.7603 53.431 54.5377 53.431 54.3057C53.431 54.0736 53.3388 53.851 53.1747 53.6869C53.0106 53.5228 52.7881 53.4307 52.556 53.4307H49C48.7679 53.4307 48.5454 53.5228 48.3813 53.6869C48.2172 53.851 48.125 54.0736 48.125 54.3057C48.125 54.5377 48.2172 54.7603 48.3813 54.9244C48.5454 55.0885 48.7679 55.1807 49 55.1807Z" fill="#007CFA"/>
<path d="M55.9441 55.1807H59.5001C59.7322 55.1807 59.9547 55.0885 60.1188 54.9244C60.2829 54.7603 60.3751 54.5377 60.3751 54.3057C60.3751 54.0736 60.2829 53.851 60.1188 53.6869C59.9547 53.5228 59.7322 53.4307 59.5001 53.4307H55.9441C55.712 53.4307 55.4895 53.5228 55.3254 53.6869C55.1613 53.851 55.0691 54.0736 55.0691 54.3057C55.0691 54.5377 55.1613 54.7603 55.3254 54.9244C55.4895 55.0885 55.712 55.1807 55.9441 55.1807Z" fill="#007CFA"/>
<path d="M21.0001 32.4307H17.4441C17.212 32.4307 16.9895 32.5229 16.8254 32.6869C16.6613 32.851 16.5691 33.0736 16.5691 33.3057C16.5691 33.5377 16.6613 33.7603 16.8254 33.9244C16.9895 34.0885 17.212 34.1807 17.4441 34.1807H21.0001C21.2322 34.1807 21.4547 34.0885 21.6188 33.9244C21.7829 33.7603 21.8751 33.5377 21.8751 33.3057C21.8751 33.0736 21.7829 32.851 21.6188 32.6869C21.4547 32.5229 21.2322 32.4307 21.0001 32.4307Z" fill="#007CFA"/>
<path d="M14.056 32.4307H10.5C10.2679 32.4307 10.0454 32.5229 9.88128 32.6869C9.71719 32.851 9.625 33.0736 9.625 33.3057C9.625 33.5377 9.71719 33.7603 9.88128 33.9244C10.0454 34.0885 10.2679 34.1807 10.5 34.1807H14.056C14.2881 34.1807 14.5106 34.0885 14.6747 33.9244C14.8388 33.7603 14.931 33.5377 14.931 33.3057C14.931 33.0736 14.8388 32.851 14.6747 32.6869C14.5106 32.5229 14.2881 32.4307 14.056 32.4307Z" fill="#007CFA"/>
<path d="M21.0001 37.6807H17.4441C17.212 37.6807 16.9895 37.7729 16.8254 37.9369C16.6613 38.101 16.5691 38.3236 16.5691 38.5557C16.5691 38.7877 16.6613 39.0103 16.8254 39.1744C16.9895 39.3385 17.212 39.4307 17.4441 39.4307H21.0001C21.2322 39.4307 21.4547 39.3385 21.6188 39.1744C21.7829 39.0103 21.8751 38.7877 21.8751 38.5557C21.8751 38.3236 21.7829 38.101 21.6188 37.9369C21.4547 37.7729 21.2322 37.6807 21.0001 37.6807Z" fill="#007CFA"/>
<path d="M14.056 37.6807H10.5C10.2679 37.6807 10.0454 37.7729 9.88128 37.9369C9.71719 38.101 9.625 38.3236 9.625 38.5557C9.625 38.7877 9.71719 39.0103 9.88128 39.1744C10.0454 39.3385 10.2679 39.4307 10.5 39.4307H14.056C14.2881 39.4307 14.5106 39.3385 14.6747 39.1744C14.8388 39.0103 14.931 38.7877 14.931 38.5557C14.931 38.3236 14.8388 38.101 14.6747 37.9369C14.5106 37.7729 14.2881 37.6807 14.056 37.6807Z" fill="#007CFA"/>
<path d="M21.0001 42.9307H17.4441C17.212 42.9307 16.9895 43.0229 16.8254 43.1869C16.6613 43.351 16.5691 43.5736 16.5691 43.8057C16.5691 44.0377 16.6613 44.2603 16.8254 44.4244C16.9895 44.5885 17.212 44.6807 17.4441 44.6807H21.0001C21.2322 44.6807 21.4547 44.5885 21.6188 44.4244C21.7829 44.2603 21.8751 44.0377 21.8751 43.8057C21.8751 43.5736 21.7829 43.351 21.6188 43.1869C21.4547 43.0229 21.2322 42.9307 21.0001 42.9307Z" fill="#007CFA"/>
<path d="M14.056 42.9307H10.5C10.2679 42.9307 10.0454 43.0229 9.88128 43.1869C9.71719 43.351 9.625 43.5736 9.625 43.8057C9.625 44.0377 9.71719 44.2603 9.88128 44.4244C10.0454 44.5885 10.2679 44.6807 10.5 44.6807H14.056C14.2881 44.6807 14.5106 44.5885 14.6747 44.4244C14.8388 44.2603 14.931 44.0377 14.931 43.8057C14.931 43.5736 14.8388 43.351 14.6747 43.1869C14.5106 43.0229 14.2881 42.9307 14.056 42.9307Z" fill="#007CFA"/>
<path d="M21.0001 48.1807H17.4441C17.212 48.1807 16.9895 48.2728 16.8254 48.4369C16.6613 48.601 16.5691 48.8236 16.5691 49.0557C16.5691 49.2877 16.6613 49.5103 16.8254 49.6744C16.9895 49.8385 17.212 49.9307 17.4441 49.9307H21.0001C21.2322 49.9307 21.4547 49.8385 21.6188 49.6744C21.7829 49.5103 21.8751 49.2877 21.8751 49.0557C21.8751 48.8236 21.7829 48.601 21.6188 48.4369C21.4547 48.2728 21.2322 48.1807 21.0001 48.1807Z" fill="#007CFA"/>
<path d="M14.056 48.1807H10.5C10.2679 48.1807 10.0454 48.2728 9.88128 48.4369C9.71719 48.601 9.625 48.8236 9.625 49.0557C9.625 49.2877 9.71719 49.5103 9.88128 49.6744C10.0454 49.8385 10.2679 49.9307 10.5 49.9307H14.056C14.2881 49.9307 14.5106 49.8385 14.6747 49.6744C14.8388 49.5103 14.931 49.2877 14.931 49.0557C14.931 48.8236 14.8388 48.601 14.6747 48.4369C14.5106 48.2728 14.2881 48.1807 14.056 48.1807Z" fill="#007CFA"/>
<path d="M21.0001 53.4307H17.4441C17.212 53.4307 16.9895 53.5228 16.8254 53.6869C16.6613 53.851 16.5691 54.0736 16.5691 54.3057C16.5691 54.5377 16.6613 54.7603 16.8254 54.9244C16.9895 55.0885 17.212 55.1807 17.4441 55.1807H21.0001C21.2322 55.1807 21.4547 55.0885 21.6188 54.9244C21.7829 54.7603 21.8751 54.5377 21.8751 54.3057C21.8751 54.0736 21.7829 53.851 21.6188 53.6869C21.4547 53.5228 21.2322 53.4307 21.0001 53.4307Z" fill="#007CFA"/>
<path d="M14.056 53.4307H10.5C10.2679 53.4307 10.0454 53.5228 9.88128 53.6869C9.71719 53.851 9.625 54.0736 9.625 54.3057C9.625 54.5377 9.71719 54.7603 9.88128 54.9244C10.0454 55.0885 10.2679 55.1807 10.5 55.1807H14.056C14.2881 55.1807 14.5106 55.0885 14.6747 54.9244C14.8388 54.7603 14.931 54.5377 14.931 54.3057C14.931 54.0736 14.8388 53.851 14.6747 53.6869C14.5106 53.5228 14.2881 53.4307 14.056 53.4307Z" fill="#007CFA"/>
</svg>
