<svg width="46" height="46" viewBox="0 0 46 46" fill="none" xmlns="http://www.w3.org/2000/svg">
<g clip-path="url(#clip0_84_208)">
<path d="M38.8663 34.6743C36.8317 34.6743 35.1764 36.3295 35.1764 38.3642C35.1764 40.3989 36.8316 42.0541 38.8663 42.0541C40.901 42.0541 42.5562 40.3989 42.5562 38.3642C42.5562 36.3295 40.9009 34.6743 38.8663 34.6743ZM38.8663 40.578C37.6456 40.578 36.6523 39.5849 36.6523 38.3641C36.6523 37.1433 37.6456 36.1502 38.8663 36.1502C40.087 36.1502 41.0802 37.1433 41.0802 38.3641C41.0802 39.5849 40.087 40.578 38.8663 40.578Z" fill="white"/>
<path d="M4.42786 2.69556H2.9519V4.17151H4.42786V2.69556Z" fill="white"/>
<path d="M1.47595 2.69556H0V4.17151H1.47595V2.69556Z" fill="white"/>
<path d="M7.37964 2.69556H5.90369V4.17151H7.37964V2.69556Z" fill="white"/>
<path d="M10.3315 2.69556H8.85559V4.17151H10.3315V2.69556Z" fill="white"/>
<path d="M4.42786 7.28711H2.9519V8.76306H4.42786V7.28711Z" fill="white"/>
<path d="M1.47595 7.28711H0V8.76306H1.47595V7.28711Z" fill="white"/>
<path d="M10.3315 7.28711H8.85559V8.76306H10.3315V7.28711Z" fill="white"/>
<path d="M7.37964 7.28711H5.90369V8.76306H7.37964V7.28711Z" fill="white"/>
<path d="M1.47595 11.8794H0V13.3553H1.47595V11.8794Z" fill="white"/>
<path d="M7.37964 11.8794H5.90369V13.3553H7.37964V11.8794Z" fill="white"/>
<path d="M10.3315 11.8794H8.85559V13.3553H10.3315V11.8794Z" fill="white"/>
<path d="M4.42786 11.8794H2.9519V13.3553H4.42786V11.8794Z" fill="white"/>
<path d="M1.47595 16.4714H0V17.9474H1.47595V16.4714Z" fill="white"/>
<path d="M10.3315 16.4714H8.85559V17.9474H10.3315V16.4714Z" fill="white"/>
<path d="M4.42786 16.4714H2.9519V17.9474H4.42786V16.4714Z" fill="white"/>
<path d="M7.37964 16.4714H5.90369V17.9474H7.37964V16.4714Z" fill="white"/>
<path d="M45.016 29.0164C45.016 26.9818 43.3608 25.3266 41.3261 25.3266H32.2246H31.4866C31.3648 25.3266 31.2436 25.3287 31.1227 25.3321C31.0861 25.3332 31.0497 25.335 31.0132 25.3363C30.9271 25.3395 30.8412 25.3434 30.7556 25.3483C30.7155 25.3506 30.6754 25.3532 30.6354 25.3559C30.5503 25.3617 30.4655 25.3683 30.3809 25.3757C30.3445 25.3789 30.3082 25.3819 30.2719 25.3854C30.1706 25.3951 30.0697 25.4063 29.9692 25.4184C29.9509 25.4206 29.9325 25.4224 29.9142 25.4247C29.7936 25.4399 29.6734 25.4567 29.5539 25.4753C29.5286 25.4792 29.5036 25.4837 29.4784 25.4878C29.3872 25.5026 29.2963 25.518 29.2057 25.5347C29.1631 25.5426 29.1207 25.551 29.0782 25.5593C29.0064 25.5733 28.9348 25.5878 28.8635 25.603C28.8136 25.6136 28.7636 25.6245 28.7138 25.6357C28.653 25.6495 28.5926 25.664 28.5322 25.6787C28.4753 25.6924 28.4182 25.7058 28.3615 25.7203C28.3346 25.7274 28.3078 25.7349 28.281 25.742C25.3468 26.5153 22.7591 28.337 21.0325 30.9341L20.6194 31.5554L20.6423 31.5703C20.5193 31.781 20.4022 31.9956 20.2914 32.214H17.7112C15.4053 32.214 13.5294 30.338 13.5294 28.0322C13.5294 25.7263 15.4054 23.8504 17.7112 23.8504H37.8823C42.3583 23.8504 45.9999 20.2089 45.9999 15.7328C45.9999 11.2567 42.3583 7.61513 37.8823 7.61513H23.3431C23.1764 6.50286 22.2146 5.64719 21.0566 5.64719H20.417V2.49349L13.0373 0.502197V19.1565L20.417 17.1652V14.0111H21.0566C22.2146 14.0111 23.1764 13.1554 23.3431 12.0432H37.8823C39.9169 12.0432 41.5722 13.6984 41.5722 15.733C41.5722 17.7677 39.917 19.4229 37.8823 19.4229H17.7112C12.9638 19.4229 9.10156 23.2851 9.10156 28.0326C9.10156 32.78 12.9638 36.6422 17.7112 36.6422H19.0014C18.9619 37.047 18.9412 37.4571 18.9412 37.8722C18.9412 39.9068 20.5964 41.562 22.631 41.562H32.4925C33.6671 43.8938 36.0823 45.4978 38.8663 45.4978C42.7999 45.4978 46 42.2977 46 38.3642C46 37.0479 45.6403 35.8148 45.0161 34.7552V29.0164H45.016ZM18.9412 5.64746V14.0111V16.0347L14.5134 17.2295V2.42917L18.9412 3.624V5.64746ZM21.893 11.6988C21.893 12.16 21.5178 12.5352 21.0566 12.5352H20.417V7.12341H21.0566C21.5178 7.12341 21.893 7.4986 21.893 7.95977V11.6988ZM36.6523 10.5673H23.3689V9.09135H36.6523V10.5673ZM38.1283 20.8926C40.8629 20.7637 43.048 18.4989 43.048 15.733C43.048 12.9672 40.8629 10.7023 38.1283 10.5735V9.09755C41.6768 9.22764 44.524 12.1532 44.524 15.733C44.524 19.3129 41.6768 22.2385 38.1283 22.3685V20.8926ZM19.6032 33.8476C19.6018 33.852 19.6003 33.8563 19.5988 33.8608C19.5673 33.9544 19.5366 34.0481 19.5072 34.1424C19.5049 34.1496 19.503 34.1568 19.5007 34.1639C19.453 34.3183 19.4085 34.4738 19.3668 34.6301C19.356 34.6704 19.3446 34.7105 19.3343 34.751C19.3207 34.8044 19.3081 34.8579 19.2951 34.9115C19.2795 34.9754 19.2642 35.0393 19.2497 35.1035C19.2448 35.1245 19.2394 35.1452 19.2347 35.1663H17.7111C13.7776 35.1663 10.5774 31.9661 10.5774 28.0326C10.5774 24.099 13.7776 20.8989 17.7111 20.8989H36.6523V22.3748H17.7112C14.5915 22.3748 12.0535 24.9128 12.0535 28.0326C12.0535 31.1523 14.5915 33.6903 17.7112 33.6903H19.6561C19.6376 33.7424 19.6209 33.7951 19.6032 33.8476ZM29.1771 27.0456C29.206 27.0395 29.2347 27.0329 29.2637 27.0269C29.3046 27.0186 29.3458 27.0112 29.3869 27.0032C29.4411 26.9928 29.4953 26.9821 29.5496 26.9725C29.585 26.9662 29.6208 26.9607 29.6563 26.9548C29.7162 26.9447 29.7761 26.9348 29.8363 26.9258C29.8709 26.9206 29.9058 26.9161 29.9406 26.9111C30.0016 26.9026 30.0626 26.8942 30.1237 26.8865C30.1596 26.8821 30.1954 26.8783 30.2313 26.8742C30.2913 26.8674 30.3514 26.8608 30.4117 26.8549C30.4495 26.8512 30.4873 26.848 30.5253 26.8447C30.5835 26.8397 30.6418 26.8349 30.7001 26.8307C30.7163 26.8296 30.7323 26.8288 30.7485 26.8277V28.3068C28.0705 28.5127 25.6055 29.8326 23.9413 31.9523L22.7005 31.1469C24.2772 29.092 26.5569 27.604 29.1771 27.0456ZM31.9439 40.086H22.631C21.4102 40.086 20.417 39.0929 20.417 37.8721C20.417 37.2284 20.4729 36.5976 20.5787 35.9838C20.593 35.9012 20.6084 35.8187 20.6245 35.7365C20.63 35.7081 20.6351 35.6794 20.6409 35.651C20.6609 35.5529 20.6825 35.4552 20.7052 35.3577C20.7177 35.3035 20.7313 35.2495 20.7448 35.1957C20.7559 35.1511 20.7671 35.1064 20.7788 35.0618C20.7959 34.997 20.8132 34.9324 20.8314 34.8681C20.8379 34.8444 20.845 34.8211 20.8519 34.7975C21.0992 33.9431 21.4466 33.1309 21.8812 32.3746L24.3346 33.9669L24.7394 33.3632C26.2549 31.1034 28.7772 29.7543 31.4865 29.7543H32.2245V26.8024H41.3261C42.5468 26.8024 43.54 27.7956 43.54 29.0164V32.9816C42.2871 31.8922 40.653 31.2304 38.8663 31.2304C34.9327 31.2304 31.7326 34.4305 31.7326 38.3641C31.7326 38.9577 31.8067 39.5342 31.9439 40.086ZM38.8663 44.0218C35.7465 44.0218 33.2085 41.4838 33.2085 38.3641C33.2085 35.2443 35.7465 32.7063 38.8663 32.7063C41.986 32.7063 44.524 35.2443 44.524 38.3641C44.524 41.4838 41.986 44.0218 38.8663 44.0218Z" fill="white"/>
</g>
<defs>
<clipPath id="clip0_84_208">
<rect width="46" height="46" fill="white"/>
</clipPath>
</defs>
</svg>
