<svg width="70" height="70" viewBox="0 0 70 70" fill="none" xmlns="http://www.w3.org/2000/svg">
<g clip-path="url(#clip0_175_63)">
<path d="M68.8373 47.007H1.16261C0.559814 47.007 0.0710449 46.5182 0.0710449 45.9155V40.4578C0.0710449 39.855 0.559678 39.3662 1.16261 39.3662H68.8373C69.4401 39.3662 69.9289 39.855 69.9289 40.4578V45.9155C69.9289 46.5182 69.4401 47.007 68.8373 47.007ZM2.25417 44.824H67.7457V41.5495H2.25417V44.824Z" fill="#8CC63F"/>
<path d="M64.4713 52.4645H5.52882C4.92603 52.4645 4.43726 51.9758 4.43726 51.373V45.9153C4.43726 45.3125 4.92589 44.8237 5.52882 44.8237H64.4713C65.0741 44.8237 65.5628 45.3125 65.5628 45.9153V51.373C65.5628 51.9758 65.0741 52.4645 64.4713 52.4645ZM6.62038 50.2814H63.3797V47.0069H6.62038V50.2814Z" fill="#8CC63F"/>
<path d="M13.1693 69.9293H8.80323C8.20044 69.9293 7.71167 69.4405 7.71167 68.8378V51.3733C7.71167 50.7705 8.2003 50.2817 8.80323 50.2817H13.1693C13.7721 50.2817 14.2609 50.7705 14.2609 51.3733V68.8378C14.2609 69.4405 13.7723 69.9293 13.1693 69.9293ZM9.8948 67.7462H12.0778V52.4649H9.8948V67.7462Z" fill="#8CC63F"/>
<path d="M62.288 69.9293H57.9219C57.3191 69.9293 56.8303 69.4405 56.8303 68.8378V51.3733C56.8303 50.7705 57.3191 50.2817 57.9219 50.2817H62.288C62.8908 50.2817 63.3796 50.7705 63.3796 51.3733V68.8378C63.3796 69.4405 62.8908 69.9293 62.288 69.9293ZM59.0134 67.7462H61.1964V52.4649H59.0134V67.7462Z" fill="#8CC63F"/>
<path d="M36.0916 37.1832H12.0779C11.4751 37.1832 10.9863 36.6945 10.9863 36.0917V18.6272C10.9863 18.0244 11.475 17.5356 12.0779 17.5356H36.0914C36.6942 17.5356 37.183 18.0243 37.183 18.6272V36.0917C37.183 36.6946 36.6944 37.1832 36.0916 37.1832ZM13.1695 35.0002H35V19.7189H13.1695V35.0002Z" fill="#8CC63F"/>
<path d="M27.3592 41.5491H20.8101C20.474 41.5491 20.1566 41.3943 19.9497 41.1292C19.7429 40.8644 19.6696 40.5188 19.7511 40.1929L20.8426 35.8267C20.9642 35.3408 21.4007 35 21.9015 35H26.2676C26.7684 35 27.2051 35.3408 27.3265 35.8267L28.4181 40.1929C28.4996 40.5189 28.4263 40.8644 28.2194 41.1292C28.0127 41.3943 27.6953 41.5491 27.3592 41.5491ZM22.2081 39.3661H25.9613L25.4155 37.1831H22.7538L22.2081 39.3661Z" fill="#8CC63F"/>
<path d="M36.0916 32.9492H12.0779C11.4751 32.9492 10.9863 32.4583 10.9863 31.8555C10.9863 31.2527 11.475 30.7617 12.0779 30.7617H36.0914C36.6942 30.7617 37.183 31.2527 37.183 31.8555C37.183 32.4583 36.6944 32.9492 36.0916 32.9492Z" fill="#8CC63F"/>
<path d="M53.8288 41.5495H48.917C46.66 41.5495 44.8237 39.7133 44.8237 37.4563V27.3596C44.8237 26.7568 45.3125 26.2681 45.9153 26.2681H56.8305C57.4333 26.2681 57.9221 26.7567 57.9221 27.3596V37.4563C57.9221 39.7134 56.0858 41.5495 53.8288 41.5495ZM47.0067 28.4513V37.4564C47.0067 38.5097 47.8637 39.3667 48.917 39.3667H53.8288C54.8821 39.3667 55.7391 38.5097 55.7391 37.4564V28.4513H47.0067Z" fill="#8CC63F"/>
<path d="M58.5359 36.092H56.8303C56.2275 36.092 55.7388 35.6032 55.7388 35.0004V29.5427C55.7388 28.9399 56.2275 28.4512 56.8303 28.4512H58.5359C60.6047 28.4512 62.288 30.1343 62.288 32.2033V32.3397C62.288 34.4087 60.6049 36.092 58.5359 36.092ZM57.922 33.9088H58.536C59.4012 33.9088 60.1052 33.205 60.1052 32.3397V32.2033C60.1052 31.3381 59.4012 30.6342 58.536 30.6342H57.922V33.9088Z" fill="#8CC63F"/>
<path d="M48.125 24.0849C47.5222 24.0849 47.0312 23.5962 47.0312 22.9933V20.8103C47.0312 20.2075 47.5222 19.7188 48.125 19.7188C48.7278 19.7188 49.2188 20.2074 49.2188 20.8103V22.9933C49.2188 23.5961 48.7278 24.0849 48.125 24.0849Z" fill="#8CC63F"/>
<path d="M54.6875 24.0849C54.0847 24.0849 53.5938 23.5962 53.5938 22.9933V20.8103C53.5938 20.2075 54.0847 19.7188 54.6875 19.7188C55.2903 19.7188 55.7812 20.2074 55.7812 20.8103V22.9933C55.7812 23.5961 55.2903 24.0849 54.6875 24.0849Z" fill="#8CC63F"/>
<path d="M51.4062 19.7187C50.8035 19.7187 50.3125 19.23 50.3125 18.6271V16.4441C50.3125 15.8413 50.8035 15.3525 51.4062 15.3525C52.009 15.3525 52.5 15.8412 52.5 16.4441V18.6271C52.5 19.2299 52.009 19.7187 51.4062 19.7187Z" fill="#8CC63F"/>
<path d="M57.922 60.1562H13.1694C12.5666 60.1562 12.0779 59.6653 12.0779 59.0625C12.0779 58.4597 12.5665 57.9688 13.1694 57.9688H57.922C58.5248 57.9688 59.0136 58.4597 59.0136 59.0625C59.0136 59.6653 58.5248 60.1562 57.922 60.1562Z" fill="#8CC63F"/>
<path d="M44.8238 12.0782H38.2747C37.6719 12.0782 37.1831 11.5895 37.1831 10.9866V8.80361C37.1831 6.39613 39.1417 4.4375 41.5492 4.4375C43.9567 4.4375 45.9153 6.39613 45.9153 8.80361V10.9866C45.9152 11.5895 45.4266 12.0782 44.8238 12.0782ZM39.3661 9.89518H43.7322V8.80361C43.7322 7.59994 42.7529 6.62062 41.5492 6.62062C40.3456 6.62062 39.3662 7.59994 39.3662 8.80361V9.89518H39.3661Z" fill="#8CC63F"/>
<path d="M47.0068 12.168H36.0916C35.4888 12.168 35 11.677 35 11.0742C35 10.4714 35.4888 9.98047 36.0916 9.98047H47.0068C47.6096 9.98047 48.0983 10.4714 48.0983 11.0742C48.0983 11.677 47.6096 12.168 47.0068 12.168Z" fill="#8CC63F"/>
<path d="M41.549 15.3527C39.7433 15.3527 38.2744 13.8838 38.2744 12.0781V10.9866C38.2744 10.3838 38.7632 9.89502 39.366 9.89502H43.7321C44.3349 9.89502 44.8237 10.3837 44.8237 10.9866V12.0781C44.8237 13.8837 43.3546 15.3527 41.549 15.3527ZM40.4575 12.078C40.4575 12.6798 40.9473 13.1696 41.5491 13.1696C42.1509 13.1696 42.6407 12.6798 42.6407 12.078H40.4575Z" fill="#8CC63F"/>
<path d="M41.5625 6.62053C40.9597 6.62053 40.4688 6.13189 40.4688 5.52896V1.16285C40.4688 0.560059 40.9597 0.0712891 41.5625 0.0712891C42.1653 0.0712891 42.6562 0.559922 42.6562 1.16285V5.52896C42.6562 6.13189 42.1653 6.62053 41.5625 6.62053Z" fill="#8CC63F"/>
</g>
<defs>
<clipPath id="clip0_175_63">
<rect width="70" height="70" fill="white"/>
</clipPath>
</defs>
</svg>
