<svg width="46" height="46" viewBox="0 0 46 46" fill="none" xmlns="http://www.w3.org/2000/svg">
<g clip-path="url(#clip0_88_344)">
<path d="M31.7048 15.6526C31.7048 16.8586 31.4672 18.0529 31.0057 19.1672C30.5441 20.2814 29.8676 21.2939 29.0148 22.1467C28.162 22.9995 27.1496 23.676 26.0353 24.1375C24.9211 24.599 23.7268 24.8366 22.5208 24.8366" stroke="#1F1F1F" stroke-width="2" stroke-miterlimit="10"/>
<path d="M0.958252 45.0416V40.4535C0.958252 38.5683 1.53841 36.7287 2.61995 35.1846C3.70149 33.6405 5.23202 32.4666 7.00373 31.8224L18.0485 28.6774V22.9583C16.9109 22.1095 15.9867 21.0074 15.349 19.7393C14.7114 18.4712 14.3779 17.072 14.3749 15.6527V9.62318C14.3749 7.3251 15.2878 5.12114 16.9128 3.49615C18.5378 1.87116 20.7418 0.958252 23.0398 0.958252C25.3379 0.958252 27.5419 1.87116 29.1669 3.49615C30.7919 5.12114 31.7048 7.3251 31.7048 9.62318V15.6527C31.7018 17.072 31.3683 18.4712 30.7306 19.7393C30.093 21.0074 29.1688 22.1095 28.0312 22.9583V28.6774L39.0365 31.8833C40.7983 32.5333 42.3185 33.7078 43.3922 35.2484C44.4659 36.789 45.0416 38.6217 45.0416 40.4996V45.0416" stroke="#1F1F1F" stroke-width="2" stroke-linecap="round" stroke-linejoin="round"/>
<path d="M15.3333 29.9478V40.2499H30.6666V29.7083" stroke="#1F1F1F" stroke-width="2" stroke-miterlimit="10"/>
<path d="M38.3331 45.9998V43.1248L34.4998 40.2498V30.6665" stroke="#1F1F1F" stroke-width="2" stroke-miterlimit="10"/>
<path d="M11.4998 30.6665V40.2498L7.6665 43.1248V45.9998" stroke="#1F1F1F" stroke-width="2" stroke-miterlimit="10"/>
<path d="M15.3655 29.229C15.6909 32.1799 18.9814 34.4998 22.9999 34.4998C27.0183 34.4998 30.3088 32.1799 30.6342 29.229" stroke="#1F1F1F" stroke-width="2" stroke-miterlimit="10"/>
<path d="M17.3057 9.48976H23.6778V7.36572C25.0378 8.72572 26.8823 9.48976 28.8057 9.48977" stroke="#1F1F1F" stroke-width="2" stroke-miterlimit="10" stroke-linecap="round"/>
<path d="M4.79167 17.25C4.79167 17.8793 4.66773 18.5023 4.42692 19.0837C4.18612 19.665 3.83317 20.1933 3.38822 20.6382C2.94327 21.0832 2.41504 21.4361 1.83369 21.6769C1.25234 21.9177 0.629251 22.0417 0 22.0417" stroke="#1F1F1F" stroke-width="2" stroke-miterlimit="10"/>
<path d="M9.58341 22.0417C8.31259 22.0417 7.09381 21.5368 6.19519 20.6382C5.29658 19.7396 4.79175 18.5208 4.79175 17.25" stroke="#1F1F1F" stroke-width="2" stroke-miterlimit="10"/>
<path d="M4.79167 26.8334C4.79167 25.5626 4.28683 24.3438 3.38822 23.4452C2.48961 22.5466 1.27083 22.0417 0 22.0417" stroke="#1F1F1F" stroke-width="2" stroke-miterlimit="10"/>
<path d="M9.58341 22.0417C8.31259 22.0417 7.09381 22.5466 6.19519 23.4452C5.29658 24.3438 4.79175 25.5626 4.79175 26.8334" stroke="#1F1F1F" stroke-width="2" stroke-miterlimit="10"/>
<path d="M41.2084 5.75C41.2084 7.02083 40.7036 8.23961 39.805 9.13822C38.9064 10.0368 37.6876 10.5417 36.4167 10.5417" stroke="#1F1F1F" stroke-width="2" stroke-miterlimit="10"/>
<path d="M46.0002 10.5417C44.7293 10.5417 43.5106 10.0368 42.6119 9.13822C41.7133 8.23961 41.2085 7.02083 41.2085 5.75" stroke="#1F1F1F" stroke-width="2" stroke-miterlimit="10"/>
<path d="M41.2084 15.3334C41.2084 14.0626 40.7036 12.8438 39.805 11.9452C38.9064 11.0466 37.6876 10.5417 36.4167 10.5417" stroke="#1F1F1F" stroke-width="2" stroke-miterlimit="10"/>
<path d="M46.0002 10.5417C44.7293 10.5417 43.5106 11.0466 42.6119 11.9452C41.7133 12.8438 41.2085 14.0626 41.2085 15.3334" stroke="#1F1F1F" stroke-width="2" stroke-miterlimit="10"/>
</g>
<defs>
<clipPath id="clip0_88_344">
<rect width="46" height="46" fill="white"/>
</clipPath>
</defs>
</svg>
