<svg width="46" height="46" viewBox="0 0 46 46" fill="none" xmlns="http://www.w3.org/2000/svg">
<g clip-path="url(#clip0_88_303)">
<path d="M7.66667 25.8981C7.24756 25.5152 6.70097 25.3021 6.13333 25.3001H2.3C1.02974 25.3001 0 26.3298 0 27.6001V43.7001C0 44.9703 1.02974 46.0001 2.3 46.0001H6.13333C6.78384 45.998 7.40275 45.7193 7.83533 45.2334H27.0633C28.1884 45.2339 29.2918 44.9246 30.2527 44.3395L44.62 35.5933C45.2998 35.1834 45.7784 34.5092 45.9414 33.7323C46.1045 32.9554 45.9371 32.1457 45.4794 31.497C45.4637 31.4702 45.446 31.4446 45.4265 31.4204C44.6844 30.4352 43.3971 30.0322 42.2257 30.4183L39.8667 31.2034V21.4667H42.1667C42.4454 21.4667 42.7021 21.3155 42.8372 21.0717C42.9723 20.828 42.9645 20.5301 42.8168 20.2937L38.5925 13.5394C38.4473 13.3066 38.1889 13.1689 37.9147 13.1782C37.6405 13.1875 37.3921 13.3424 37.2631 13.5846C37.134 13.8267 37.144 14.1193 37.2891 14.3521L40.7867 19.9334H19.5914L12.88 9.20008H24.5333C24.9568 9.20008 25.3 8.85683 25.3 8.43341C25.3 8.01 24.9568 7.66675 24.5333 7.66675H11.5C11.2366 7.66856 10.9925 7.80549 10.8537 8.02938H10.8499L3.1832 20.296C3.03671 20.5323 3.02956 20.8293 3.16451 21.0723C3.29946 21.3153 3.55537 21.4662 3.83333 21.4667H7.66667V25.8981ZM6.13333 44.4668H2.3C1.87658 44.4668 1.53333 44.1235 1.53333 43.7001V27.6001C1.53333 27.1767 1.87658 26.8334 2.3 26.8334H6.13333C6.55675 26.8334 6.9 27.1767 6.9 27.6001V43.7001C6.9 44.1235 6.55675 44.4668 6.13333 44.4668ZM42.7033 31.8704C43.2292 31.6966 43.8079 31.8638 44.16 32.2913C44.1715 32.3105 44.1838 32.3281 44.1968 32.3465C44.4237 32.6466 44.5123 33.0291 44.4405 33.3984C44.3687 33.7678 44.1432 34.0891 43.8204 34.2823L29.4553 43.03C28.7345 43.4685 27.907 43.7003 27.0633 43.7001H8.43333V28.3667H9.81333C11.2279 28.3683 12.6001 28.8497 13.7057 29.7322C15.0829 30.8308 16.7916 31.4305 18.5533 31.4334H22.563C23.7795 31.4293 24.8816 32.1498 25.3659 33.2657C25.6694 33.9208 25.5881 34.6896 25.1543 35.2668H20.4853C18.9716 35.2677 17.4919 35.7158 16.2319 36.5548L15.6722 36.9304C15.3208 37.1667 15.2274 37.6431 15.4637 37.9945C15.6999 38.346 16.1764 38.4394 16.5278 38.2031L17.0829 37.8305C18.0906 37.1591 19.2744 36.8006 20.4853 36.8001H27.301C27.7146 36.8006 28.1254 36.733 28.5169 36.6L42.7033 31.8704ZM38.3333 31.7109L28.0263 35.1472C27.7927 35.2265 27.5477 35.2669 27.301 35.2668H26.8832C27.1768 34.4222 27.1415 33.4981 26.7843 32.6785C26.2327 31.3914 25.12 30.4294 23.7667 30.0695V21.4667H38.3333V31.7109ZM19.1667 21.4667H22.2333V29.9001H18.5533C17.1388 29.8985 15.7665 29.4171 14.661 28.5347C13.2838 27.436 11.575 26.8363 9.81333 26.8334H9.2V20.9201L13.8 13.5601L18.5165 21.1064C18.6566 21.3306 18.9023 21.4667 19.1667 21.4667ZM11.5 9.88011L12.8961 12.1134L8.0086 19.9334H5.21333L11.5 9.88011Z" fill="#1F1F1F"/>
<path d="M34.4932 6.91894e-08C34.0783 -0.000174424 33.7385 0.329722 33.7265 0.744434V0.760534V0.766667C33.7265 1.0488 33.6567 7.66667 27.5855 7.66667C27.1621 7.66667 26.8188 8.00992 26.8188 8.43333C26.8188 8.85675 27.1621 9.2 27.5855 9.2C33.633 9.2 33.725 15.8194 33.7265 16.1C33.7208 16.5234 34.0594 16.8713 34.4828 16.877C34.9063 16.8827 35.2541 16.5441 35.2598 16.1207V16.1046V16.1C35.2598 15.8179 35.3296 9.2 41.4001 9.2C41.8235 9.2 42.1667 8.85675 42.1667 8.43333C42.1667 8.00992 41.8235 7.66667 41.4001 7.66667C35.3534 7.66667 35.2606 1.04727 35.2598 0.766667C35.2598 0.343248 34.9166 6.91894e-08 34.4932 6.91894e-08ZM37.9056 8.43333C36.3357 9.2615 35.1222 10.6345 34.4932 12.2943C33.8642 10.6345 32.6507 9.2615 31.0807 8.43333C32.6507 7.60517 33.8642 6.2322 34.4932 4.5724C35.1222 6.2322 36.3357 7.60517 37.9056 8.43333Z" fill="#1F1F1F"/>
<path d="M36.0333 24.5334C35.6099 24.5334 35.2666 24.8767 35.2666 25.3001V29.3473L31.191 30.7059C30.7888 30.8397 30.5712 31.2742 30.705 31.6765C30.8388 32.0787 31.2733 32.2963 31.6756 32.1625L36.2756 30.6292C36.5893 30.5247 36.8007 30.2308 36.8 29.9001V25.3001C36.8 24.8767 36.4567 24.5334 36.0333 24.5334Z" fill="#1F1F1F"/>
</g>
<defs>
<clipPath id="clip0_88_303">
<rect width="46" height="46" fill="white"/>
</clipPath>
</defs>
</svg>
