<svg width="46" height="46" viewBox="0 0 46 46" fill="none" xmlns="http://www.w3.org/2000/svg">
<g clip-path="url(#clip0_88_331)">
<path d="M17.0698 29.0625C17.3061 29.0625 17.5379 28.9673 17.705 28.7993C17.8721 28.6321 17.9683 28.4013 17.9683 28.1641C17.9683 27.9278 17.8721 27.696 17.705 27.5289C17.5379 27.3618 17.307 27.2656 17.0698 27.2656C16.8335 27.2656 16.6017 27.3618 16.4346 27.5289C16.2675 27.696 16.1714 27.9278 16.1714 28.1641C16.1714 28.4013 16.2675 28.6321 16.4346 28.7993C16.6017 28.9673 16.8335 29.0625 17.0698 29.0625Z" fill="#1F1F1F"/>
<path d="M38.4373 21.2957V17.6182H39.6205C40.5618 17.6182 41.3275 16.8525 41.3275 15.9112V8.89464C41.3275 7.95336 40.5618 7.18763 39.6205 7.18763H34.0193C35.1804 6.0487 35.9025 4.46379 35.9025 2.71276C35.9025 2.21657 35.5003 1.81434 35.0041 1.81434C34.5079 1.81434 34.1057 2.21657 34.1057 2.71276C34.1057 4.39129 33.1763 5.85608 31.8055 6.62172C32.1483 5.98761 32.3432 5.2624 32.3432 4.49236C32.3432 2.01541 30.3281 0.000244141 27.8511 0.000244141C25.8206 0.000244141 24.1013 1.3548 23.5472 3.20753C22.7664 2.55213 21.7606 2.15646 20.6637 2.15646C19.5669 2.15646 18.5611 2.55213 17.7803 3.20753C17.2262 1.3548 15.5069 0.000244141 13.4764 0.000244141C10.9994 0.000244141 8.98423 2.01541 8.98423 4.49236C8.98423 5.2624 9.17919 5.9877 9.52203 6.62172C8.15122 5.85608 7.2218 4.3912 7.2218 2.71267C7.2218 2.21648 6.81957 1.81425 6.32337 1.81425C5.82718 1.81425 5.42495 2.21648 5.42495 2.71267C5.42495 4.4637 6.1471 6.04861 7.30823 7.18754H1.707C0.765726 7.18754 0 7.95327 0 8.89455V15.9111C0 16.8524 0.765726 17.6182 1.707 17.6182H2.89023V39.7105C2.89023 41.1966 4.09933 42.4057 5.5855 42.4057H24.1236C26.4482 44.6306 29.5985 45.9994 33.0627 45.9994C40.1964 45.9994 46 40.1958 46 33.0621C46 27.8452 42.8955 23.3402 38.4373 21.2957ZM25.1559 6.64858V4.49236C25.1559 3.00619 26.365 1.79709 27.8511 1.79709C29.3373 1.79709 30.5464 3.00619 30.5464 4.49236C30.5464 5.97853 29.3373 7.18763 27.8511 7.18763H25.1559V6.64858ZM25.1559 8.98448H39.5306V15.8214H25.1559V8.98448ZM25.1559 17.6182H36.6404V20.6285C35.5037 20.3009 34.3034 20.1249 33.0627 20.1249C30.0874 20.1249 27.3439 21.1351 25.1559 22.8297V17.6182ZM17.9685 6.64858C17.9685 5.16241 19.1776 3.95331 20.6637 3.95331C22.1499 3.95331 23.359 5.16241 23.359 6.64858V7.18763H17.9685V6.64858ZM17.9685 8.98448H23.359V15.8214H17.9685V8.98448ZM13.4764 1.79709C14.9625 1.79709 16.1716 3.00619 16.1716 4.49236V6.64858V7.18763H13.4764C11.9902 7.18763 10.7811 5.97853 10.7811 4.49236C10.7811 3.00619 11.9902 1.79709 13.4764 1.79709ZM1.79685 15.8214V8.98448H16.1716V15.8214H3.78865H1.79685ZM17.9685 40.609V32.2073C17.9685 31.7111 17.5662 31.3089 17.07 31.3089C16.5738 31.3089 16.1716 31.7111 16.1716 32.2073V40.609H5.5855C5.09011 40.609 4.68708 40.206 4.68708 39.7106V17.6182H16.1716V24.1215C16.1716 24.6177 16.5738 25.0199 17.07 25.0199C17.5662 25.0199 17.9685 24.6177 17.9685 24.1215V17.6182H23.359V24.5159C21.3477 26.7968 20.1254 29.7893 20.1254 33.0622C20.1254 35.8765 21.0292 38.4834 22.561 40.609H17.9685ZM33.0627 44.2027C26.9198 44.2027 21.9223 39.2051 21.9223 33.0622C21.9223 26.9193 26.9198 21.9218 33.0627 21.9218C39.2056 21.9218 44.2032 26.9193 44.2032 33.0622C44.2032 39.2051 39.2056 44.2027 33.0627 44.2027Z" fill="#1F1F1F"/>
<path d="M35.9922 27.1496C35.5457 26.9328 35.0083 27.1189 34.7915 27.5653L29.848 37.7449C29.6313 38.1913 29.8174 38.7288 30.2637 38.9456C30.3902 39.007 30.5238 39.0361 30.6555 39.0361C30.9888 39.0361 31.309 38.8498 31.4644 38.5299L36.4079 28.3502C36.6247 27.9039 36.4385 27.3663 35.9922 27.1496Z" fill="#1F1F1F"/>
<path d="M30.7919 26.6449C30.2488 26.1018 29.5266 25.8027 28.7586 25.8027C27.9906 25.8027 27.2685 26.1018 26.7254 26.6449C25.6042 27.7661 25.6042 29.5904 26.7254 30.7115C27.286 31.2722 28.0222 31.5524 28.7586 31.5524C29.4949 31.5524 30.2315 31.272 30.792 30.7115C31.913 29.5904 31.913 27.7661 30.7919 26.6449ZM29.5213 29.4409C29.1008 29.8615 28.4164 29.8614 27.996 29.4409C27.5754 29.0203 27.5754 28.3361 27.996 27.9154C28.1996 27.7116 28.4705 27.5995 28.7586 27.5995C29.0468 27.5995 29.3176 27.7117 29.5213 27.9155C29.9419 28.3361 29.9419 29.0204 29.5213 29.4409Z" fill="#1F1F1F"/>
<path d="M35.4935 35.4129C34.3723 36.534 34.3723 38.3583 35.4935 39.4795C36.0366 40.0226 36.7587 40.3217 37.5267 40.3217C38.2948 40.3217 39.0169 40.0226 39.56 39.4795C40.6811 38.3583 40.6811 36.534 39.56 35.4129C38.4388 34.2917 36.6146 34.2918 35.4935 35.4129ZM38.2894 38.2089C38.0857 38.4127 37.8148 38.5248 37.5267 38.5248C37.2386 38.5248 36.9678 38.4126 36.764 38.2088C36.3435 37.7882 36.3435 37.104 36.764 36.6834C36.9744 36.4731 37.2505 36.368 37.5267 36.368C37.8029 36.368 38.0792 36.4731 38.2894 36.6834C38.71 37.104 38.71 37.7883 38.2894 38.2089Z" fill="#1F1F1F"/>
</g>
<defs>
<clipPath id="clip0_88_331">
<rect width="46" height="46" fill="white"/>
</clipPath>
</defs>
</svg>
