<svg width="1905" height="77" viewBox="0 0 1905 77" fill="none" xmlns="http://www.w3.org/2000/svg">
<path d="M1743.8 55.325C1773.81 46.5864 1807.25 41.7009 1842.5 41.7009C1869.65 41.7009 1895.73 44.5949 1920 49.9191V77H0V20.1499C27.8241 12.8626 58.3507 8.83887 90.3717 8.83887C145.412 8.83887 196.031 20.7297 236.105 40.6457C276.178 20.7297 326.799 8.83887 381.838 8.83887C438.068 8.83887 489.681 21.253 530.153 41.9527C572.536 15.9958 630.418 0 694.249 0C751.179 0 803.384 12.7204 844.078 33.8866C872.71 26.0879 904.287 21.7566 937.475 21.7566C971.341 21.7566 1003.53 26.2663 1032.62 34.3688C1070.29 18.2586 1115.77 8.83887 1164.76 8.83887C1222.89 8.83887 1276.08 22.1062 1317.13 44.079C1330.82 42.5186 1344.93 41.7002 1359.34 41.7002C1391.42 41.7002 1422 45.7475 1449.87 53.0622C1489.78 33.4493 1540.01 21.7573 1594.59 21.7573C1651.23 21.7573 1703.2 34.3507 1743.8 55.325Z" fill="white"/>
</svg>
