<svg width="91" height="97" viewBox="0 0 91 97" fill="none" xmlns="http://www.w3.org/2000/svg">
<path d="M31 0L34.3852 16.0217C37.4898 30.7151 47.9156 42.7883 62 48C47.9259 53.2079 37.532 65.305 34.5029 80.0028L31 97L27.4971 80.0028C24.468 65.305 14.0741 53.2079 0 48C14.0844 42.7883 24.5102 30.7151 27.6148 16.0217L31 0Z" fill="#007CFA"/>
<path d="M62 0L63.0794 5.06122C64.0885 9.79306 67.4574 13.6749 72 15.3402C67.4608 17.0043 64.1023 20.8939 63.1176 25.6272L62 31L60.8824 25.6272C59.8977 20.8939 56.5392 17.0043 52 15.3402C56.5426 13.6749 59.9114 9.79306 60.9206 5.06122L62 0Z" fill="#FFC702"/>
<path d="M84 20L84.8093 24.0223C85.483 27.3705 87.8166 30.1445 91 31.3814C87.8188 32.6175 85.4922 35.3966 84.835 38.7457L84 43L83.165 38.7457C82.5078 35.3966 80.1812 32.6175 77 31.3814C80.1834 30.1445 82.517 27.3705 83.1907 24.0223L84 20Z" fill="#007CFA"/>
</svg>
