<svg width="113" height="120" viewBox="0 0 113 120" fill="none" xmlns="http://www.w3.org/2000/svg">
<path d="M38.974 0.168823L43.6025 22.0747C47.1515 38.8716 59.0699 52.6731 75.1707 58.631L77.2208 59.3896L75.3233 60.0918C59.1394 66.0803 47.1874 79.9908 43.7042 96.892L38.974 119.844L34.2439 96.892C30.7607 79.9908 18.8087 66.0803 2.62483 60.0918L0.727295 59.3896L2.77744 58.631C18.8782 52.6731 30.7966 38.8716 34.3456 22.0747L38.974 0.168823Z" fill="#8CC63F"/>
<path d="M77.221 0.168823L78.5527 6.4132C79.7977 12.2512 83.9541 17.0404 89.5586 19.0951C83.9583 21.1481 79.8147 25.947 78.5999 31.7868L77.221 38.4156L75.8421 31.7869C74.6273 25.947 70.4837 21.1481 64.8833 19.0951C70.4878 17.0404 74.6442 12.2512 75.8892 6.4132L77.221 0.168823Z" fill="#8CC63F"/>
<path d="M104.364 24.8442L105.362 29.8068C106.193 33.9376 109.072 37.3601 113 38.8862C109.075 40.4113 106.205 43.84 105.394 47.9719L104.364 53.2208L103.334 47.9719C102.523 43.84 99.6521 40.4113 95.7273 38.8862C99.6549 37.3601 102.534 33.9376 103.365 29.8068L104.364 24.8442Z" fill="#8CC63F"/>
</svg>
