<svg width="81" height="89" viewBox="0 0 81 89" fill="none" xmlns="http://www.w3.org/2000/svg">
<path d="M20.3571 0L22.5997 10.69C24.6265 20.3515 31.4641 28.2997 40.7143 31.7472V31.7472V31.7472C31.4708 35.1922 24.6541 43.1561 22.6766 52.8204L20.3571 64.1558L18.0377 52.8204C16.0602 43.1561 9.24348 35.1922 0 31.7472V31.7472V31.7472C9.25022 28.2997 16.0878 20.3514 18.1146 10.69L20.3571 0Z" fill="#8CC63F"/>
<path d="M66.0067 40.7144L67.7038 49.4196C69.0349 56.2479 73.7381 61.9352 80.195 64.5248C73.7424 67.1126 69.0531 72.8099 67.7545 79.6397L66.0067 88.8312L64.2589 79.6397C62.9602 72.8099 58.2709 67.1126 51.8184 64.5248C58.2753 61.9352 62.9784 56.2479 64.3096 49.4196L66.0067 40.7144Z" fill="#8CC63F"/>
</svg>
