<svg width="384" height="204" viewBox="0 0 384 204" fill="none" xmlns="http://www.w3.org/2000/svg">
<path d="M1.38642 188.631C0.630469 188.97 0.292363 189.858 0.631236 190.614L6.15349 202.932C6.49236 203.688 7.37989 204.026 8.13584 203.688C8.89179 203.349 9.22989 202.461 8.89102 201.705L3.98235 190.755L14.9325 185.846C15.6884 185.508 16.0265 184.62 15.6876 183.864C15.3488 183.108 14.4612 182.77 13.7053 183.109L1.38642 188.631ZM381.508 17.4169C382.29 17.6888 383.145 17.2747 383.417 16.4922C383.689 15.7096 383.275 14.8549 382.492 14.583L381.508 17.4169ZM1.46601 191.402C24.9727 200.357 74.4034 203.931 112.838 162.944L110.65 160.892C73.2751 200.749 25.2499 197.252 2.53399 188.598L1.46601 191.402ZM151.267 95.265C167.748 66.6572 194.343 36.4438 232.251 18.7572C270.119 1.08889 319.425 -4.14885 381.508 17.4169L382.492 14.583C319.747 -7.21281 269.627 -1.99191 230.982 16.0386C192.376 34.0507 165.369 64.7763 148.667 93.7674L151.267 95.265ZM112.838 162.944C121.871 153.311 128.266 141.921 134.002 130.211C139.77 118.433 144.82 106.455 151.267 95.265L148.667 93.7674C142.157 105.067 136.973 117.323 131.307 128.891C125.609 140.526 119.371 151.592 110.65 160.892L112.838 162.944Z" fill="#FFC702"/>
</svg>
