<svg width="65" height="72" viewBox="0 0 65 72" fill="none" xmlns="http://www.w3.org/2000/svg">
<path d="M16.5 72L18.3177 63.3355C19.9604 55.5046 25.5025 49.0623 33 46.268C25.5079 43.4758 19.9828 37.0209 18.38 29.1877L16.5 20L14.62 29.1877C13.0172 37.0209 7.49208 43.4758 0 46.268C7.49755 49.0623 13.0396 55.5046 14.6823 63.3355L16.5 72Z" fill="#797E88"/>
<path d="M53.5 39L54.8755 31.9442C55.9545 26.4096 59.7665 21.7999 65 19.701C59.77 17.6035 55.9692 12.9857 54.9166 7.45L53.5 0L52.0834 7.44999C51.0308 12.9857 47.23 17.6035 42 19.701C47.2335 21.7999 51.0455 26.4096 52.1245 31.9442L53.5 39Z" fill="#797E88"/>
</svg>
