<svg width="91" height="97" viewBox="0 0 91 97" fill="none" xmlns="http://www.w3.org/2000/svg">
<path d="M31 97L34.3852 80.9783C37.4898 66.2849 47.9156 54.2117 62 49C47.9259 43.7921 37.532 31.695 34.5029 16.9972L31 0L27.4971 16.9972C24.468 31.695 14.0741 43.7921 0 49C14.0844 54.2117 24.5102 66.2849 27.6148 80.9783L31 97Z" fill="#007CFA"/>
<path d="M62 97L63.0794 91.9388C64.0885 87.2069 67.4574 83.3251 72 81.6598C67.4608 79.9957 64.1023 76.1061 63.1176 71.3728L62 66L60.8824 71.3728C59.8977 76.1061 56.5392 79.9957 52 81.6598C56.5426 83.3251 59.9114 87.2069 60.9206 91.9388L62 97Z" fill="#007CFA"/>
<path d="M84 77L84.8093 72.9777C85.483 69.6295 87.8166 66.8555 91 65.6186C87.8188 64.3825 85.4922 61.6034 84.835 58.2543L84 54L83.165 58.2543C82.5078 61.6034 80.1812 64.3825 77 65.6186C80.1834 66.8555 82.517 69.6295 83.1907 72.9777L84 77Z" fill="#007CFA"/>
</svg>
