<svg width="147" height="62" viewBox="0 0 147 62" fill="none" xmlns="http://www.w3.org/2000/svg">
<path d="M73.7301 20.4545C74.3346 20.446 74.8486 20.333 74.8402 19.7116V19.6184C74.8486 18.9998 74.3346 18.8868 73.7301 18.8784C73.1229 18.8868 72.6088 18.9998 72.6173 19.6184V19.7116C72.6088 20.333 73.1229 20.446 73.7301 20.4545Z" fill="#797E88"/>
<path d="M51.6307 19.2059C51.6307 19.0251 51.4867 18.8811 51.3059 18.8811H49.501V19.5279H51.3059C51.3963 19.5279 51.4725 19.4968 51.5347 19.4347C51.5996 19.3697 51.6307 19.2935 51.6307 19.2059Z" fill="#797E88"/>
<path d="M61.7906 18.8726L62.3104 19.994H61.2681L61.7906 18.8726Z" fill="#797E88"/>
<path d="M84.98 18.8726L85.4999 19.994H84.4575L84.98 18.8726Z" fill="#797E88"/>
<path d="M48.0568 42.4855L47.2886 40.8279L46.5161 42.4855H48.0568Z" fill="#797E88"/>
<path d="M66.1864 42.0095C66.1864 42.5732 65.8649 43.0367 65.2971 43.0367H62.9004V40.9824H65.2971C65.8649 40.9824 66.1864 41.4417 66.1864 42.0095Z" fill="#797E88"/>
<path d="M72.2574 40.8279L73.0257 42.4855H71.4849L72.2574 40.8279Z" fill="#797E88"/>
<path d="M81.5939 40.8406C81.8611 40.8406 82.074 41.0536 82.074 41.3208C82.074 41.4502 82.0281 41.563 81.9321 41.659C81.8402 41.7509 81.7275 41.7968 81.5939 41.7968H78.9258V40.8406H81.5939Z" fill="#797E88"/>
<path d="M90.4208 42.0095C90.4208 42.5732 90.0988 43.0367 89.5308 43.0367H87.1338V40.9824H89.5308C90.0988 40.9824 90.4208 41.4417 90.4208 42.0095Z" fill="#797E88"/>
<path d="M37.9122 31.5471L35.1276 25.1179H30.3501V35.8332H33.8308V30.0456L36.3424 35.8332H39.4547L41.9936 30.0456V35.8332H45.4607V25.1179H40.8333L37.9122 31.5471Z" fill="#797E88"/>
<path d="M59.6665 35.8332V33.1714H51.9815V31.7791H59.3526V29.172H51.9815V27.7933H59.571V25.1179H48.3779V35.8332H59.6665Z" fill="#797E88"/>
<path d="M62.6029 33.936C63.6676 35.3147 65.5649 35.9972 67.8445 35.9972C69.5564 35.9972 70.8112 35.6495 71.6854 35.0981C71.8358 35.0032 71.975 34.9022 72.1033 34.796L72.1989 35.8334H75.1336V29.4861H68.0083V31.793H71.8167C71.7999 31.9022 71.7417 32.0736 71.658 32.2369C71.6058 32.3389 71.5436 32.4377 71.4754 32.5164C71.0796 32.9805 70.0285 33.39 68.6635 33.39C67.2439 33.39 66.3293 33.0215 65.8379 32.4482C65.5103 32.025 65.3192 31.4244 65.3192 30.5235C65.3192 29.5817 65.5103 28.9401 65.8789 28.517C66.4112 27.9164 67.3121 27.657 68.6362 27.657C69.8238 27.657 70.6428 27.93 71.025 28.2713C71.2707 28.476 71.4618 28.7627 71.5027 28.9538H75.0381C75.0331 28.8278 75.015 28.6738 74.9846 28.5099C74.9326 28.2298 74.8447 27.9203 74.7241 27.6707C73.8778 25.9507 71.9122 24.927 68.568 24.927C65.6605 24.927 63.7085 25.8142 62.6302 27.152C61.9204 28.0665 61.5928 29.2131 61.5928 30.4962C61.5928 31.9158 61.975 33.1307 62.6029 33.936Z" fill="#797E88"/>
<path d="M65.7632 30.5234C65.7632 29.6327 65.9453 29.1176 66.2125 28.8099C66.6144 28.3576 67.3477 28.1008 68.6363 28.1008C69.7821 28.1008 70.4677 28.3686 70.7294 28.6023L70.7351 28.6073L70.7409 28.6122C70.8309 28.6872 70.9132 28.7796 70.9754 28.8697C71.0369 28.9587 71.0615 29.0205 71.0676 29.0421H67.5645V32.2368H71.1304C71.0027 32.3811 70.7286 32.5612 70.2931 32.7059C69.8596 32.8499 69.3033 32.946 68.6636 32.946C67.3148 32.946 66.5562 32.5969 66.1823 32.1675C65.9379 31.8471 65.7632 31.3557 65.7632 30.5234Z" fill="#797E88"/>
<path d="M84.4071 29.0662L83.3901 31.0078H85.3679L84.4071 29.0662Z" fill="#797E88"/>
<path fill-rule="evenodd" clip-rule="evenodd" d="M87.2428 33.8539L88.1848 35.8332H92.1298L86.7238 25.1179H82.3151L76.5957 35.8332H80.4587L81.4551 33.8539H87.2428ZM82.6563 31.4515L84.0077 28.8717L84.4172 27.8889L84.7994 28.858L86.0828 31.4515H82.6563Z" fill="#797E88"/>
<path fill-rule="evenodd" clip-rule="evenodd" d="M115.726 54.3872H115.72C115.644 54.3872 115.568 54.3868 115.492 54.386V54.3872H31.9999C24.6323 54.3872 18.0604 50.9803 13.7737 45.6561H26.0751V44.0969H12.6211C10.614 41.1329 9.26909 37.684 8.79869 33.9625H26.0751V32.4034H8.65419C8.62669 31.9391 8.61279 31.4712 8.61279 31.0001C8.61279 27.9135 9.21069 24.9667 10.2971 22.2689H26.0751V20.7098H10.9925C12.6453 17.342 15.084 14.4298 18.0697 12.2125H101.795C102.839 11.4373 103.95 10.747 105.117 10.1518C104.802 10.3122 104.492 10.4794 104.186 10.6533H20.4604C23.8653 8.71814 27.8035 7.61304 31.9998 7.61304H115.492V7.61414C115.57 7.61337 115.648 7.61304 115.726 7.61304C128.642 7.61304 139.113 18.0837 139.113 31.0001C139.113 43.9164 128.642 54.3872 115.726 54.3872ZM124.422 41.9689C125.469 38.8143 126.094 35.0674 126.094 31.0001C126.094 27.2084 125.55 23.6951 124.629 20.6805C124.516 20.3124 124.398 19.9518 124.275 19.599C124.069 19.0114 123.848 18.4456 123.614 17.9034C123.298 17.1712 122.958 16.482 122.597 15.8404C120.891 12.8131 118.945 11.1827 117.129 10.6338V17.9034H121.905C122.309 18.7655 122.678 19.7042 123.004 20.7098H117.129V29.5968H124.509C124.526 30.0593 124.535 30.5272 124.535 31.0001C124.535 31.473 124.526 31.9409 124.509 32.4033H117.129V41.2904H123.003C122.678 42.296 122.309 43.2347 121.905 44.0968H117.129V51.3665C118.945 50.8177 120.891 49.1872 122.597 46.1598C122.958 45.5182 123.299 44.829 123.614 44.0968C123.905 43.4228 124.175 42.7123 124.422 41.9689ZM127.56 20.7098C128.309 23.4188 128.772 26.4226 128.877 29.5968H136.259C136.042 26.3748 135.083 23.3561 133.553 20.7098H127.56ZM131.602 17.9034H126.643C125.743 15.545 124.607 13.4936 123.295 11.8562C126.555 13.1461 129.406 15.2442 131.602 17.9034ZM114.323 10.6335V17.9034H107.837C108.153 17.1712 108.493 16.482 108.855 15.8404C110.56 12.8126 112.507 11.182 114.323 10.6335ZM108.156 11.8561C106.844 13.4935 105.709 15.5449 104.809 17.9034H99.8489C102.045 15.2441 104.897 13.1459 108.156 11.8561ZM103.891 20.7098H94.9109V22.2689H97.0839C96.0278 24.519 95.3674 26.9914 95.192 29.5968H102.574C102.68 26.4226 103.142 23.4188 103.891 20.7098ZM114.323 20.7098H106.814C106.012 23.342 105.499 26.353 105.383 29.5968H114.323V20.7098ZM128.877 32.4033C128.772 35.5775 128.309 38.5813 127.56 41.2904H133.553C135.083 38.6441 136.042 35.6253 136.259 32.4033H128.877ZM106.814 41.2904C106.012 38.6582 105.499 35.6471 105.383 32.4033H114.323V41.2904H106.814ZM103.891 41.2904C103.142 38.5813 102.68 35.5775 102.574 32.4033H95.192C95.409 35.6253 96.3676 38.6441 97.8983 41.2904H103.891ZM126.643 44.0968C125.743 46.4552 124.607 48.5065 123.296 50.1439C126.555 48.854 129.406 46.7559 131.602 44.0968H126.643ZM107.837 44.0968H114.323V51.3668C112.507 50.8183 110.56 49.1877 108.855 46.1598C108.493 45.5182 108.153 44.829 107.837 44.0968ZM104.809 44.0968L94.9109 44.0969V45.656H101.277C103.229 47.5806 105.563 49.1181 108.156 50.1441C106.844 48.5067 105.709 46.4553 104.809 44.0968ZM73.7298 17.6751C72.3006 17.6779 71.1312 18.0903 71.1369 19.528V19.8048C71.1312 21.2397 72.3006 21.6549 73.7298 21.6577C75.1562 21.6549 76.3256 21.2397 76.3199 19.8048V19.528C76.3199 18.0931 75.159 17.6751 73.7298 17.6751ZM29.3278 17.7683V21.5645H30.8079V17.7683H29.3278ZM35.2961 19.7794L33.6296 17.7683H31.5931V21.5645H33.0732V19.2456L35.1125 21.5645H36.779V17.7683H35.2961V19.7794ZM40.5328 18.9772V21.5702H39.0528V18.9772H37.2931V17.774H42.2925V18.9772H40.5328ZM42.7897 21.5702H47.2327V20.5957H44.2697V20.1099H47.2327V19.2314H44.2697V18.7456H47.2327V17.774H42.7897V21.5702ZM48.0207 21.5673V17.7711H51.6785C52.4609 17.7627 53.1247 18.4208 53.1134 19.206C53.1134 19.4913 53.0371 19.7511 52.8846 19.9828C52.7349 20.2115 52.5344 20.3867 52.2858 20.5025L53.1134 21.5673H51.5373L50.8227 20.6409H49.5008V21.5673H48.0207ZM57.2768 19.7794L55.6103 17.7683H53.5738V21.5645H55.0539V19.2456L57.0932 21.5645H58.7597V17.7683H57.2768V19.7794ZM60.5392 21.5702H58.8727L60.9092 17.774H62.6689L64.7054 21.5702H63.0389L62.7395 20.9205H60.8386L60.5392 21.5702ZM66.965 21.5702V18.9772H68.7247V17.774H63.7253V18.9772H65.485V21.5702H66.965ZM69.2218 21.5645V17.7683H70.7019V21.5645H69.2218ZM78.7999 17.7683L80.4664 19.7794V17.7683H81.9493V21.5645H80.2828L78.2435 19.2456V21.5645H76.7634V17.7683H78.7999ZM82.0623 21.5702H83.7287L84.0282 20.9205H85.9289L86.2289 21.5702H87.8949L85.8589 17.774H84.0988L82.0623 21.5702ZM88.0109 21.5645V17.7683H89.4909V20.3612H92.4539V21.5645H88.0109ZM33.1628 40.4981C32.4822 40.4981 31.6471 40.5984 31.6471 41.0451C31.6471 41.2915 32.3277 41.3249 33.2087 41.3666L33.2184 41.3671C34.7836 41.4464 36.9749 41.5574 36.9708 42.9616C36.9708 44.565 35.1336 44.945 33.1628 44.945C31.1962 44.9408 29.5636 44.7028 29.3548 42.9616H31.6471C31.8976 43.3959 32.478 43.5086 33.1628 43.5086C33.8434 43.5086 34.6785 43.3959 34.6785 42.9616C34.6785 42.7153 33.9979 42.6777 33.1169 42.636L33.1071 42.6355C31.5419 42.5562 29.3506 42.4452 29.3548 41.0451C29.3548 39.4418 31.192 39.0576 33.1628 39.0576C35.1294 39.0701 36.762 39.2914 36.9708 41.0451H34.6785C34.4279 40.6025 33.8476 40.4981 33.1628 40.4981ZM41.8268 40.9825V44.8155H39.6389V40.9825H37.0376V39.2038H44.4281V40.9825H41.8268ZM42.975 44.8155H45.4385L45.8811 43.8552H48.6912L49.1338 44.8155H51.5973L48.5868 39.2038H45.9855L42.975 44.8155ZM54.779 39.1954L57.2425 42.1683V39.1954H59.4346V44.8072H56.9711L53.9564 41.3792V44.8072H51.7685V39.1954H54.779ZM60.7122 39.2038V44.8155H65.7061C67.2468 44.8364 68.3909 43.5337 68.3783 42.0096C68.3909 40.4773 67.2468 39.1829 65.7061 39.2038H60.7122ZM70.4076 44.8155H67.9441L70.9546 39.2038H73.5559L76.5663 44.8155H74.1028L73.6602 43.8552H70.8502L70.4076 44.8155ZM76.7375 39.1996V44.8114H78.9255V43.4418H80.8796L81.9359 44.8114H84.2658L83.0424 43.2372C83.4099 43.066 83.7063 42.8072 83.9276 42.4689C84.1531 42.1266 84.2658 41.7424 84.2658 41.3207C84.2825 40.1599 83.3013 39.1871 82.1447 39.1996H76.7375ZM84.9464 44.8155V39.2038H89.9399C91.4809 39.1829 92.6249 40.4773 92.6129 42.0096C92.6249 43.5337 91.4809 44.8364 89.9399 44.8155H84.9464ZM45.9043 36.2773H41.5494V32.1627L39.7444 36.2773H36.0509L34.2744 32.1838V36.2773H29.9059V24.6742H35.4188L37.9216 30.4528L40.5471 24.6742H45.9043V36.2773ZM60.1105 36.2773H47.9341V24.6742H60.015V28.2374H52.4255V28.7283H59.7966V32.2232H52.4255V32.7277H60.1105V36.2773ZM75.5775 36.2773H71.7939L71.7304 35.5884C70.7819 36.1271 69.4979 36.4411 67.8444 36.4411C65.4922 36.4411 63.4338 35.7376 62.2521 34.2083C61.5491 33.3062 61.1488 31.9875 61.1488 30.4962C61.1488 29.1375 61.4964 27.8886 62.2794 26.8798L62.2819 26.8765L62.2845 26.8734C63.4739 25.3978 65.5757 24.4831 68.5679 24.4831C71.9878 24.4831 74.1675 25.5341 75.1223 27.4747L75.1231 27.4762L75.1238 27.4777C75.3458 27.9375 75.4659 28.545 75.4815 28.936L75.4858 29.0422H75.5775V36.2773ZM81.7287 34.298L80.7323 36.2773H75.8557L82.0489 24.6742H86.9979L92.8509 36.2773H87.9039L86.9629 34.298H81.7287ZM29.2714 50.5673H92.8059V49.0081H29.2714V50.5673Z" fill="#797E88"/>
<path fill-rule="evenodd" clip-rule="evenodd" d="M32 2H115.726C131.742 2 144.726 14.9837 144.726 31C144.726 47.0163 131.742 60 115.726 60H32C15.9837 60 3 47.0163 3 31C3 14.9837 15.9837 2 32 2ZM32 4.8065C17.5337 4.8065 5.8065 16.5337 5.8065 31C5.8065 45.4663 17.5337 57.1936 32 57.1936H115.726C130.192 57.1936 141.919 45.4663 141.919 31C141.919 16.5337 130.192 4.8065 115.726 4.8065H32Z" fill="#797E88"/>
</svg>
