<svg width="121" height="62" viewBox="0 0 121 62" fill="none" xmlns="http://www.w3.org/2000/svg">
<path d="M3.12805 35.8828H6.55588V52.7695H3.12805V35.8828Z" fill="#797E88"/>
<path d="M8.54404 46.9837C8.54177 45.7709 8.8977 44.5845 9.56677 43.5748C10.2358 42.5652 11.188 41.7777 12.3027 41.312C13.4173 40.8462 14.6445 40.7232 15.8289 40.9584C17.0132 41.1937 18.1015 41.7766 18.9559 42.6335C19.8104 43.4903 20.3926 44.5826 20.6289 45.7721C20.8654 46.9615 20.7452 48.1947 20.2837 49.3156C19.8222 50.4363 19.0402 51.3944 18.0365 52.0685C17.0329 52.7427 15.8528 53.1024 14.6456 53.1024C13.8427 53.1117 13.0461 52.9598 12.3025 52.6556C11.5588 52.3516 10.883 51.9014 10.3148 51.3315C9.74651 50.7617 9.29718 50.0836 8.99312 49.3369C8.68906 48.5904 8.53638 47.7904 8.54404 46.9837ZM17.2964 46.9837C17.2829 46.4601 17.1161 45.9521 16.8167 45.5233C16.5174 45.0944 16.0988 44.7639 15.6134 44.5728C15.1279 44.3817 14.5972 44.3388 14.0877 44.4492C13.578 44.5595 13.1122 44.8185 12.7482 45.1935C12.3844 45.5686 12.1386 46.0432 12.0417 46.5579C11.9449 47.0725 12.0012 47.6045 12.2037 48.0871C12.4063 48.5697 12.7459 48.9817 13.1802 49.2714C13.6146 49.5611 14.1242 49.7158 14.6456 49.7159C15.0022 49.726 15.3571 49.6617 15.6878 49.527C16.0185 49.3923 16.3178 49.1902 16.567 48.9335C16.816 48.6767 17.0095 48.371 17.135 48.0354C17.2606 47.6998 17.3155 47.3418 17.2964 46.9837Z" fill="#797E88"/>
<path d="M34.5268 41.1978V52.1954C34.5268 56.087 31.4989 57.7287 28.4368 57.7287C27.36 57.8092 26.2819 57.5904 25.3206 57.0963C24.3592 56.6022 23.5518 55.8519 22.9866 54.9276L25.9345 53.2172C26.1684 53.6908 26.5385 54.0831 26.9969 54.343C27.4552 54.6029 27.9807 54.7187 28.5054 54.675C28.8505 54.7329 29.2043 54.7103 29.5395 54.6089C29.8746 54.5076 30.1821 54.3304 30.4383 54.0908C30.6943 53.8511 30.8922 53.5556 31.0168 53.227C31.1413 52.8984 31.1889 52.5455 31.1561 52.1954V51.1278C30.7532 51.626 30.239 52.0217 29.6554 52.2829C29.0718 52.5442 28.4351 52.6637 27.7969 52.6317C26.2454 52.6317 24.7574 52.0124 23.6602 50.9102C22.5631 49.8079 21.9467 48.3128 21.9467 46.754C21.9467 45.1951 22.5631 43.7002 23.6602 42.5979C24.7574 41.4956 26.2454 40.8764 27.7969 40.8764C28.4347 40.8471 29.0705 40.9678 29.6537 41.2288C30.2369 41.4899 30.7514 41.8842 31.1561 42.3802V41.2322L34.5268 41.1978ZM31.1561 46.754C31.179 46.1957 31.035 45.6433 30.7429 45.1677C30.4507 44.6923 30.0237 44.3154 29.5167 44.0858C29.0097 43.856 28.4459 43.7839 27.8977 43.8788C27.3496 43.9735 26.8423 44.2308 26.4409 44.6175C26.0394 45.0044 25.7623 45.5029 25.6452 46.0491C25.528 46.5953 25.5761 47.1644 25.7834 47.6829C25.9907 48.2015 26.3475 48.6458 26.8081 48.959C27.2688 49.2723 27.8121 49.4398 28.3682 49.4403C28.7313 49.466 29.0956 49.4152 29.4378 49.2909C29.7801 49.1665 30.0927 48.9716 30.3554 48.7185C30.6179 48.4654 30.825 48.1598 30.9629 47.8215C31.1008 47.4831 31.1667 47.1195 31.1561 46.754Z" fill="#797E88"/>
<path d="M36.5036 46.9837C36.5013 45.7709 36.8573 44.5845 37.5263 43.5748C38.1955 42.5652 39.1476 41.7777 40.2623 41.312C41.3769 40.8462 42.6041 40.7232 43.7884 40.9584C44.9728 41.1937 46.0611 41.7766 46.9156 42.6335C47.7699 43.4903 48.3522 44.5826 48.5886 45.7721C48.8249 46.9615 48.7048 48.1947 48.2433 49.3156C47.7818 50.4363 46.9998 51.3944 45.9962 52.0685C44.9925 52.7427 43.8124 53.1024 42.6052 53.1024C41.8023 53.1117 41.0057 52.9598 40.262 52.6556C39.5184 52.3516 38.8426 51.9014 38.2744 51.3315C37.7061 50.7617 37.2567 50.0836 36.9527 49.3369C36.6486 48.5904 36.4959 47.7904 36.5036 46.9837ZM45.2561 46.9837C45.2425 46.4601 45.0756 45.9521 44.7763 45.5233C44.4769 45.0944 44.0584 44.7639 43.5729 44.5728C43.0876 44.3817 42.5569 44.3388 42.0473 44.4492C41.5376 44.5595 41.0717 44.8185 40.7078 45.1935C40.3439 45.5686 40.0982 46.0432 40.0013 46.5579C39.9045 47.0725 39.9608 47.6045 40.1633 48.0871C40.3658 48.5697 40.7055 48.9817 41.1398 49.2714C41.5741 49.5611 42.0838 49.7158 42.6052 49.7159C42.96 49.7227 43.3123 49.6561 43.6403 49.5199C43.9682 49.3838 44.2648 49.1812 44.5114 48.9248C44.758 48.6686 44.9493 48.3638 45.0736 48.0298C45.1977 47.6959 45.2521 47.3397 45.2332 46.9837H45.2561Z" fill="#797E88"/>
<path d="M50.295 38.0983C50.295 37.6851 50.417 37.2812 50.6454 36.9376C50.874 36.594 51.1987 36.3262 51.5787 36.1681C51.9587 36.0099 52.3768 35.9686 52.7802 36.0492C53.1836 36.1298 53.5541 36.3288 53.845 36.6209C54.1359 36.9132 54.3338 37.2854 54.4141 37.6907C54.4944 38.096 54.4531 38.5162 54.2958 38.8979C54.1384 39.2796 53.8719 39.606 53.5299 39.8356C53.1879 40.0651 52.7859 40.1876 52.3745 40.1876C51.8239 40.1847 51.2967 39.9636 50.9074 39.5724C50.518 39.1813 50.298 38.6516 50.295 38.0983ZM50.6491 41.1979H54.077V52.7695H50.6491V41.1979Z" fill="#797E88"/>
<path d="M69.0221 46.9836C69.0637 47.7485 68.9543 48.5142 68.7002 49.2364C68.4459 49.9586 68.0522 50.6233 67.5414 51.192C67.0305 51.7607 66.4128 52.2223 65.7237 52.5501C65.0346 52.878 64.2878 53.0657 63.5262 53.1024C62.8868 53.1332 62.2485 53.0228 61.6563 52.7788C61.064 52.5348 60.5322 52.1633 60.0984 51.6904V57.4303H56.6706V41.1978H60.0984V42.2884C60.5322 41.8155 61.064 41.444 61.6563 41.2C62.2485 40.956 62.8868 40.8456 63.5262 40.8764C64.2868 40.9131 65.0327 41.1004 65.7209 41.4276C66.4093 41.7548 67.0265 42.2153 67.5371 42.7828C68.0479 43.3503 68.4418 44.0135 68.6967 44.7344C68.9516 45.4553 69.0622 46.2197 69.0221 46.9836ZM65.5943 46.9836C65.5808 46.4448 65.4102 45.9218 65.1037 45.4794C64.7972 45.0372 64.3684 44.6947 63.8702 44.4949C63.3721 44.2949 62.8263 44.2461 62.301 44.3547C61.7755 44.4631 61.2932 44.7241 60.9138 45.1053C60.5345 45.4864 60.2748 45.9708 60.1668 46.4988C60.0588 47.0268 60.1074 47.5749 60.3063 48.0754C60.5053 48.5759 60.8461 49.0069 61.2864 49.3147C61.7267 49.6226 62.2472 49.794 62.7835 49.8077C63.1578 49.8316 63.5327 49.7747 63.8834 49.641C64.2339 49.5071 64.5519 49.2995 64.8161 49.0321C65.0801 48.7645 65.2842 48.4433 65.4145 48.09C65.5447 47.7367 65.5983 47.3595 65.5715 46.9836H65.5943Z" fill="#797E88"/>
<path d="M79.6942 49.3026C79.6942 51.9659 77.409 53.1023 74.8953 53.1023C73.8911 53.1917 72.8833 52.977 72.0015 52.486C71.1199 51.995 70.4046 51.2501 69.9478 50.3472L72.9415 48.6367C73.063 49.0543 73.3231 49.4176 73.6785 49.6661C74.034 49.9146 74.4633 50.0334 74.8953 50.0028C75.7294 50.0028 76.1407 49.7388 76.1407 49.2796C76.1407 48.0053 70.4277 48.6827 70.4277 44.6877C70.4277 42.1621 72.5529 40.8878 74.9981 40.8878C75.9004 40.8604 76.7936 41.0757 77.5852 41.5117C78.3768 41.9477 79.0378 42.5885 79.5 43.3675L76.495 44.9518C76.3623 44.6486 76.1447 44.3906 75.8688 44.2092C75.5929 44.0278 75.2707 43.9308 74.941 43.93C74.3469 43.93 73.9812 44.1596 73.9812 44.5844C74.027 45.9045 79.6942 45.0206 79.6942 49.3026Z" fill="#797E88"/>
<path d="M92.3086 41.198V52.7696H88.8807V51.6906C88.482 52.1701 87.976 52.5479 87.404 52.7933C86.8321 53.0388 86.2104 53.1447 85.5899 53.1026C83.3047 53.1026 81.2823 51.438 81.2823 48.304V41.198H84.7102V47.7989C84.68 48.0802 84.7127 48.3647 84.8056 48.6318C84.8986 48.8989 85.0494 49.1418 85.2475 49.343C85.4455 49.5442 85.6857 49.6984 85.9504 49.7947C86.2152 49.8911 86.4981 49.9269 86.7783 49.8998C88.0352 49.8998 88.915 49.165 88.915 47.5235V41.198H92.3086Z" fill="#797E88"/>
<path d="M112.121 45.675V52.7695H108.693V45.9735C108.693 44.8256 108.134 44.0678 107.037 44.0678C105.94 44.0678 105.231 44.883 105.231 46.249V52.7695H101.804V45.9735C101.804 44.8256 101.255 44.0678 100.147 44.0678C99.0385 44.0678 98.3529 44.883 98.3529 46.249V52.7695H94.9251V41.198H98.3529V42.2656C98.7112 41.794 99.181 41.42 99.7199 41.1774C100.259 40.9348 100.849 40.8313 101.438 40.8765C102.029 40.8476 102.618 40.9732 103.146 41.2406C103.675 41.5082 104.126 41.9088 104.454 42.4033C104.837 41.8863 105.343 41.475 105.927 41.2081C106.51 40.9411 107.152 40.8269 107.791 40.8765C110.396 40.8765 112.121 42.7821 112.121 45.675Z" fill="#797E88"/>
<path d="M115.047 41.129C116.46 41.129 117.606 39.9777 117.606 38.5575C117.606 37.1373 116.46 35.9861 115.047 35.9861C113.633 35.9861 112.487 37.1373 112.487 38.5575C112.487 39.9777 113.633 41.129 115.047 41.129Z" fill="#797E88"/>
<path d="M41.9196 27.1237C48.5393 27.1237 53.9055 21.7321 53.9055 15.0813C53.9055 8.43058 48.5393 3.03906 41.9196 3.03906C35.2999 3.03906 29.9336 8.43058 29.9336 15.0813C29.9336 21.7321 35.2999 27.1237 41.9196 27.1237Z" fill="#797E88"/>
<path d="M68.7137 27.1237C75.3334 27.1237 80.6996 21.7321 80.6996 15.0813C80.6996 8.43058 75.3334 3.03906 68.7137 3.03906C62.0941 3.03906 56.7277 8.43058 56.7277 15.0813C56.7277 21.7321 62.0941 27.1237 68.7137 27.1237Z" fill="#797E88"/>
<path d="M27.1114 3.03906H3.15094V27.1121H27.1114V3.03906Z" fill="#797E88"/>
</svg>
