<svg width="76" height="62" viewBox="0 0 76 62" fill="none" xmlns="http://www.w3.org/2000/svg">
<path d="M25.2093 21.3083C25.2093 21.1508 25.2093 18.8596 25.2093 18.8596H23.8561C23.8561 18.8596 23.8561 21.1153 23.8561 21.1865C23.8561 21.603 23.4724 21.8824 22.8261 21.8824C22.1495 21.8824 21.7809 21.6131 21.7809 21.1813C21.7809 21.1102 21.7809 18.8596 21.7809 18.8596H20.4125C20.4125 18.8596 20.4125 20.9984 20.4125 21.1813C20.4125 22.3904 21.3971 22.9036 22.7705 22.9036C24.2399 22.9036 25.2093 22.3854 25.2093 21.3083Z" fill="#797E88"/>
<path d="M29.7666 22.8477V21.7859H27.3531V18.8596H25.9847V22.8477H29.7666Z" fill="#797E88"/>
<path d="M33.8334 19.8605V18.8596H29.1021V19.8605H30.7734V22.8477H32.1569V19.8605H33.8334Z" fill="#797E88"/>
<path d="M35.6525 22.8477V18.8596H34.264V22.8477H35.6525Z" fill="#797E88"/>
<path d="M42.0231 22.8477V18.8596H40.3113L39.2308 21.2525L38.2008 18.8596H36.4335V22.8477H37.7211V20.6937L38.6501 22.8477H39.8014L40.7405 20.6937V22.8477H42.0231Z" fill="#797E88"/>
<path d="M44.1677 22.111H46.3086L46.6571 22.8477H48.1163L46.1168 18.8596H44.4859L42.3702 22.8477H43.7991L44.1677 22.111ZM45.8795 21.2169H44.6121L45.112 20.2567L45.2634 19.891L45.4049 20.2516L45.8795 21.2169Z" fill="#797E88"/>
<path d="M52.4082 19.8605V18.8596H47.6772V19.8605H49.3484V22.8477H50.732V19.8605H52.4082Z" fill="#797E88"/>
<path d="M57.0092 22.8477V21.857H54.1675V21.3388H56.8932V20.3685H54.1675V19.8553H56.9743V18.8596H52.8344V22.8477H57.0092Z" fill="#797E88"/>
<path d="M30.7319 24.9678H29.4241C29.4241 24.9678 28.5708 27.4774 28.5708 27.5384C28.5708 27.4774 27.773 24.9678 27.773 24.9678H26.3541C26.3541 24.9678 25.5614 27.4774 25.5614 27.5384C25.5614 27.4774 24.703 24.9678 24.703 24.9678H23.2336L24.7182 28.9558H26.1976C26.1976 28.9558 26.9954 26.5732 27.0004 26.5071C27.0055 26.5732 27.7982 28.9558 27.7982 28.9558H29.2827L30.7319 24.9678Z" fill="#797E88"/>
<path d="M32.5213 28.9558V24.9678H31.1328V28.9558H32.5213Z" fill="#797E88"/>
<path d="M37.9225 28.9558V24.9678H36.6298V27.1371L34.7263 24.9678H33.3023V28.9558H34.6051V26.7357L36.5693 28.9558H37.9225Z" fill="#797E88"/>
<path d="M43.3317 28.9558V24.9678H42.0391V27.1371L40.1355 24.9678H38.7116V28.9558H40.0143V26.7357L41.9785 28.9558H43.3317Z" fill="#797E88"/>
<path d="M48.2967 28.9558V27.9652H45.454V27.4469H48.1805V26.4766H45.454V25.9635H48.2613V24.9678H44.1209V28.9558H48.2967Z" fill="#797E88"/>
<path d="M53.6344 26.1819C53.6344 25.8213 53.5482 25.5621 53.3664 25.3742C53.1291 25.1202 52.7204 24.9678 52.0939 24.9678H48.9385V28.9558H50.2866V27.5486H51.5136L52.4985 28.9558H54.0031L52.8066 27.3301C53.0737 27.2895 53.2914 27.1269 53.4321 26.9339C53.5584 26.7561 53.6344 26.4918 53.6344 26.1819ZM52.3219 26.3089C52.3219 26.3751 52.3116 26.4563 52.2757 26.5173C52.2254 26.6188 52.0939 26.6595 51.8772 26.6595H50.2917V25.933H51.8515C52.0641 25.933 52.2058 25.9686 52.2757 26.1007C52.3116 26.1515 52.3219 26.2328 52.3219 26.3089Z" fill="#797E88"/>
<path d="M25.7786 32.8794C25.7786 32.8142 25.7786 30.9307 25.7786 30.9307H25.3058C25.3058 30.9307 25.3058 32.8065 25.3058 32.8487C25.3058 33.3013 24.8826 33.5584 24.2726 33.5584C23.552 33.5584 23.1974 33.2822 23.1974 32.8449C23.1974 32.8026 23.1974 30.9307 23.1974 30.9307H22.7208C22.7208 30.9307 22.7208 32.7567 22.7208 32.8295C22.7208 33.6275 23.3385 33.9803 24.2536 33.9803C25.199 33.9803 25.7786 33.6044 25.7786 32.8794Z" fill="#797E88"/>
<path d="M29.1708 33.942V33.5009H27.1081V30.9307H26.6315V33.942H29.1708Z" fill="#797E88"/>
<path d="M31.8788 31.368V30.9307H28.6989V31.368H30.0487V33.942H30.5291V31.368H31.8788Z" fill="#797E88"/>
<path d="M35.2676 31.7822C35.2676 31.5674 35.2218 31.4101 35.1418 31.2835C35.0007 31.0725 34.7299 30.9307 34.2801 30.9307H32.3432V33.942H32.8122V32.6722H34.1771L35.0121 33.942H35.5611L34.6575 32.5916C34.8863 32.5649 35.0655 32.4344 35.1608 32.2656C35.2295 32.1505 35.2676 31.9818 35.2676 31.7822ZM34.7948 31.8206C34.7948 31.905 34.7758 32.0086 34.7415 32.0777C34.6804 32.1889 34.5393 32.2464 34.3106 32.2502H32.816C32.816 32.2426 32.816 31.3603 32.816 31.3603H34.2229C34.5088 31.3603 34.6613 31.4293 34.7415 31.5598C34.7758 31.6211 34.7948 31.7247 34.7948 31.8206Z" fill="#797E88"/>
<path d="M36.6244 33.1978H38.4889L38.8701 33.942H39.381L37.8635 30.9307H37.3031L35.736 33.942H36.2355L36.6244 33.1978ZM38.2905 32.772H36.8303L37.4365 31.6173L37.57 31.3373L37.7034 31.6173L38.2905 32.772Z" fill="#797E88"/>
<path d="M44.2166 33.6543C44.3348 33.5162 44.3882 33.3206 44.3882 33.1096C44.3882 32.9101 44.331 32.7106 44.2128 32.5878C44.0946 32.4728 43.904 32.3769 43.6942 32.3577C43.8163 32.3385 43.9116 32.2618 43.9764 32.1812C44.0794 32.0623 44.1403 31.8705 44.1403 31.6787C44.1403 31.4753 44.0794 31.2912 43.9497 31.1646C43.8087 31.0227 43.5684 30.9307 43.2329 30.9307H41.2197V33.942H43.3816C43.7858 33.942 44.0679 33.8385 44.2166 33.6543ZM43.6484 31.7746C43.6484 31.9088 43.6065 32.0278 43.5341 32.0968C43.4616 32.1774 43.3396 32.2119 43.21 32.2119H41.6849V31.3449H43.1223C43.2977 31.3449 43.4311 31.3794 43.5226 31.4639C43.6027 31.5405 43.6484 31.6518 43.6484 31.7746ZM43.801 33.3627C43.7056 33.4702 43.5417 33.5239 43.3015 33.5239H41.6849V32.6301H43.313C43.5341 32.6301 43.6866 32.6761 43.7782 32.7643C43.862 32.8449 43.8964 32.9485 43.8964 33.0674C43.8964 33.1901 43.8697 33.2937 43.801 33.3627Z" fill="#797E88"/>
<path d="M47.8495 33.942V33.5009H45.5238V32.6416H47.758V32.2042H45.5238V31.368H47.8228V30.9307H45.0586V33.942H47.8495Z" fill="#797E88"/>
<path d="M51.5742 33.0518C51.5742 32.5608 51.2507 32.3076 50.4537 32.2155C50.3199 32.1964 50.0301 32.1657 49.8738 32.1465C49.1341 32.0583 48.9092 31.9585 48.9092 31.7016C48.9092 31.4522 49.157 31.3102 49.9043 31.3102C50.4835 31.3102 50.7814 31.4253 50.9303 31.6324C50.9724 31.69 50.995 31.7591 51.0063 31.8127H51.5167C51.5023 31.7245 51.4674 31.6017 51.414 31.502C51.2086 31.1453 50.7855 30.8882 49.9043 30.8882C48.852 30.8844 48.4173 31.2681 48.4173 31.7437C48.4173 32.2194 48.7567 32.461 49.6374 32.5647C49.79 32.5838 50.0606 32.6145 50.1941 32.6299C50.8769 32.7142 51.0905 32.8179 51.0905 33.1055C51.0905 33.3703 50.8461 33.5621 50.0644 33.5621C49.4239 33.5621 49.0807 33.447 48.9435 33.2245C48.9016 33.1631 48.8749 33.0672 48.8711 33.002H48.3677C48.3792 33.1401 48.4173 33.2897 48.4859 33.4086C48.6843 33.7731 49.1494 33.9841 50.0492 33.9841C51.1244 33.9841 51.5742 33.6349 51.5742 33.0518Z" fill="#797E88"/>
<path d="M54.9932 31.368V30.9307H51.8135V31.368H53.163V33.942H53.6437V31.368H54.9932Z" fill="#797E88"/>
<path d="M21.3712 36.5593C21.3712 36.2524 21.3102 36.0452 21.2072 35.888C21.0624 35.6616 20.7801 35.5427 20.2883 35.5427H18.3972V38.5541H18.87V37.572C18.87 37.572 20.2045 37.572 20.2693 37.572C20.7306 37.5682 21.0471 37.4608 21.2149 37.2153C21.3216 37.0657 21.3712 36.8508 21.3712 36.5593ZM20.8908 36.5593C20.8908 36.7127 20.8755 36.8278 20.826 36.9046C20.7382 37.0464 20.559 37.1347 20.1892 37.1347C20.1549 37.1347 18.87 37.1347 18.87 37.1347V35.9724H20.2045C20.5514 35.9724 20.7306 36.0529 20.826 36.2102C20.8717 36.2792 20.8908 36.4059 20.8908 36.5593Z" fill="#797E88"/>
<path d="M24.8222 38.5541V38.1129H22.4964V37.2536H24.7307V36.8163H22.4964V35.98H24.7955V35.5427H22.0313V38.5541H24.8222Z" fill="#797E88"/>
<path d="M28.4593 36.3943C28.4593 36.1795 28.4136 36.0222 28.3335 35.8956C28.1924 35.6846 27.9218 35.5427 27.4718 35.5427H25.535V38.5541H26.0039V37.2843H27.3689L28.2039 38.5541H28.753L27.8493 37.2037C28.0781 37.1769 28.2573 37.0464 28.3526 36.8777C28.4212 36.7626 28.4593 36.5938 28.4593 36.3943ZM27.9866 36.4326C27.9866 36.5171 27.9675 36.6207 27.9332 36.6897C27.8722 36.8009 27.7311 36.8585 27.5023 36.8623H26.0077C26.0077 36.8546 26.0077 35.9724 26.0077 35.9724H27.4146C27.7006 35.9724 27.8531 36.0414 27.9332 36.1718C27.9675 36.2332 27.9866 36.3367 27.9866 36.4326Z" fill="#797E88"/>
<path d="M31.9942 35.98V35.5427H29.3328V38.5541H29.8056V37.2728H31.895V36.824H29.8056V35.98H31.9942Z" fill="#797E88"/>
<path d="M34.1642 35.489C33.5274 35.489 33.089 35.6463 32.7762 35.9762C32.5132 36.2332 32.3988 36.59 32.3988 37.0388C32.3988 37.5298 32.5475 37.8981 32.822 38.1475C33.1157 38.4429 33.5655 38.5962 34.1642 38.5962C34.7818 38.5962 35.2622 38.4429 35.5482 38.1321C35.796 37.8789 35.9256 37.5184 35.9256 37.035C35.9256 36.567 35.815 36.2102 35.552 35.957C35.2508 35.6425 34.8008 35.489 34.1642 35.489ZM34.1642 38.1667C33.7447 38.1667 33.4473 38.0746 33.2224 37.8905C32.9937 37.7025 32.883 37.4147 32.883 37.0465C32.883 36.7012 32.9784 36.4135 33.1614 36.2409C33.3711 36.0414 33.6913 35.9225 34.1604 35.9225C34.6445 35.9225 34.9457 36.0376 35.1706 36.237C35.3614 36.4059 35.4452 36.705 35.4452 37.0426C35.4452 37.384 35.3576 37.6757 35.163 37.852C34.9381 38.063 34.6217 38.1667 34.1642 38.1667Z" fill="#797E88"/>
<path d="M39.503 36.3943C39.503 36.1795 39.4571 36.0222 39.3771 35.8956C39.236 35.6846 38.9653 35.5427 38.5155 35.5427H36.5786V38.5541H37.0475V37.2843H38.4125L39.2475 38.5541H39.7965L38.8929 37.2037C39.1216 37.1769 39.3008 37.0464 39.3961 36.8777C39.4648 36.7626 39.503 36.5938 39.503 36.3943ZM39.0301 36.4326C39.0301 36.5171 39.0111 36.6207 38.9768 36.6897C38.9158 36.8009 38.7747 36.8585 38.546 36.8623H37.0513C37.0513 36.8546 37.0513 35.9724 37.0513 35.9724H38.4583C38.7442 35.9724 38.8967 36.0414 38.9768 36.1718C39.0111 36.2332 39.0301 36.3367 39.0301 36.4326Z" fill="#797E88"/>
<path d="M44.0634 38.5541V35.5427H43.4457L42.2142 38.0209L41.0055 35.5427H40.3764V38.5541H40.8302V36.237L41.9587 38.5541H42.4543L43.6096 36.237V38.5541H44.0634Z" fill="#797E88"/>
<path d="M45.4023 37.8099H47.2668L47.648 38.5541H48.1589L46.6414 35.5427H46.081L44.5139 38.5541H45.0134L45.4023 37.8099ZM47.0684 37.384H45.6082L46.2144 36.2294L46.3479 35.9493L46.4813 36.2294L47.0684 37.384Z" fill="#797E88"/>
<path d="M51.5937 38.5541V35.5427H51.1398V37.8827L49.1576 35.5427H48.62V38.5541H49.0813V36.1987L51.0792 38.5541H51.5937Z" fill="#797E88"/>
<path d="M55.707 37.4301H55.2109C55.1955 37.5682 55.1421 37.7063 55.0466 37.8099C54.8412 38.0516 54.5136 38.1551 54.0103 38.1551C53.5872 38.1551 53.1332 38.0362 52.9155 37.7255C52.8015 37.5798 52.7286 37.3649 52.7286 37.0426C52.7286 36.7549 52.7789 36.5401 52.8888 36.3943C53.0716 36.099 53.4568 35.9455 53.999 35.9455C54.5249 35.9455 54.8566 36.0912 55.0322 36.2946C55.1308 36.402 55.1883 36.5286 55.2068 36.6782H55.7029C55.6875 36.5094 55.6341 36.3099 55.5201 36.1412C55.2756 35.7767 54.8258 35.489 54.0021 35.489C53.2175 35.489 52.7481 35.7422 52.4883 36.1219C52.3209 36.3406 52.2366 36.6475 52.2366 37.0388C52.2366 37.4761 52.3404 37.7984 52.5191 38.0247C52.7789 38.3815 53.2781 38.5962 54.0329 38.5962C54.8073 38.5962 55.2684 38.3623 55.4975 37.9902C55.6269 37.8099 55.6916 37.595 55.707 37.4301Z" fill="#797E88"/>
<path d="M59.1188 38.5541V38.1129H56.7925V37.2536H59.0274V36.8163H56.7925V35.98H59.0921V35.5427H56.3273V38.5541H59.1188Z" fill="#797E88"/>
<path d="M24.25 41.5457L24.8202 43.3114H26.6654L25.1726 44.4027L25.7428 46.1684L24.25 45.0772L22.7571 46.1684L23.3274 44.4027L21.8345 43.3114H23.6797L24.25 41.5457Z" fill="#797E88"/>
<path d="M30.8328 41.5457L31.4146 43.3113H33.2975L31.7743 44.4026L32.3561 46.1684L30.8328 45.0771L29.3095 46.1684L29.8913 44.4026L28.368 43.3113H30.251L30.8328 41.5457Z" fill="#797E88"/>
<path d="M37.3635 41.5457L37.9455 43.3113H39.8283L38.305 44.4026L38.8869 46.1684L37.3635 45.0771L35.8403 46.1684L36.4221 44.4026L34.8988 43.3113H36.7817L37.3635 41.5457Z" fill="#797E88"/>
<path d="M43.8945 41.5457L44.4763 43.3113H46.3593L44.836 44.4026L45.4178 46.1684L43.8945 45.0771L42.3712 46.1684L42.953 44.4026L41.4298 43.3113H43.3127L43.8945 41.5457Z" fill="#797E88"/>
<path d="M50.4774 41.5457L51.0474 43.3113H52.8929L51.3996 44.4026L51.9696 46.1684L50.4774 45.0771L48.9844 46.1684L49.5547 44.4026L48.0618 43.3113H49.907L50.4774 41.5457Z" fill="#797E88"/>
<path d="M27.4483 11.7554L27.8795 13.0904H29.2747L28.146 13.9156L28.5771 15.2505L27.4483 14.4255L26.3196 15.2505L26.7508 13.9156L25.6221 13.0904H27.0173L27.4483 11.7554Z" fill="#797E88"/>
<path d="M32.4256 11.7537L32.8656 13.0887H34.2891L33.1374 13.9138L33.5773 15.2488L32.4256 14.4237L31.2738 15.2488L31.7138 13.9138L30.562 13.0887H31.9856L32.4256 11.7537Z" fill="#797E88"/>
<path d="M37.3634 11.7537L37.8032 13.0887H39.2269L38.0752 13.9138L38.5151 15.2488L37.3634 14.4237L36.2115 15.2488L36.6515 13.9138L35.4997 13.0887H36.9234L37.3634 11.7537Z" fill="#797E88"/>
<path d="M42.3018 11.7537L42.7417 13.0887H44.1653L43.0136 13.9138L43.4535 15.2488L42.3018 14.4237L41.15 15.2488L41.59 13.9138L40.4382 13.0887H41.8618L42.3018 11.7537Z" fill="#797E88"/>
<path d="M47.2783 11.7537L47.7094 13.0887H49.1046L47.9759 13.9138L48.4071 15.2488L47.2783 14.4237L46.1496 15.2488L46.5807 13.9138L45.452 13.0887H46.8471L47.2783 11.7537Z" fill="#797E88"/>
<path fill-rule="evenodd" clip-rule="evenodd" d="M7.57576 35.7847C5.67309 23.8075 11.226 11.9574 22.3427 6.86865L22.4453 7.09557C11.4405 12.1331 5.93344 23.8672 7.8204 35.7454C9.90804 48.8866 20.4447 56.7678 33.3478 57.1478L33.3405 57.397C20.3369 57.014 9.68486 49.0615 7.57576 35.7847Z" fill="#797E88"/>
<path d="M19.9323 9.92527C17.878 9.97239 15.4736 11.138 14.0549 12.831C15.1926 13.894 17.0232 13.501 18.3405 13.2836C20.2207 12.9734 22.2201 12.3724 23.9943 11.5217C23.2648 9.95927 21.2997 9.89396 19.9323 9.92527Z" fill="#797E88"/>
<path d="M18.3167 7.37552C17.0999 9.28264 15.6497 11.1781 14.0716 12.8472C12.7513 11.6002 13.5482 9.52495 14.0871 8.23442C15.0633 5.89599 17.4038 3.87944 19.8507 2.84766C20.5223 4.38495 19.0636 6.20496 18.3167 7.37552Z" fill="#797E88"/>
<path d="M13.9875 15.2733C12.0639 15.9613 10.4109 17.8979 9.58093 19.8423C10.9641 20.4893 12.5366 19.5549 13.687 18.9327C15.2665 18.0784 16.8781 16.8995 18.146 15.5353C17.0004 14.3191 15.2608 14.818 13.9875 15.2733Z" fill="#797E88"/>
<path d="M11.6557 13.3677C11.2346 15.5429 10.5287 17.7974 9.60147 19.8523C7.98308 19.0843 8.0447 16.8848 8.11403 15.485C8.23234 13.0958 9.5608 10.3713 11.4104 8.63989C12.5427 9.86129 11.924 11.9821 11.6557 13.3677Z" fill="#797E88"/>
<path d="M10.2862 22.1778C8.68331 23.4501 7.71174 25.8078 7.48672 27.9132C9.00302 28.0884 10.215 26.7 11.1168 25.7475C12.3447 24.4505 13.5069 22.8239 14.2451 21.1221C12.7996 20.3287 11.3303 21.3491 10.2862 22.1778Z" fill="#797E88"/>
<path d="M7.50911 21.1038C7.79493 23.3003 7.79555 25.6767 7.50962 27.9161C5.74622 27.6982 5.16132 25.5679 4.81583 24.2315C4.21933 21.9247 4.61926 18.9449 5.78124 16.7024C7.23335 17.5112 7.3265 19.6998 7.50911 21.1038Z" fill="#797E88"/>
<path d="M9.02829 29.7146C7.75991 31.584 7.31387 34.5136 7.88428 36.8684C9.56039 36.4691 10.3913 34.5598 11.0584 33.2114C11.945 31.4193 12.6945 29.3286 12.9627 27.2773C11.1448 26.8966 9.86377 28.4831 9.02829 29.7146Z" fill="#797E88"/>
<path d="M5.69867 29.5256C6.68687 31.8276 7.45807 34.3612 7.90934 36.8627C5.98706 37.2782 4.60355 35.2473 3.7998 33.9007C2.36884 31.5035 1.95197 28.1805 2.47616 25.3127C4.23556 25.6677 5.09652 28.1234 5.69867 29.5256Z" fill="#797E88"/>
<path d="M9.91554 37.8481C9.23451 40.1159 9.70787 43.1988 11.0868 45.3308C12.602 44.3382 12.8118 42.1535 13.0265 40.5871C13.3097 38.52 13.443 36.2301 13.0912 34.0867C11.1531 34.3356 10.3704 36.3331 9.91554 37.8481Z" fill="#797E88"/>
<path d="M6.5475 38.8188C8.24785 40.7818 9.81633 43.02 11.1099 45.3159C9.3555 46.4179 7.29682 44.9124 6.04827 43.8471C3.83328 41.9572 2.39503 38.7451 2.05405 35.7168C3.89736 35.4676 5.52181 37.6345 6.5475 38.8188Z" fill="#797E88"/>
<path d="M13.4891 45.5667C13.6352 48.2063 15.3433 50.9762 17.6175 52.5527C18.7158 51.0398 18.0274 48.7217 17.6527 47.1036C17.1484 44.9251 16.4503 42.6565 15.4129 40.6436C13.6039 41.6054 13.3928 43.8283 13.4891 45.5667Z" fill="#797E88"/>
<path d="M10.4303 47.7964C12.8942 49.174 15.3511 50.7995 17.6354 52.5292C16.2674 54.3417 13.533 53.6189 11.838 53.0363C8.85102 52.0097 6.18804 49.3034 4.79714 46.2967C6.56065 45.3828 8.97478 46.9827 10.4303 47.7964Z" fill="#797E88"/>
<path d="M20.5065 52.0153C21.9854 54.7307 25.3553 56.5021 28.5289 56.9286C28.8704 54.9545 26.7475 52.9999 25.5906 51.7213C23.9436 49.9009 22.2273 48.0117 20.3031 46.4377C18.8615 48.1219 19.6236 50.3941 20.5065 52.0153Z" fill="#797E88"/>
<path d="M18.3946 55.4568C21.7561 55.8084 25.1747 56.3147 28.5343 56.8984C28.2136 59.3891 24.2851 59.7911 22.5017 59.9381C18.8449 60.2397 14.7771 58.7608 11.9446 56.2711C13.3515 54.6055 16.6039 55.2696 18.3946 55.4568Z" fill="#797E88"/>
<path d="M24.8694 4.77824C22.6125 5.42603 19.9707 6.65498 18.6657 8.92356C21.0345 8.66378 23.3627 7.81572 25.6395 7.16957C28.1898 6.44572 30.8752 5.90436 33.3444 4.90523C30.6402 3.81672 27.4525 4.03671 24.8694 4.77824Z" fill="#797E88"/>
<path fill-rule="evenodd" clip-rule="evenodd" d="M68.5315 35.7454C70.4181 23.8672 64.9112 12.1333 53.9066 7.09557L54.0093 6.86865C65.1258 11.9575 70.679 23.8075 68.7759 35.7847C66.6674 49.0615 56.0151 57.014 43.0115 57.397L43.0043 57.1478C55.9072 56.7678 66.4435 48.8866 68.5315 35.7454Z" fill="#797E88"/>
<path d="M56.4197 9.92527C58.4738 9.97239 60.8781 11.138 62.2974 12.831C61.1595 13.894 59.3283 13.501 58.0116 13.2836C56.1311 12.9734 54.1315 12.3724 52.3578 11.5217C53.087 9.95927 55.0517 9.89396 56.4197 9.92527Z" fill="#797E88"/>
<path d="M58.0352 7.37552C59.2523 9.28264 60.7024 11.1781 62.2799 12.8472C63.6007 11.6002 62.8037 9.52495 62.2645 8.23442C61.2889 5.89599 58.9483 3.87944 56.5009 2.84766C55.8292 4.38495 57.2886 6.20496 58.0352 7.37552Z" fill="#797E88"/>
<path d="M62.3652 15.2733C64.2888 15.9613 65.9413 17.8979 66.7711 19.8423C65.3877 20.4893 63.8154 19.5549 62.6651 18.9327C61.0855 18.0784 59.4741 16.8995 58.2068 15.5353C59.3519 14.3191 61.0917 14.818 62.3652 15.2733Z" fill="#797E88"/>
<path d="M64.6965 13.3677C65.1176 15.5429 65.8232 17.7974 66.7506 19.8523C68.3692 19.0843 68.3076 16.8848 68.2377 15.485C68.1196 13.0958 66.7917 10.3713 64.942 8.63989C63.8092 9.86129 64.4285 11.9821 64.6965 13.3677Z" fill="#797E88"/>
<path d="M66.0656 22.1778C67.6688 23.4501 68.6403 25.8078 68.8652 27.9132C67.3494 28.0884 66.1375 26.7 65.2357 25.7475C64.0074 24.4505 62.8448 22.8239 62.1074 21.1221C63.5524 20.3287 65.0221 21.3491 66.0656 22.1778Z" fill="#797E88"/>
<path d="M68.8437 21.1038C68.5571 23.3001 68.5571 25.6767 68.8427 27.9161C70.6061 27.6982 71.1915 25.5679 71.5365 24.2315C72.1333 21.9247 71.7327 18.9449 70.5711 16.7024C69.1189 17.5112 69.0255 19.6998 68.8437 21.1038Z" fill="#797E88"/>
<path d="M67.3237 29.7146C68.5921 31.584 69.0378 34.5136 68.4678 36.8684C66.7917 36.4691 65.9608 34.5599 65.2932 33.2114C64.4069 31.4193 63.6572 29.3286 63.3891 27.2773C65.207 26.8966 66.4887 28.4831 67.3237 29.7146Z" fill="#797E88"/>
<path d="M70.6533 29.5256C69.6653 31.8276 68.894 34.3612 68.4431 36.8627C70.3647 37.2782 71.7481 35.2473 72.5523 33.9007C73.9829 31.5035 74.3999 28.1805 73.8761 25.3127C72.1168 25.6677 71.2551 28.1234 70.6533 29.5256Z" fill="#797E88"/>
<path d="M66.4363 37.8481C67.1172 40.1159 66.6448 43.1988 65.2655 45.3308C63.7507 44.3382 63.5401 42.1535 63.3255 40.5871C63.043 38.52 62.9095 36.2301 63.2608 34.0867C65.1988 34.3356 65.9814 36.3331 66.4363 37.8481Z" fill="#797E88"/>
<path d="M69.8039 38.8188C68.1042 40.7819 66.5359 43.02 65.2419 45.3159C66.9961 46.4179 69.0552 44.9124 70.3041 43.8471C72.5184 41.9572 73.9572 38.7451 74.2982 35.7168C72.4547 35.4676 70.8299 37.6345 69.8039 38.8188Z" fill="#797E88"/>
<path d="M62.8623 45.5667C62.7164 48.2063 61.0085 50.9762 58.7346 52.5527C57.6357 51.0398 58.3249 48.7218 58.6987 47.1036C59.203 44.9251 59.9013 42.6565 60.9386 40.6436C62.7483 41.6054 62.9588 43.8283 62.8623 45.5667Z" fill="#797E88"/>
<path d="M65.9218 47.7964C63.4579 49.174 61.0013 50.7995 58.7172 52.5292C60.0852 54.3417 62.8191 53.6189 64.5137 53.0363C67.5014 52.0097 70.1644 49.3034 71.555 46.2967C69.7916 45.3828 67.3771 46.9827 65.9218 47.7964Z" fill="#797E88"/>
<path d="M55.8456 52.0153C54.3667 54.7307 50.997 56.5021 47.8231 56.9286C47.4815 54.9545 49.6044 52.9999 50.7618 51.7213C52.4082 49.9009 54.1243 48.0117 56.049 46.4377C57.4909 48.1219 56.7278 50.3941 55.8456 52.0153Z" fill="#797E88"/>
<path d="M57.9572 55.4568C54.5957 55.8084 51.1778 56.3147 47.8176 56.8984C48.1384 59.3891 52.0672 59.7911 53.8501 59.9381C57.5074 60.2397 61.5754 58.7608 64.4069 56.2711C63.0009 54.6055 59.7483 55.2696 57.9572 55.4568Z" fill="#797E88"/>
<path d="M51.4828 4.77824C53.7392 5.42603 56.3817 6.65498 57.6861 8.92356C55.3177 8.66378 52.9895 7.81572 50.7125 7.16957C48.1622 6.44572 45.4769 5.90436 43.0077 4.90523C45.7119 3.81672 48.8995 4.03671 51.4828 4.77824Z" fill="#797E88"/>
<path d="M39.6437 3.60428L38.4857 1.03345L37.3495 3.55643L34.707 1.90806L36.405 5.49817H40.6278L42.2644 1.90806L39.6437 3.60428Z" fill="#797E88"/>
<path d="M40.6006 6.05591H36.3712V6.68386H40.6006V6.05591Z" fill="#797E88"/>
<path d="M38.7881 54.6343L39.4697 56.7446H41.675L39.8909 58.0487L40.5723 60.159L38.7881 58.8548L37.004 60.159L37.6855 58.0487L35.9014 56.7446H38.1067L38.7881 54.6343Z" fill="#797E88"/>
</svg>
