<svg width="122" height="62" viewBox="0 0 122 62" fill="none" xmlns="http://www.w3.org/2000/svg">
<path d="M9.51272 13.3276C8.76023 11.4025 9.0869 9.18902 9.78005 7.32735C10.5093 5.36839 11.7792 3.41479 13.6772 2.38452C13.7713 4.44888 13.1449 6.48844 12.4604 8.32758C11.8448 9.98179 11.0895 11.7441 9.84223 13.1122C9.65059 14.1488 9.50371 15.1825 9.40043 16.2115C9.81381 15.1244 10.4841 14.1336 11.3204 13.3369C12.3972 12.3111 13.999 11.5195 15.5025 11.9876C15.0622 13.6607 14.0583 15.2644 12.8695 16.3895C11.9337 17.275 10.6985 18.4097 9.24349 18.4543C9.18355 19.9686 9.21743 21.469 9.34121 22.949C9.54647 21.8659 9.98627 20.846 10.6217 20.0865C11.4947 19.0428 12.789 17.7678 14.4421 17.9811C14.3518 19.6744 13.6808 21.4093 12.7464 22.713C12.0039 23.749 11.0236 25.0694 9.63223 25.4105C9.85503 26.8647 10.1654 28.2949 10.5591 29.6943C10.5629 28.6228 10.798 27.5711 11.2644 26.7275C11.9218 25.5379 12.9456 24.0545 14.6006 23.9385C14.8431 25.5997 14.5145 27.4157 13.8514 28.8601C13.3215 30.0146 12.6149 31.4868 11.3271 32.096C11.8679 33.6016 12.5079 35.0652 13.2416 36.4778C12.984 35.2603 12.9943 33.9772 13.2992 32.8228C13.7193 31.2313 14.7622 29.5596 16.4366 29.0744C17.0285 30.8314 16.9469 32.7923 16.603 34.5781C16.3201 36.0485 15.7641 37.7754 14.5178 38.7306C15.3326 40.0542 16.2339 41.3245 17.2169 42.5331C16.6888 41.3477 16.4263 40.0513 16.5671 38.8644C16.7723 37.1353 17.255 35.2855 19.0095 34.3636C20.0049 36.0925 20.2355 38.032 20.3201 39.9477C20.3885 41.4964 20.1668 43.4066 19.0983 44.6665C20.2737 45.8966 21.5419 47.0479 22.8965 48.1095C22.022 46.9803 21.4096 45.6552 21.2799 44.3447C21.0968 42.4932 21.1863 40.4549 22.8186 39.0962C24.2146 40.5639 25.0477 42.7254 25.456 44.6028C25.817 46.2628 26.1939 48.2274 25.3343 49.861C27.0582 50.9937 28.8985 51.9917 30.8442 52.8368C29.4751 51.8547 28.3543 50.5073 27.8204 49.1161C27.1207 47.2924 26.6879 45.1194 28.0509 43.2931C29.877 44.4705 31.2191 46.4793 32.2765 48.3114C33.1838 49.8834 34.1229 52.0532 33.657 53.9255C34.7342 54.2934 35.8393 54.6165 36.9709 54.8922L36.9036 55.1718C35.7678 54.8951 34.6584 54.5709 33.5768 54.2019C32.819 56.4562 30.3364 57.2009 28.3288 57.5297C25.4682 57.9982 22.062 57.0905 19.6199 55.2619C20.9088 53.4283 23.5387 53.2423 25.5217 53.102L25.5475 53.1002C27.7199 52.9465 30.0696 53.1518 32.2542 53.7231C29.7305 52.7561 27.369 51.5401 25.1915 50.1107L25.1594 50.1617C23.9661 52.1094 21.5704 52.1853 19.69 52.0621C17.1383 51.895 14.1923 50.3332 12.4872 48.1743C14.091 46.7578 16.4598 47.1542 18.2953 47.4614L18.3042 47.4628C20.3527 47.8056 22.5912 48.5534 24.4702 49.7048C24.2913 49.5629 24.1161 49.4128 23.9459 49.2554C22.119 47.9443 20.4337 46.4776 18.9044 44.8785C18.8867 44.8964 18.8687 44.9141 18.8505 44.9318C17.3636 46.4375 15.1979 46.0433 13.5078 45.5532C11.2461 44.8974 8.90047 42.919 7.77641 40.6478C9.51828 39.6654 11.6008 40.4749 13.2207 41.1153C14.9985 41.8182 16.8796 42.9425 18.3259 44.3758C18.1768 44.1865 18.0346 43.9887 17.9001 43.7839C16.5558 42.2566 15.3464 40.6211 14.2832 38.8957L14.2299 38.9294C12.5478 40.0221 10.6419 39.2308 9.13132 38.4525C7.08326 37.3975 5.43744 35.0787 4.72629 32.7983C6.54314 32.2125 8.3382 33.3622 9.73362 34.2728C11.2598 35.2686 12.8057 36.6889 13.8669 38.3177C13.789 38.1572 13.7164 37.9931 13.6494 37.826C12.6299 36.0354 11.7637 34.1556 11.0625 32.2056L11.0263 32.218L11.0234 32.219C9.49388 32.8043 7.79062 31.8944 6.68018 30.8964C5.13683 29.5095 4.04901 27.3773 3.794 25.2942C5.38864 25.0863 6.89102 26.3282 7.91819 27.3875C9.10052 28.6066 10.1617 30.0475 10.8141 31.6479C10.7665 31.4741 10.7256 31.2975 10.6913 31.1191C10.0976 29.2867 9.64786 27.3969 9.35139 25.4649L9.3283 25.4677L9.32048 25.469C7.70344 25.7408 6.20841 24.5033 5.31521 23.3022C4.06204 21.6169 3.41603 19.2844 3.57795 17.1703C5.1887 17.2837 6.41522 18.8262 7.21059 20.074C8.13116 21.5184 8.89454 23.1532 9.22892 24.8635C9.21873 24.7274 9.21269 24.5905 9.21056 24.4533C8.96502 22.4869 8.87749 20.4803 8.95756 18.4488L8.95294 18.4486C7.3089 18.389 6.09387 16.8525 5.46658 15.4895C4.56899 13.5392 4.42449 11.0738 5.02359 8.99611C6.59052 9.43881 7.46406 11.2481 7.97966 12.6409C8.57415 14.2467 8.98906 15.9981 8.99238 17.7393C9.0779 16.2785 9.25012 14.8061 9.51272 13.3276Z" fill="#797E88"/>
<path d="M41.8927 9.72363V16.6984C41.8927 19.7661 39.1326 21.242 34.9495 21.242C31.0394 21.242 28.2363 19.7806 28.2363 16.3366V9.72363H32.132V16.3366C32.132 17.5666 33.1813 18.3335 35.1076 18.3335C36.9477 18.3335 38.0402 17.5377 38.0402 16.3511V9.72363H41.8927Z" fill="#797E88"/>
<path d="M54.8672 18.0586V21.0829H44.1002V9.72363H47.9959V18.0586H54.8672Z" fill="#797E88"/>
<path d="M66.4448 12.5743V9.72363H52.9751V12.5743H57.7334V21.0829H61.6722V12.5743H66.4448Z" fill="#797E88"/>
<path fill-rule="evenodd" clip-rule="evenodd" d="M80.263 10.8814C80.7806 11.4167 81.0258 12.1547 81.0258 13.182C81.0258 14.0648 80.8102 14.8173 80.4501 15.3237C80.0474 15.8736 79.4291 16.3366 78.6675 16.4524L82.0752 21.0829H77.791L74.9874 17.0746H71.4946V21.0829H67.6563V9.72363H76.6409C78.4235 9.72363 79.5878 10.1578 80.263 10.8814ZM77.1585 14.1372C77.2592 13.9635 77.2876 13.7319 77.2876 13.5439C77.2876 13.3268 77.2592 13.0952 77.1585 12.9506C76.9571 12.5743 76.5544 12.4731 75.9503 12.4731H71.5089V14.5423H76.0226C76.6409 14.5423 77.0152 14.4266 77.1585 14.1372Z" fill="#797E88"/>
<path fill-rule="evenodd" clip-rule="evenodd" d="M87.2608 18.9848H93.356L94.3474 21.0829H98.5026L92.81 9.72363H88.1669L82.1439 21.0829H86.2114L87.2608 18.9848ZM92.1337 16.4379H88.5258L89.9495 13.7031L90.3807 12.6611L90.7834 13.6885L92.1337 16.4379Z" fill="#797E88"/>
<path fill-rule="evenodd" clip-rule="evenodd" d="M79.852 23.2224C77.4404 23.2224 76.1718 24.373 76.1718 26.0637C76.1718 27.972 77.5032 28.94 79.852 28.94C82.4376 28.94 83.525 27.8176 83.525 26.0637C83.525 24.2818 82.2979 23.2224 79.852 23.2224ZM79.852 27.53C78.4792 27.53 78.0812 26.9617 78.0812 26.0848C78.0812 25.2219 78.5135 24.6537 79.8448 24.6537C81.3017 24.6537 81.6287 25.292 81.6287 26.0848C81.6287 26.9267 81.2319 27.53 79.852 27.53Z" fill="#797E88"/>
<path d="M72.5975 28.8558V25.5936H68.9595V26.7792H70.9039C70.89 26.8705 70.8203 27.0458 70.7297 27.151C70.5276 27.3896 69.9909 27.6 69.294 27.6C68.5692 27.6 68.1023 27.4106 67.8514 27.1159C67.6842 26.8985 67.5866 26.5898 67.5866 26.1268C67.5866 25.6427 67.6842 25.3131 67.8723 25.0956C68.1441 24.7869 68.604 24.6536 69.2801 24.6536C69.8864 24.6536 70.3046 24.7938 70.4998 24.9692C70.6252 25.0745 70.7227 25.2218 70.7436 25.32H72.5487C72.5418 25.1446 72.486 24.864 72.3884 24.6606C71.9563 23.7767 70.9527 23.2505 69.2453 23.2505C67.7608 23.2505 66.7642 23.7064 66.2137 24.394C65.8512 24.864 65.684 25.4533 65.684 26.1127C65.684 26.8424 65.879 27.4667 66.1997 27.8807C66.7432 28.5893 67.712 28.9399 68.8759 28.9399C69.9004 28.9399 70.6042 28.6944 71.0503 28.3227L71.0991 28.8558H72.5975Z" fill="#797E88"/>
<path d="M53.6127 25.5236C55.0274 25.6779 55.6338 26.1831 55.6338 27.1442C55.6338 28.3087 54.5047 28.94 52.2815 28.94C50.2116 28.94 49.3196 28.3508 48.978 27.5791C48.9014 27.3967 48.8665 27.1722 48.8456 27.0319H50.8528C50.8668 27.116 50.9156 27.2423 50.9852 27.3265C51.1524 27.53 51.6194 27.6492 52.4139 27.6492C53.4385 27.6492 53.6823 27.5019 53.6823 27.2284C53.6823 26.9336 53.4315 26.8705 52.5045 26.7723C52.1352 26.7372 51.5497 26.6811 51.3058 26.6601C49.5357 26.4987 48.8805 25.9445 48.8805 24.9974C48.8805 24.0152 50.0374 23.2646 52.1491 23.2646C54.0238 23.2646 54.895 23.8259 55.2575 24.5274C55.3689 24.7379 55.4386 24.9763 55.4595 25.1447H53.4523C53.4453 25.0675 53.4175 24.9904 53.3409 24.8921C53.1875 24.6887 52.7972 24.5554 52.1003 24.5554C51.1176 24.5554 50.8598 24.6747 50.8598 24.9272C50.8598 25.2079 51.1874 25.2711 52.2815 25.3903C52.7066 25.4253 53.3827 25.4955 53.6127 25.5236Z" fill="#797E88"/>
<path fill-rule="evenodd" clip-rule="evenodd" d="M33.6041 23.8186C33.9734 24.1133 34.1825 24.6114 34.1825 25.3339C34.1825 25.9233 34.0362 26.3652 33.7574 26.6739C33.3811 27.1088 32.7608 27.3053 31.9524 27.3123C31.7014 27.3194 29.5549 27.3123 29.5549 27.3123V28.8557H27.6801V23.3486H31.9244C32.6771 23.3486 33.2486 23.5029 33.6041 23.8186ZM32.2172 25.7619C32.2729 25.6637 32.3008 25.5374 32.3008 25.362C32.3008 25.1797 32.2659 25.0253 32.2032 24.9411C32.0848 24.7657 31.8618 24.6815 31.4993 24.6815H29.5409V26.0285H31.4853C31.8756 26.0285 32.1056 25.9373 32.2172 25.7619Z" fill="#797E88"/>
<path fill-rule="evenodd" clip-rule="evenodd" d="M41.0405 23.9099C41.2915 24.1694 41.41 24.5272 41.41 25.0253C41.41 25.4532 41.3054 25.818 41.1312 26.0635C40.9361 26.3301 40.6364 26.5546 40.267 26.6108L41.9187 28.8557H39.8419L38.4828 26.9124H36.7893V28.8557H34.9285V23.3486H39.2843C40.1485 23.3486 40.713 23.5591 41.0405 23.9099ZM39.5352 25.4883C39.584 25.4042 39.5979 25.2919 39.5979 25.2006C39.5979 25.0955 39.584 24.9832 39.5352 24.9131C39.4376 24.7306 39.2425 24.6815 38.9498 24.6815H36.7963V25.6847H38.9847C39.2843 25.6847 39.4656 25.6286 39.5352 25.4883Z" fill="#797E88"/>
<path d="M48.2807 28.8557V27.4877H44.357V26.7721H48.1204V25.4322H44.357V24.7236H48.2319V23.3486H42.5171V28.8557H48.2807Z" fill="#797E88"/>
<path d="M62.4157 24.7306V23.3486H55.8855V24.7306H58.1922V28.8557H60.1018V24.7306H62.4157Z" fill="#797E88"/>
<path d="M64.9266 23.3486V28.8557H63.01V23.3486H64.9266Z" fill="#797E88"/>
<path d="M75.415 23.3486V28.8557H73.498V23.3486H75.415Z" fill="#797E88"/>
<path d="M90.9196 23.3486V26.73C90.9196 28.2173 89.5812 28.9329 87.5534 28.9329C85.6582 28.9329 84.2985 28.2243 84.2985 26.5546V23.3486H86.1877V26.5546C86.1877 27.1509 86.6958 27.5228 87.6304 27.5228C88.5223 27.5228 89.0517 27.137 89.0517 26.5617V23.3486H90.9196Z" fill="#797E88"/>
<path d="M98.4433 27.1442C98.4433 26.1831 97.8369 25.6779 96.4226 25.5236C96.1917 25.4955 95.5165 25.4253 95.0913 25.3903C93.9968 25.2711 93.6687 25.2079 93.6687 24.9272C93.6687 24.6747 93.927 24.5554 94.9101 24.5554C95.6065 24.5554 95.9974 24.6887 96.1502 24.8921C96.2272 24.9904 96.2544 25.0675 96.2615 25.1447H98.2692C98.2479 24.9763 98.178 24.7379 98.0667 24.5274C97.7042 23.8259 96.8336 23.2646 94.9586 23.2646C92.8467 23.2646 91.6895 24.0152 91.6895 24.9974C91.6895 25.9445 92.3457 26.4987 94.1153 26.6601L94.229 26.6702L94.4185 26.6876L95.314 26.7723C96.2414 26.8705 96.4913 26.9336 96.4913 27.2284C96.4913 27.5019 96.2485 27.6492 95.2239 27.6492C94.4292 27.6492 93.9625 27.53 93.7943 27.3265C93.7256 27.2423 93.6758 27.116 93.6628 27.0319H91.6552C91.6765 27.1722 91.7108 27.3967 91.7878 27.5791C92.1289 28.3508 93.0208 28.94 95.0913 28.94C97.3145 28.94 98.4433 28.3087 98.4433 27.1442Z" fill="#797E88"/>
<path fill-rule="evenodd" clip-rule="evenodd" d="M49.708 30.9644C48.1409 30.9644 47.3165 31.7122 47.3165 32.811C47.3165 34.0511 48.1816 34.6803 49.708 34.6803C51.3885 34.6803 52.0951 33.9508 52.0951 32.811C52.0951 31.6529 51.2979 30.9644 49.708 30.9644ZM49.708 33.7639C48.8158 33.7639 48.5576 33.3945 48.5576 32.8246C48.5576 32.2639 48.8384 31.8945 49.7035 31.8945C50.6501 31.8945 50.8631 32.3094 50.8631 32.8246C50.8631 33.3717 50.6049 33.7639 49.708 33.7639Z" fill="#797E88"/>
<path d="M40.9926 33.5131C40.9926 32.8884 40.5985 32.5601 39.679 32.4598C39.5295 32.4415 39.0902 32.396 38.8139 32.3732C38.1027 32.2956 37.8899 32.2546 37.8899 32.0723C37.8899 31.9081 38.0575 31.8306 38.6961 31.8306C39.1491 31.8306 39.4027 31.9172 39.5024 32.0494C39.5522 32.1133 39.5703 32.1634 39.5749 32.2136H40.8794C40.8657 32.1041 40.8205 31.9491 40.748 31.8124C40.5124 31.3564 39.9462 30.9917 38.7278 30.9917C37.3555 30.9917 36.6036 31.4795 36.6036 32.1178C36.6036 32.7334 37.0292 33.0936 38.1797 33.1984C38.3383 33.2121 38.7188 33.2486 38.9589 33.2714C39.5613 33.3352 39.7243 33.3763 39.7243 33.5678C39.7243 33.7456 39.5658 33.8413 38.9 33.8413C38.3836 33.8413 38.0801 33.7638 37.9714 33.6316C37.9261 33.5769 37.8944 33.4948 37.8854 33.4401H36.5808C36.5944 33.5313 36.6171 33.6771 36.6669 33.7958C36.8889 34.2973 37.4687 34.6802 38.8139 34.6802C40.2588 34.6802 40.9926 34.2699 40.9926 33.5131Z" fill="#797E88"/>
<path fill-rule="evenodd" clip-rule="evenodd" d="M31.9487 33.6134C31.9487 33.8596 31.8807 34.1013 31.7449 34.2608C31.5365 34.5162 31.1469 34.6256 30.6443 34.6256H27.4872V31.0464H30.5581C31.0473 31.0464 31.3599 31.165 31.532 31.3428C31.686 31.4978 31.754 31.703 31.754 31.9355C31.754 32.1681 31.6996 32.3596 31.5819 32.5009C31.4867 32.6195 31.3237 32.7106 31.1516 32.7335C31.4052 32.7653 31.6453 32.893 31.7811 33.0708C31.8943 33.203 31.9487 33.4037 31.9487 33.6134ZM30.4223 32.3596C30.4675 32.3094 30.4948 32.2364 30.4948 32.1499C30.4948 32.0632 30.4675 31.9902 30.4087 31.9401C30.3453 31.8808 30.2274 31.858 30.0553 31.858H28.6739V32.4416H30.0871C30.2411 32.4416 30.3589 32.4189 30.4223 32.3596ZM30.2184 33.8141C30.4313 33.8141 30.5581 33.7867 30.6306 33.7183C30.6759 33.6727 30.694 33.6044 30.694 33.5177C30.694 33.4265 30.6714 33.3582 30.617 33.3034C30.5491 33.2442 30.4313 33.2167 30.2321 33.2167H28.6739V33.8141H30.2184Z" fill="#797E88"/>
<path d="M36.2138 33.7366V34.6256H32.4679V31.0464H36.182V31.9401H33.6636V32.4006H36.1095V33.2715H33.6636V33.7366H36.2138Z" fill="#797E88"/>
<path d="M45.4002 31.0464V31.9447H43.8965V34.6256H42.6555V31.9447H41.1562V31.0464H45.4002Z" fill="#797E88"/>
<path d="M56.2399 31.0464V31.9537H53.8257V32.4599H56.1266V33.3582H53.8257V34.6256H52.6072V31.0464H56.2399Z" fill="#797E88"/>
<path d="M62.3769 31.9447V31.0464H58.1329V31.9447H59.6322V34.6256H60.8733V31.9447H62.3769Z" fill="#797E88"/>
<path d="M67.0075 31.0464V34.6256H65.7935V33.3262H63.9727V34.6256H62.7588V31.0464H63.9727V32.3504H65.7935V31.0464H67.0075Z" fill="#797E88"/>
<path d="M71.4721 34.6256V33.7366H68.9219V33.2715H71.3679V32.4006H68.9219V31.9401H71.4404V31.0464H67.7262V34.6256H71.4721Z" fill="#797E88"/>
<path d="M78.9814 31.0464H80.154L78.8546 34.6256H77.5233C77.5233 34.6256 76.8114 32.4873 76.8067 32.4279C76.8032 32.4873 76.0866 34.6256 76.0866 34.6256H74.76L73.4283 31.0464H74.7457C74.7457 31.0464 75.5168 33.2988 75.5168 33.3535C75.5168 33.2988 76.2275 31.0464 76.2275 31.0464H77.5008C77.5008 31.0464 78.2162 33.2988 78.2162 33.3535C78.2162 33.2988 78.9814 31.0464 78.9814 31.0464Z" fill="#797E88"/>
<path fill-rule="evenodd" clip-rule="evenodd" d="M82.4803 30.9644C80.9133 30.9644 80.0889 31.7122 80.0889 32.811C80.0889 34.0511 80.9535 34.6803 82.4803 34.6803C84.1611 34.6803 84.867 33.9508 84.867 32.811C84.867 31.6529 84.0699 30.9644 82.4803 30.9644ZM82.4803 33.7639C81.5884 33.7639 81.3302 33.3945 81.3302 32.8246C81.3302 32.2639 81.6109 31.8945 82.4756 31.8945C83.4231 31.8945 83.6352 32.3094 83.6352 32.8246C83.6352 33.3717 83.377 33.7639 82.4803 33.7639Z" fill="#797E88"/>
<path fill-rule="evenodd" clip-rule="evenodd" d="M89.3525 31.4112C89.5148 31.5799 89.5918 31.8124 89.5918 32.1362C89.5918 32.4143 89.5243 32.6514 89.4106 32.811C89.2839 32.9842 89.0896 33.1302 88.8492 33.1665L89.9223 34.6256H88.5732L87.6896 33.3627H86.5892V34.6256H85.3799V31.0464H88.2107C88.7722 31.0464 89.1393 31.1833 89.3525 31.4112ZM88.3742 32.4371C88.405 32.3824 88.4144 32.3094 88.4144 32.2501C88.4144 32.1817 88.405 32.1089 88.3742 32.0632C88.3102 31.9447 88.1835 31.9127 87.9928 31.9127H86.5939V32.5648H88.0153C88.2107 32.5648 88.328 32.5283 88.3742 32.4371Z" fill="#797E88"/>
<path d="M93.7043 34.6256V33.6727H91.5391V31.0464H90.312V34.6256H93.7043Z" fill="#797E88"/>
<path fill-rule="evenodd" clip-rule="evenodd" d="M98.5073 32.7699C98.5073 33.3262 98.4528 33.6271 98.2906 33.9098C98.0454 34.3611 97.5609 34.6256 96.7045 34.6256H94.1864V31.0464H96.6773C97.5289 31.0464 98.0323 31.2881 98.2811 31.703C98.4576 31.9812 98.5073 32.2774 98.5073 32.7699ZM96.4736 33.7457C96.8585 33.7457 97.0765 33.6544 97.2079 33.4539C97.2897 33.3307 97.3122 33.0435 97.3122 32.7928C97.3074 32.5648 97.2802 32.3231 97.2079 32.2137C97.067 31.9994 96.855 31.9219 96.4831 31.9219H95.4005V33.7457H96.4736Z" fill="#797E88"/>
<path d="M49.9192 52.033H48.0423C48.0423 52.033 46.8176 55.6367 46.8176 55.7242C46.8176 55.6367 45.6726 52.033 45.6726 52.033H43.6361C43.6361 52.033 42.4983 55.6367 42.4983 55.7242C42.4983 55.6367 41.2663 52.033 41.2663 52.033H39.1574L41.288 57.7595H43.4114C43.4114 57.7595 44.5564 54.3382 44.5637 54.2434C44.571 54.3382 45.7087 57.7595 45.7087 57.7595H47.8393L49.9192 52.033Z" fill="#797E88"/>
<path d="M52.4876 57.7595V52.033H50.4946V57.7595H52.4876Z" fill="#797E88"/>
<path d="M60.2395 52.033V57.7595H58.2972L55.4781 54.5716V57.7595H53.6085V52.033H55.652L58.3841 55.148V52.033H60.2395Z" fill="#797E88"/>
<path d="M68.003 57.7595V52.033H66.1478V55.148L63.4157 52.033H61.372V57.7595H63.2417V54.5716L66.0609 57.7595H68.003Z" fill="#797E88"/>
<path d="M75.1295 56.337V57.7595H69.1356V52.033H75.0786V53.4628H71.0489V54.1996H74.9625V55.593H71.0489V56.337H75.1295Z" fill="#797E88"/>
<path fill-rule="evenodd" clip-rule="evenodd" d="M82.7894 53.7765C82.7894 53.2585 82.6662 52.8865 82.4056 52.6166C82.0645 52.2519 81.4782 52.033 80.5792 52.033H76.0498V57.7595H77.9852V55.7388H79.7465L81.1596 57.7595H83.3189L81.6014 55.4252C81.9852 55.3668 82.2967 55.1333 82.5004 54.8561C82.6804 54.6008 82.7894 54.2214 82.7894 53.7765ZM80.9049 53.9589C80.9049 54.0537 80.8907 54.1704 80.8398 54.2579C80.7675 54.4039 80.5792 54.4622 80.2677 54.4622H77.9923V53.419H80.231C80.5354 53.419 80.7391 53.4701 80.8398 53.6597C80.8907 53.7327 80.9049 53.8494 80.9049 53.9589Z" fill="#797E88"/>
<path d="M44.1326 41.9298L43.3468 39.4949L42.5607 41.9298H40.0173L42.075 43.4346L41.2891 45.8695L43.3468 44.3647L45.4043 45.8695L44.6184 43.4346L46.676 41.9298H44.1326Z" fill="#797E88"/>
<path d="M52.4203 39.4932L53.2223 41.9281H55.8176L53.718 43.433L54.52 45.8678L52.4203 44.363L50.3207 45.8678L51.1227 43.433L49.023 41.9281H51.6183L52.4203 39.4932Z" fill="#797E88"/>
<path d="M62.2235 41.9281L61.4217 39.4932L60.6197 41.9281H58.0243L60.124 43.433L59.322 45.8678L61.4217 44.363L63.5212 45.8678L62.7192 43.433L64.819 41.9281H62.2235Z" fill="#797E88"/>
<path d="M70.4234 39.4932L71.2254 41.9281H73.8207L71.7211 43.433L72.5231 45.8678L70.4234 44.363L68.3238 45.8678L69.1258 43.433L67.0261 41.9281H69.6215L70.4234 39.4932Z" fill="#797E88"/>
<path d="M80.2831 41.9281L79.4966 39.4932L78.7101 41.9281H76.1671L78.2245 43.433L77.4392 45.8678L79.4966 44.363L81.554 45.8678L80.7687 43.433L82.8262 41.9281H80.2831Z" fill="#797E88"/>
<path d="M113.28 13.3806C114.032 11.4556 113.705 9.24187 113.012 7.38021C112.283 5.42136 111.013 3.46753 109.115 2.43726C109.021 4.50174 109.647 6.54118 110.332 8.38031C110.948 10.0344 111.702 11.7966 112.949 13.1646C113.141 14.2009 113.288 15.2344 113.391 16.2631C112.978 15.1766 112.309 14.1863 111.472 13.3898C110.396 12.3638 108.793 11.5724 107.29 12.0405C107.731 13.7134 108.734 15.3173 109.923 16.4423C110.859 17.3279 112.094 18.4625 113.549 18.5072C113.609 20.0215 113.575 21.522 113.451 23.0022C113.246 21.9191 112.806 20.8992 112.17 20.1397C111.297 19.0959 110.003 17.821 108.35 18.0343C108.44 19.7276 109.112 21.4626 110.046 22.7662C110.788 23.8022 111.769 25.1227 113.16 25.4638C112.938 26.9178 112.627 28.3478 112.233 29.7471C112.229 28.6757 111.995 27.6239 111.528 26.7804C110.871 25.5909 109.846 24.1073 108.191 23.9913C107.949 25.6526 108.278 27.4686 108.941 28.9129C109.471 30.0674 110.178 31.5397 111.465 32.1488C110.924 33.6547 110.284 35.1186 109.55 36.5314C109.808 35.3136 109.798 34.0303 109.493 32.8756C109.073 31.2841 108.03 29.6122 106.356 29.1272C105.763 30.8844 105.845 32.845 106.19 34.6309C106.473 36.1013 107.028 37.8283 108.274 38.7834C107.459 40.1077 106.558 41.3786 105.574 42.5879C106.103 41.402 106.365 40.1049 106.224 38.9175C106.019 37.1881 105.537 35.3385 103.783 34.4169C102.787 36.1457 102.556 38.0852 102.472 40.0009C102.403 41.5497 102.624 43.46 103.694 44.7201C102.518 45.9498 101.251 47.1007 99.8967 48.1621C100.771 47.0329 101.383 45.7079 101.512 44.3975C101.696 42.546 101.607 40.5079 99.9737 39.149C98.5784 40.6167 97.7445 42.7783 97.337 44.6557C96.9758 46.3155 96.5991 48.2803 97.4578 49.9139C95.7344 51.0468 93.8938 52.0449 91.9477 52.8902C93.317 51.908 94.4375 50.5603 94.9717 49.1689C95.6717 47.3454 96.104 45.1723 94.7419 43.3459C92.9154 44.5233 91.5734 46.532 90.5157 48.3642C89.6084 49.9364 88.6691 52.1063 89.1358 53.9786C88.0579 54.3465 86.9528 54.6696 85.8217 54.9453L85.8892 55.2249C87.0239 54.9482 88.1337 54.624 89.2151 54.2549C89.9732 56.5091 92.4558 57.2541 94.4635 57.5828C97.324 58.0513 100.731 57.1437 103.173 55.315C101.883 53.4814 99.2535 53.2954 97.2707 53.155L97.2446 53.1533C95.0723 52.9996 92.7224 53.2049 90.5382 53.7764C93.0611 52.8093 95.4229 51.5931 97.6012 50.1635L97.6308 50.2112C98.8235 52.1621 101.221 52.2384 103.102 52.1151C105.654 51.948 108.6 50.3861 110.305 48.2272C108.701 46.811 106.333 47.2072 104.497 47.5142L104.488 47.5159C102.44 47.8586 100.202 48.606 98.3237 49.7571C98.5025 49.6153 98.6767 49.4655 98.8472 49.3082C100.674 47.9972 102.358 46.5308 103.887 44.9319C103.908 44.9533 103.93 44.9743 103.951 44.9951C105.439 46.4892 107.598 46.095 109.285 45.6061C111.547 44.9503 113.892 42.9719 115.016 40.7007C113.274 39.7182 111.192 40.5277 109.573 41.1682C107.792 41.8716 105.91 42.9973 104.463 44.4325C104.612 44.2429 104.755 44.0447 104.89 43.8397C106.235 42.3115 107.445 40.675 108.509 38.9486L108.555 38.9773L108.567 38.9848C110.248 40.0736 112.152 39.283 113.661 38.5054C115.709 37.4503 117.356 35.1315 118.066 32.8511C116.249 32.2653 114.455 33.4151 113.06 34.3256C111.532 35.3221 109.985 36.7433 108.923 38.3733C109.002 38.2124 109.075 38.0479 109.143 37.8804C110.162 36.0892 111.028 34.2089 111.729 32.2584L111.766 32.2708L111.772 32.2732C113.301 32.8559 115.003 31.9465 116.113 30.9493C117.655 29.5624 118.744 27.4302 118.999 25.3471C117.404 25.1392 115.901 26.3811 114.874 27.4402C113.692 28.6602 112.63 30.102 111.977 31.7038C112.026 31.529 112.067 31.3514 112.101 31.172C112.695 29.3397 113.145 27.45 113.441 25.5182L113.486 25.5241C115.097 25.7867 116.587 24.5528 117.478 23.3551C118.731 21.6698 119.376 19.3373 119.214 17.2231C117.604 17.3366 116.377 18.8789 115.583 20.1268C114.661 21.572 113.897 23.2077 113.563 24.9191C113.574 24.7822 113.58 24.6446 113.582 24.5065C113.827 22.54 113.915 20.5333 113.834 18.5018C115.48 18.4437 116.698 16.9061 117.326 15.5426C118.223 13.5924 118.367 11.1269 117.769 9.04932C116.202 9.49202 115.328 11.3011 114.813 12.6938C114.218 14.2996 113.803 16.0513 113.8 17.7925C113.715 16.3317 113.542 14.8592 113.28 13.3806Z" fill="#797E88"/>
</svg>
