<svg width="171" height="62" viewBox="0 0 171 62" fill="none" xmlns="http://www.w3.org/2000/svg">
<path d="M17.0365 26.6909C16.9884 27.8211 16.9645 29.2522 16.9645 30.9837C16.9645 32.7152 16.9884 34.1581 17.0365 35.3125C17.0843 36.4428 17.1802 37.3446 17.3241 38.018C17.492 38.6913 17.7198 39.1603 18.0076 39.4249C18.3194 39.6894 18.727 39.8217 19.2307 39.8217C19.7342 39.8217 20.1298 39.6894 20.4177 39.4249C20.7294 39.1603 20.9572 38.6913 21.1011 38.018C21.269 37.3446 21.3768 36.4428 21.4248 35.3125C21.4729 34.1581 21.4968 32.7152 21.4968 30.9837C21.4968 29.2522 21.4729 27.8211 21.4248 26.6909C21.3768 25.5365 21.269 24.6226 21.1011 23.9493C20.9572 23.2759 20.7294 22.8069 20.4177 22.5424C20.1298 22.2778 19.7342 22.1455 19.2307 22.1455C18.727 22.1455 18.3194 22.2778 18.0076 22.5424C17.7198 22.8069 17.492 23.2759 17.3241 23.9493C17.1802 24.6226 17.0843 25.5365 17.0365 26.6909Z" fill="#797E88"/>
<path fill-rule="evenodd" clip-rule="evenodd" d="M18.3108 4.18613C9.63744 4.37226 2.74324 11.55 2.88241 20.249L3.05341 30.9373L2.88241 41.6256C2.74324 50.3247 9.63744 57.5024 18.3108 57.6884L28.9702 57.9172L39.6295 57.6884C48.3029 57.5024 55.1972 50.3247 55.0581 41.6256L54.8871 30.9373L55.0581 20.249C55.1972 11.55 48.3029 4.37226 39.6295 4.18613L28.9702 3.95752L18.3108 4.18613ZM29.3385 44.5475L25.3097 48.0466L21.6407 44.0785C21.3529 44.1267 21.0651 44.1628 20.7774 44.1868C20.5136 44.2348 20.2138 44.259 19.8781 44.259H19.2307C17.528 44.259 16.0891 44.0305 14.9141 43.5735C13.7391 43.1166 12.7919 42.359 12.0725 41.3009C11.3531 40.2187 10.8375 38.8358 10.5257 37.1525C10.214 35.4449 10.0581 33.3887 10.0581 30.9838C10.0581 28.5789 10.214 26.5348 10.5257 24.8513C10.8375 23.1438 11.3531 21.761 12.0725 20.7028C12.7919 19.6206 13.7391 18.839 14.9141 18.358C16.0891 17.8529 17.528 17.6004 19.2307 17.6004C20.9333 17.6004 22.3721 17.8529 23.5471 18.358C24.7221 18.839 25.6695 19.6206 26.3889 20.7028C27.1082 21.761 27.6239 23.1438 27.9356 24.8513C28.2474 26.5348 28.4032 28.5789 28.4032 30.9838C28.4032 33.4608 28.2354 35.5531 27.8996 37.2606C27.5639 38.9681 27.0124 40.363 26.245 41.4452L29.3385 44.5475ZM40.6931 27.3764V25.9335C40.6931 24.4665 40.5492 23.4684 40.2614 22.9394C39.9738 22.4103 39.5061 22.1457 38.8586 22.1457C38.355 22.1457 37.9474 22.278 37.6357 22.5426C37.3479 22.8071 37.12 23.2761 36.9522 23.9495C36.8083 24.6228 36.7124 25.5367 36.6644 26.6911C36.6164 27.8213 36.5924 29.2523 36.5924 30.9838C36.5924 32.7154 36.6164 34.1582 36.6644 35.3126C36.7124 36.443 36.8083 37.3448 36.9522 38.0182C37.12 38.6915 37.3479 39.1605 37.6357 39.4251C37.9474 39.6896 38.355 39.8219 38.8586 39.8219C39.2662 39.8219 39.602 39.7257 39.8658 39.5333C40.1296 39.3168 40.3334 38.9681 40.4773 38.4872C40.6212 38.0062 40.7171 37.3688 40.7651 36.5752C40.837 35.7576 40.873 34.7355 40.873 33.509H47.3477V35.4209C47.3477 37.2246 47.1079 38.7036 46.6283 39.8579C46.1487 41.0123 45.5132 41.9262 44.7219 42.5995C43.9304 43.2489 43.0193 43.6817 41.988 43.8982C40.9809 44.1387 39.9377 44.259 38.8586 44.259C36.9881 44.259 35.4534 44.0305 34.2543 43.5735C33.0554 43.1166 32.1201 42.359 31.4486 41.3009C30.7771 40.2187 30.3095 38.8358 30.0458 37.1525C29.806 35.4449 29.686 33.3887 29.686 30.9838C29.686 28.5308 29.8299 26.4506 30.1177 24.7431C30.4295 23.0356 30.9451 21.6527 31.6645 20.5946C32.3839 19.5364 33.3311 18.7788 34.5061 18.3219C35.6811 17.8409 37.132 17.6004 38.8586 17.6004C40.3694 17.6004 41.6523 17.7929 42.7075 18.1777C43.7626 18.5625 44.6139 19.1156 45.2615 19.837C45.9328 20.5345 46.4124 21.3882 46.7002 22.3983C47.012 23.3842 47.1679 24.5026 47.1679 25.7532V27.3764H40.6931Z" fill="#797E88"/>
<path fill-rule="evenodd" clip-rule="evenodd" d="M86.493 22.3417L92.3572 28.4448L98.2215 22.3417H108.41L97.4438 32.8042L108.41 43.2665H98.2215L92.3572 37.1479L86.493 43.2665H76.2889L87.2552 32.8042L76.2889 22.3417H86.493ZM85.9276 32.8042L74.0004 21.4251H86.8829L92.3572 27.1223L97.8316 21.4251H110.254V21.4095H131.308C136.123 21.3602 140.198 25.3976 140.132 30.2419C140.131 31.9843 139.661 33.5905 138.72 35.0201C138.013 36.1022 137.116 36.9925 136.041 37.6695L140.53 43.4501V39.7012C140.53 36.764 142.719 34.8915 145.237 33.6496C147.78 32.3959 150.988 31.6126 153.659 30.9789L153.663 30.9779L153.693 30.9703C155.34 30.5641 156.743 30.2184 157.741 29.8455C158.246 29.6564 158.577 29.4853 158.767 29.34C158.791 29.3215 158.81 29.3051 158.827 29.291C158.77 29.2377 158.651 29.1582 158.418 29.0665C157.875 28.8532 156.948 28.6925 155.543 28.6921C154.042 28.7077 152.766 28.8301 151.895 29.1364C151.467 29.2875 151.207 29.4595 151.061 29.6209C150.938 29.7596 150.864 29.9241 150.871 30.1821L150.893 31.1208H140.857V30.2041C140.857 28.3222 141.225 26.7488 141.962 25.4596C142.702 24.1645 143.781 23.219 145.096 22.5408C147.677 21.2102 151.232 20.8801 155.197 20.8801C159.256 20.8801 162.626 21.3499 165.012 22.5593C166.22 23.1721 167.201 23.9878 167.876 25.0485C168.552 26.112 168.884 27.3639 168.884 28.7874C168.884 31.4216 167.299 33.0994 165.356 34.193C163.469 35.2548 161.095 35.8577 159.123 36.3402H168.542V44.1522H141.075L141.087 44.1677H130.085L126.149 39.061H120.237V44.1677H110.682L110.699 44.1833H97.8309L92.3572 38.4722L86.8835 44.1833H74.0004L85.9276 32.8042ZM110.254 43.7588V21.8494L98.7713 32.8042L110.254 43.7588ZM126.601 38.1444L130.536 43.2509H139.215L134.657 37.3814C134.943 37.2488 135.215 37.1021 135.477 36.9417C136.474 36.3293 137.302 35.5158 137.955 34.5167C138.795 33.24 139.215 31.8077 139.215 30.2353C139.278 25.907 135.623 22.2795 131.314 22.3262H111.17V43.2509H119.32V38.1444H126.601ZM154.326 37.2568C154.612 36.9069 155.129 36.6093 155.815 36.3402C156.624 36.0225 157.666 35.7444 158.837 35.4665C162.85 34.4856 167.968 33.1466 167.968 28.7874C167.968 23.6807 163.239 21.7968 155.197 21.7968C147.635 21.7968 142.272 23.0323 141.806 29.2873C141.784 29.5818 141.772 29.8871 141.772 30.2041H149.955C149.954 30.1696 149.954 30.1355 149.955 30.102C150 28.2422 152.56 27.8059 155.539 27.7753C158.447 27.7753 159.785 28.4292 159.785 29.3167C159.785 30.4122 157.204 31.0489 153.963 31.8482L153.875 31.87C148.492 33.1466 141.446 34.9215 141.446 39.7012V43.2353H167.625V37.2568H154.326ZM158.879 29.3613C158.879 29.3613 158.873 29.3555 158.871 29.3421C158.879 29.3542 158.879 29.3613 158.879 29.3613ZM130.134 30.2353C130.134 29.7452 129.75 29.3616 129.26 29.3616H120.237V31.0934H129.26C129.523 31.0934 129.707 31.0133 129.872 30.8481C130.06 30.66 130.134 30.4719 130.134 30.2353ZM131.049 30.2353C131.049 29.2388 130.256 28.4448 129.26 28.4448H119.32V32.0101H129.26C129.757 32.0101 130.178 31.8388 130.52 31.4964C130.878 31.1382 131.049 30.7179 131.049 30.2353Z" fill="#797E88"/>
<path d="M77.0433 58.3622H80.9472V53.0016L84.8584 58.3622H86.8103L90.7215 53.0016V58.3622H94.6255V48.3137H89.7457L85.8344 53.338L81.9306 48.3137H77.0433V58.3622Z" fill="#797E88"/>
<path d="M102.85 48.0669C99.0806 48.0744 95.9962 49.1659 96.0111 52.9715V53.7041C95.9962 57.5022 99.0806 58.6014 102.85 58.6087C106.612 58.6014 109.697 57.5022 109.682 53.7041V52.9715C109.682 49.1734 106.62 48.0669 102.85 48.0669ZM105.778 53.4575C105.8 55.1023 104.444 55.4014 102.85 55.4238C101.249 55.4014 99.8925 55.1023 99.9149 53.4575V53.2108C99.8925 51.5733 101.249 51.2743 102.85 51.2518C104.444 51.2743 105.8 51.5733 105.778 53.2108V53.4575Z" fill="#797E88"/>
<path d="M120.618 53.3531C120.618 54.3623 120.045 55.1922 119.032 55.1922H114.755V51.5138H119.032C120.045 51.5138 120.618 52.3361 120.618 53.3531ZM110.851 48.3288V58.3772H119.762C122.511 58.4146 124.552 56.082 124.53 53.3531C124.552 50.6091 122.511 48.2914 119.762 48.3288H110.851Z" fill="#797E88"/>
<path d="M135.399 53.4651C135.421 55.1174 134.067 55.4015 132.471 55.4239C130.87 55.4015 129.522 55.1174 129.536 53.4651V48.3137H125.632V53.7118C125.618 57.5099 128.717 58.6015 132.471 58.6089C136.226 58.6015 139.326 57.5099 139.311 53.7118V48.3137H135.399V53.4651Z" fill="#797E88"/>
<path d="M141.068 48.3137V58.3622H152.789V55.1773H144.972V48.3137H141.068Z" fill="#797E88"/>
<path d="M154.121 58.377H165.841V55.7976H158.025V54.5116H165.841V52.1865H158.025V50.9004H165.841V48.3286H154.121V58.377Z" fill="#797E88"/>
<path d="M79.291 10.033V7.9154H85.0772C85.3575 7.9154 85.6016 8.0171 85.8004 8.22975C86.0084 8.43329 86.1078 8.68288 86.1078 8.97876C86.1078 9.26554 86.0084 9.51513 85.8004 9.72791C85.6016 9.93132 85.3575 10.033 85.0772 10.033H79.291ZM74.5536 4.28127V16.7095H79.291V13.6764H86.2616C88.766 13.7135 90.8906 11.5403 90.8544 8.97876C90.8906 6.40814 88.766 4.25344 86.2616 4.28127H74.5536Z" fill="#797E88"/>
<path d="M100.284 3.95752C95.7094 3.96675 91.9664 5.3169 91.9845 10.0238V10.93C91.9664 15.6276 95.7094 16.9869 100.284 16.9961C104.849 16.9869 108.593 15.6276 108.574 10.93V10.0238C108.574 5.32614 104.859 3.95752 100.284 3.95752ZM103.836 10.6248C103.864 12.6592 102.219 13.029 100.284 13.0569C98.3403 13.029 96.6949 12.6592 96.722 10.6248V10.3196C96.6949 8.29449 98.3403 7.9246 100.284 7.89689C102.219 7.9246 103.864 8.29449 103.836 10.3196V10.6248Z" fill="#797E88"/>
<path d="M127.045 12.1506L124.233 4.28125H118.899L116.079 12.1506L113.266 4.28125H107.933L113.266 16.7095H118.899L121.567 10.4954L124.233 16.7095H129.865L135.2 4.28125H129.865L127.045 12.1506Z" fill="#797E88"/>
<path d="M135.562 16.7095H149.783V13.5192H140.299V11.9286H149.783V9.05274H140.299V7.46225H149.783V4.28125H135.562V16.7095Z" fill="#797E88"/>
<path d="M152.306 4.27175V16.7001H157.042V13.667H161.274L163.562 16.7001H168.606L165.957 13.2139C166.753 12.8347 167.395 12.2614 167.873 11.5124C168.363 10.7542 168.606 9.90346 168.606 8.96937C168.643 6.39861 166.517 4.24405 164.014 4.27175H152.306ZM162.82 7.906C163.398 7.906 163.86 8.3776 163.86 8.96937C163.86 9.25602 163.76 9.50574 163.552 9.71838C163.354 9.92193 163.109 10.0236 162.82 10.0236H157.042V7.906H162.82Z" fill="#797E88"/>
</svg>
